<svg id="Слой_1" data-name="Слой 1" xmlns="http://www.w3.org/2000/svg" viewBox="0 0 50.7 37.94"><defs><style>.cls-1{fill:#202020;}.cls-2{fill:#fcba54;}.cls-3{opacity:0.42;}</style></defs><g id="Слой_1-2" data-name="Слой 1-2"><path class="cls-1" d="M41.34,37.57c.42,0,.2-.34.29-.54.49-.12.23.23.4.4.31-.11.54-.43.77-.43,0,0,.06.07,0,.14.31-.28,1-.06,1.35-.42a.19.19,0,0,1,.05.09,1.07,1.07,0,0,1-.06-.46c.19,0,.34-.23.42,0-.07,0-.13,0-.18.16l.19-.11c.18.31-.26.13-.26.37a2.79,2.79,0,0,1,1.11-.34c.07.31-.68.14-.29.39l-.45-.09c.35.48-.27,0,0,.49.59.06.66-.19,1.25-.13.13-.18,0-.26.08-.43.84-.36.67.74,1.28.3.19-.43.43-.59.66-.43l-.14.36c.57,0,.31-.52.93-.31-.1.14-.45.13-.36.17.39.26.28-.21.58-.23l.06.31c.62-.08,1.28-.34,2-.43,0,.09-.15.2,0,.29a6.58,6.58,0,0,1,2.65.09l.31-.29c.07,0,.14.11.06.17.31.08,0-.17.17-.28s.24.14.12.22a3.69,3.69,0,0,1,2.21-.38l-.11.09c.46.07.52-.6.94-.4l-.09.05c1,0,2.12-.41,2.9-.16.14-.41,1,0,1.06-.6a2.49,2.49,0,0,0,1.25.21c.22,0,.31-.44.58-.59v.28l.36-.43.2.27.25-.17c-.1,0-.21,0-.2-.12a.86.86,0,0,1,1-.07c.31-.21.6-.43.91-.67,0,.12-.17.24-.29.37.48-.53.11.25.55-.24-.07,0,0-.18,0-.24A1.92,1.92,0,0,0,67,33.21l-.06.24a9,9,0,0,0,2.19-2.23c-.27.29-.26-.11,0-.43l.13.16c.11-.36-.24.2,0-.38.27-.37.23,0,.09.34l.32-.58s0,.2,0,.34c.1-.35.62-.71.73-1.37h0a14.94,14.94,0,0,0,.75-2c.2-.65.39-1.34.55-2.06a11.67,11.67,0,0,1,.14-1.43,23.61,23.61,0,0,0,.52-4.65c0-1.29-.08-.37-.14-.91a4.37,4.37,0,0,0,0-.92c0-.37,0-.58,0-.13a21.49,21.49,0,0,0-.31-2.4,16.28,16.28,0,0,0-.6-2.32c0,.29.1.56,0,.48a2.73,2.73,0,0,1-.16-.92l0,.08C70.86,11.24,70.49,9.93,70,9a4.38,4.38,0,0,0-1.3-2h.05L68.4,6.7,68,6.47c-.35-.36.24,0,0-.35-.88-.32-1.35-1-2.07-1-.52-.92-1.94-.43-2.66-.92l0,.17c-.19.14-.23-.11-.37-.16,0,.13.21.16.09.24a20.6,20.6,0,0,1-4.94-.57c-.59-.06-.34.84-1.09.41L57.21,4c-1.21.3-2.47-.13-3.65.13.07-.06.07-.16.19-.15a.72.72,0,0,0-.94.13c-.19,0,0-.16-.15-.26s-.63.25-.76,0c0,0,.06-.07.11-.09-.16.1-.76,0-.6.21-.42-.11-.83.1-1.18-.07-.23.28-.76-.16-.83.23,0-.41-.78-.37-1.06-.18.09-.13-.24-.15-.13-.31-.31,0-.63.05-.56.27-.59-.52-1.18.34-1.51-.31A25.11,25.11,0,0,1,43.46,4c0-.42.93,0,.9-.44a5.57,5.57,0,0,1-2.08.34c-.21-.07.12-.18.19-.25-.81.14-1.56-.1-2.28.09a.61.61,0,0,1,.15-.11c-.14,0-.33-.07-.31.12l.14-.05c.22.29-.57.54-.6.69.25-.53-.71-.17-.31-.83a.22.22,0,0,0-.19.24c-.14,0-.18-.12,0-.25a2.77,2.77,0,0,1-.8.26c0-.09.09-.13.14-.23a1,1,0,0,1-.86.25s0-.13.09-.12c-.66,0-1.14.44-1.87.29.21-.41-.25-.12-.29-.47l-.4.12.16.15c-.34,0-.65.29-.94.2l.26-.16-.66.11.37.1c-.35.21,0,.43-.42.38a1.49,1.49,0,0,1-.53-.14h0a.75.75,0,0,1-.6.24c-.07-.1,0-.4,0-.46-.16.33-.81.23-1,.6a.34.34,0,0,0,0-.3l-.13.28c-.16,0-.19-.06-.17-.21-.48.09.17.39-.41.36.05,0,0-.06.12-.12a13.18,13.18,0,0,0-1.63.65c-.18-.25.45-.3.26-.5C29,5.21,28.21,6,27.48,6.43l.14-.07c-.06.56-.56.12-.9.68a1.25,1.25,0,0,0,.09-.29,4.64,4.64,0,0,0-.77.72l-.93,1.18a1.72,1.72,0,0,1,.07-.21,11.7,11.7,0,0,0-1,1.13c-.08.23-.25.44-.12.47a2.6,2.6,0,0,0-.69.71,6.15,6.15,0,0,0-.61,1.18,24.09,24.09,0,0,0-1,3c0-.31.1-.75,0-.53a11.8,11.8,0,0,0-.19,2.43,6.72,6.72,0,0,0,.12-.81c0,.5,0,1,.07,1.49-.1-1-.13.05-.11.58,0-.1.05,0,.07,0,0,.66.08.65.13.68s.11.09.25.78h0c.15.42.31.69.46,1.16s-.18-.36-.24-.25A8.57,8.57,0,0,1,23,22.12c-.11-.2-.24-.58-.35-.8A6.36,6.36,0,0,0,23,22.63v0c.11.36.23.76.35,1.11l-.09-.34c.43.25.62,1.4,1.1,2-.47-.61-.11,0-.2.17.08.31.22.73.16.7.24.24.28.87.63,1.2,0,.09.21.44.11.54.28.47,0-.26,0-.31.45.59.88,2.21,1.56,2.91s.7.64,1.22,1.26c.14.37-.19.08-.19.08A3.62,3.62,0,0,0,28.4,33c-.06,0,0,.13.05.33s.18-.11.44.38a.28.28,0,0,1-.26,0c.26.26.53.41.8.66.05.23-.19,0-.29,0a1.57,1.57,0,0,0,.89.64l-.17-.29c.1.11,0,.25-.06.21-.28-.1-.35-.51-.35-.6l.19.17c-.12-.71-.75-.82-1.11-1.36l.21-.14c-.14-.08-.29-.13-.42-.22s-.09-.47.1-.27c-.23-.54-.25-.21-.44-.71,0-.07,0-.07,0-.05a2.23,2.23,0,0,1-.26-.27c.06,0,0-.31.14,0-.4-.92-.76-.92-.87-1.4h0c-.63-.92-.11.16-.63-.36l-.17-1.13-.11.13c-.06-.12-.17-.37-.13-.42-.26-.27,0,.17-.15.07-.24-.75-.81-1.49-.78-2-.14,0,.24.69-.09.19,0-.58-.36-.69-.56-1.43.12,0,.33.61.13-.12-.24,0-.46-1.18-.67-1.63-.09.23-.47-1-.82-1.83a7.64,7.64,0,0,0-.29-1c-.18-.54-.34-1.12-.49-1.74h0c-.14.05-.37-1-.39-1.83.06,0,.09.15.15.51a5.88,5.88,0,0,1,0-.6,1.43,1.43,0,0,1-.05-.32,5.23,5.23,0,0,1,0-.56l.07.24a7.7,7.7,0,0,1,.59-2.8c0-.24-.45.29-.07-.86,0,.06.1.19,0,.48a1.86,1.86,0,0,1,.18-.49l-.12.54c.19-.33.05-.36.2-.65,0,.15.14-.12.14.05s-.14.19-.18.37a1.28,1.28,0,0,1,.48-.6.53.53,0,0,1,.09-.45c.33-.51.15,0,.36-.18S24,11.3,24,11c.06-.09.13-.11.19,0,.16-.38.86-1.09.61-1.11h0a4.36,4.36,0,0,1,.47-.69,5.23,5.23,0,0,1,.49-.45c.31-.29.66-.5,1-.82V8c.36-.45.83-.7,1.09-1.1.11-.08.28,0,.24.12a1.41,1.41,0,0,1,.75-.47c-.29.33.11.09-.3.3a1.43,1.43,0,0,0,.88-.5c-.13.31.31.16.48,0h-.28a1.52,1.52,0,0,1,.57-.23l-.08.33c.79.07,1.39-1.11,2-.64.21-.25-.43-.05-.25-.34a2.76,2.76,0,0,1,.87.31c.5.07.46-.52,1-.48-.07-.1-.13-.38.26-.53s.45.41.23.52-.14,0-.13,0-.28.12-.13.22L34,5.35c.18.1.68,0,.56.24.28-.13.12-.2-.08-.23a4.53,4.53,0,0,0,1.22,0c-.08-.06-.15-.19-.07-.19.7.12.31-.21.79-.25.27.16-.1.39.38.25.32.11.07.29,0,.38a1.46,1.46,0,0,1,1.08.2l-.24.08a1.15,1.15,0,0,1,.37,0l-.13-.22c.14,0,.25,0,.25.14.14-.14-.11-.37.18-.55.18.12.55-.09.62.19-.57-.12.06.3-.42.32a.65.65,0,0,1,.34,0s0,.07,0,.08c.54.28.25-.31.82-.29a.22.22,0,0,0,.22.29c-.23,0-.11-.28.1-.39a.92.92,0,0,0,.59-.05l-.21-.08a.62.62,0,0,1,.51-.22c0,.13-.23.08-.14.14.28-.27.62.32,1,.15.18.12,0,.3.18.38.44-.19.47.25.93.09-.13-.22-.15-.17.18-.36l-.77.15.49-.3c-.23,0-.49.12-.63.08.24-.17.21-.11.1-.3.31.34.63-.16,1,.08V5.7c.55.26,1-.24,1.69-.08l-.23-.1c.1-.21.44,0,.67-.09,0,.18.12.26.22.38,0-.14.52,0,.59-.33l.31.25c.57.12.66-.48,1.21-.4-.17.19.08.33-.29.46.19,0,.35,0,.35-.08.11.11.52-.23.69,0,.09-.18.2-.27.31-.24s0,.09,0,.09.31-.11.14-.32c.57.59,1.59,0,2.08.54.4,0,.89-.08,1.25-.08,0,0,0,.09-.07.07.51.18.32-.51.89-.29.29.3-.32.14-.13.26.08.6.7,0,1.08.32h-.09c.29.22.72-.2,1.2-.13A.12.12,0,0,0,55,6a2.85,2.85,0,0,1,1.42-.43c-.15.23-.21.12-.13.36.21,0,0-.39.36-.43.13.13.43.25.47.51h-.39c.2.34.51,0,.71.08l0,.14c.6,0,.62-.38,1.25-.32l-.07-.11c.35-.34.29.21.64,0l.11.36a6.61,6.61,0,0,1,1.23-.36,3.45,3.45,0,0,1-1,.52,1.41,1.41,0,0,0,.91-.17.36.36,0,0,1-.31.06,1.37,1.37,0,0,1,1.11-.37c-.09.7,1.19.23,1.52.79.81-.23,1.6.2,2.53.39-.31-.62.27.07.23-.51a.36.36,0,0,1,.32.12,5.79,5.79,0,0,1,.62.6c.14.23-.21,0-.19.16.46.27.18.31.47.63,0-.24.18-.19.43,0l-.35-.47c.21,0,.42.15.59.47a1.24,1.24,0,0,0,.58.58h-.19c.08,0,.2.13.31.24l.42.41a2.56,2.56,0,0,0,.75.64c0,.14.08.38-.05.21.16.29.35.57.52.91a10.43,10.43,0,0,1,.55,1A9.28,9.28,0,0,1,71,14.31L71,14.26a3.51,3.51,0,0,1,.27,1s-.07-.07,0,.09a6.44,6.44,0,0,1,.28,1.39c0-.13-.07-.24-.1-.36.11,1,.18,1.72.23,2.47a16.42,16.42,0,0,1,0,2.43c-.06-.05-.14.32-.24.77s-.21,1-.29,1.33v-.06a23.67,23.67,0,0,1-1.52,5c-.26.23-.65.78-1.1,1.28a4.79,4.79,0,0,1-1.37,1.16c.13,0,0,.31-.14.47s-.52.64-.52.25h.07c-.17-.25-.57.09-.89.23l0,.51c-.87-.24-2.19,1.23-2.69.75-.2.18-.46.27-.66.44v-.25a9.15,9.15,0,0,0-1.56.36l.14-.22c-.4.07-.49.86-.86.91l-.11-.37c-.7.14-1.41-.09-2.09.34a.21.21,0,0,1,.14-.2c-.31,0-1.27-.12-1.15.4,0-.34-.72,0-1.1.22l.06-.25a1.18,1.18,0,0,1-.77.57c-.11,0-.09-.2,0-.14-.36-.11-.28.25-.7.14l.15-.17c-.18-.05-.36,0-.53.28s-.51,0-.74-.25c-.14.25-.3.35-.46.28s0-.14.09-.16c-.62-.15-.9.34-1.32.11,0-.09,0-.14-.07-.15h.83c0-.23-.39-.26-.08-.59a2.12,2.12,0,0,1-1.22.51.16.16,0,0,1,0-.08h0a.33.33,0,0,0-.24,0c-.12,0-.2,0-.31,0,0-.19-.45-.08-.63-.08,0,.25-.23.23,0,.43a1.38,1.38,0,0,0,.16-.06h.57a.4.4,0,0,1-.53.13c-.1.17-.2.35-.26.43-.27-.35-.79-.52-.86-.73-.59.17-1.39.16-1.76.67-.17.06-.19-.13-.26-.2a1.11,1.11,0,0,0,.27-.13c-.34.14-1,.1-1.08.44-.42-.13.24-.32-.34-.24l.08-.1c-1.15-.49-1.86.91-3.13.32a.15.15,0,0,1,.15.12c-1.45-.24-3,.43-4.41,0a.68.68,0,0,0-.7.31l-.09-.28-.42.35c-.6.27-1.05-.63-1.81-.14l.1.18c-.27,0-.86.14-.81-.07-.06.12-.13.16-.2.1v-.13l-.72.24c-.52-.08.08-.58-.68-.57-.28.07-.8.46-.69.56s.29.07.31.22l-.26.09c0,.42-.24.87.39,1.13l.44-.28.15.2H33c.17.12.34.08.5-.13.05.13.11.21.18.22l.44-.43c0,.17-.2.35.09.42.21-.2-.19-.36.14-.5.22.18.15.34.4.16a.16.16,0,0,1-.11.23,1.51,1.51,0,0,0,.69-.31c.22.23.75-.1.73.3a1.14,1.14,0,0,1,.59-.36c-.37.5.76,0,.66.51.27-.45,1-.24,1.48-.5,0,.06-.08.09-.13.08a1.4,1.4,0,0,1,.54.23c0-.37.45-.47.68-.71.34.33-.2.44-.09.76,0-.28.58-.32.46-.55.26.2.22.09.36.38,0-.45.24-.08.45-.37.37.2.1.41.5.26C41.71,37.39,41.34,37.57,41.34,37.57ZM51,36.29Zm.81,0h-.36c0-.08,0-.17.09-.17s.14.05.27.14Zm-1.74-1.74c.13,0,.17,0,.19.07h-.23A.43.43,0,0,1,50.11,34.55Z" transform="translate(-21.61 -1.3)"/><path class="cls-2" d="M22.84,9.15c-.38.79-.11.65-.15.94-.4,1.1-.25.29-.43.53a20.43,20.43,0,0,0-.45,2.44s-.06.16,0,0c-.08.76-.12,1.55-.14,2.35a10.39,10.39,0,0,0,.2,2.36.6.6,0,0,1,0,.19c0-.26.09-.34.13-.35a8.42,8.42,0,0,1,.2,1.18,1.1,1.1,0,0,0-.14-.41c0,.17.08.33.13.48,0,.67-.18-.66-.25-.58.24,1,.51,1.85.8,2.66,0,.39-.52-1.51-.32-.4-.1-.39-.19-.8-.28-1.22.09,1.22-.16-.78-.11.39a10.44,10.44,0,0,0,.47,1.59c.14.36.28.69.51,1.32.15.13,0-.29.17-.16.75,1.32.37,1.87,1,2.64.24,0,.47.3.63.85h-.2c.47,1,.38.16.83,1.4-.11-.07-.4-.68-.33-.5.27.94.27.31.52.82v.38c.52,1,1.15,1.88,1.75,2.91-.05,0-.17-.07,0,.26.78,1.18,1.63,2.72,2.41,3.87l.33.11c.07.07.12.26,0,.22.31.46,0-.15.21-.07s.21.4.09.36a12.93,12.93,0,0,1,1.11.77,5.78,5.78,0,0,1,1.11.94H32.4c.47.39.57-.22,1,.27h-.08c1,.67,2.16.7,2.94,1.25.15-.38,1,.31,1.09-.26a3,3,0,0,0,1.25.56c.22,0,.32-.35.6-.44v.29l.39-.29.2.33L40,39c-.1,0-.22-.11-.2-.19a.87.87,0,0,1,1,.22l1-.39c0,.12-.18.18-.3.28.5-.39.1.29.55-.06-.06,0,0-.18,0-.24a1.7,1.7,0,0,0,1.13-.09l-.07.22c.7-.08,1.47-.37,2.25-.47-.28,0-.23-.4,0-.47l.09.29c.15-.21-.24-.08.06-.36.29,0,.2.32,0,.45l.35-.15c0,.09-.06.15-.08.26.14-.2.61.25.82-.1l0,.09c.78-.08,1.13-.19,1.77-.24,0-.26.26-.2.45-.43a7.83,7.83,0,0,0,1.55.26c.4-.15.11-.23.3-.39,0,.24.59.22.29.39a4.6,4.6,0,0,0,1.73-.25c-.1-.09-.2-.14-.14-.22s.35.1.31.21h0c1-.36,2.22.66,3,.1h0l.79-.33c.37,0-.22.19.06.32.85-.5,1.36-.1,2.07-.52.56.62,1.94-.52,2.7-.38l0-.15c.18-.23.23,0,.38,0,0-.12-.22-.07-.1-.2a24.3,24.3,0,0,0,5-2.82c.6-.57.24-1.12,1-1.61l-.17.54a31.19,31.19,0,0,0,1.7-2.75,16.05,16.05,0,0,0,1.45-3.76,1.89,1.89,0,0,1-.1.56A6.12,6.12,0,0,0,71,25.34a5.26,5.26,0,0,0,.16-1.11c.12-.48.08,0,.17-.27.19-.62.26-1.88.38-2.2a1.21,1.21,0,0,1,0,.38c.07-.5.32-2.32.18-1.88.14-1.25.22-2.55.25-3.86,0-.53-.06-1.06-.06-1.6a3.07,3.07,0,0,0-.16-1.16,3.59,3.59,0,0,0-.11-1.47,5.83,5.83,0,0,0-.54-1.57c.11.11-.19-.62,0-.52-.31-.67-.61-1-.58-.74a2.52,2.52,0,0,0-.81-1.18,1.84,1.84,0,0,1-.62-.94,12.44,12.44,0,0,0-2.71-1.75c.06-.42,1,.59,1,.12-.84-.39-1.33-.31-2.14-.74-.21-.14.13-.13.2-.18a7.12,7.12,0,0,0-2.34-.47.21.21,0,0,1,.16-.08c-.15,0-.34-.12-.32.07h.15c.22.31-.59.48-.62.65.25-.53-.72-.2-.31-.87a.22.22,0,0,0-.2.24c-.14,0-.18-.13,0-.26-.52.08-.33.29-.8.27,0-.09.09-.12.14-.23a1,1,0,0,1-.87.28c0-.06,0-.13.09-.13-.68,0-1.15.52-1.9.39.22-.42-.25-.11-.29-.46l-.4.13.16.16a3,3,0,0,1-1,.2l.25-.16-.65.11.37.11c-.35.2,0,.44-.43.37a1.45,1.45,0,0,1-.53-.18h0a.63.63,0,0,1-.61.16c-.06-.11.06-.38,0-.46-.17.31-.82.09-1,.39a.36.36,0,0,0,.05-.29l-.14.23c-.17-.08-.19-.12-.16-.26-.49-.06.15.45-.42.24,0,0,0-.05.11-.09a14.54,14.54,0,0,1-1.65-.09c-.16-.37.46,0,.29-.36a8.34,8.34,0,0,1-2.34,0l.14.06c-.12.48-.55-.34-.93-.18.09,0,.12-.26.1-.2a6.33,6.33,0,0,0-1.82-.1l.09-.11a7.6,7.6,0,0,0-1.11-.37c-.09.1-.28,0-.17.25-1-.94-1.9-.07-2.79-.88.11,0,.26,0,.17-.08l-.77-.1c.05.23.1.15.25.36a.59.59,0,0,1-.5.16c.34-.07,0-.35-.14-.5,0,.07,0,.13,0,.2-.38-.47-.07.43-.61,0l0-.11a1.4,1.4,0,0,1-.61,0c-.08-.28.22-.08.24-.28-.32,0-.62.35-.89,0a1.38,1.38,0,0,0,.45,0,.87.87,0,0,0-.55-.38h0l-.52-.22.13.11c-.39.57-.78,0-1.3.34.51-.33.09-.23.13-.5-.13-.11-.32-.22-.27-.29-.25.19-.41-.26-.76.05,0-.09-.26,0-.2-.26-.32,0,.07.17,0,.28-.49.26-1.15-.51-1.87-.08-.59.16-.71.45-1.27.65-.19-.14.16-.34.16-.34a1,1,0,0,0-.83,0c.06-.08,0-.14-.09-.25s-.15.33-.46.24A1.36,1.36,0,0,1,34,1.4c-.28.12-.55.33-.83.44-.08-.15.17-.26.27-.37a1.45,1.45,0,0,0-.92.53l.2,0c-.11,0-.06-.21,0-.26.27-.24.4,0,.42.12l-.2.09c.21.52.8-.21,1.21-.19L34,2.2l.41-.34c.09.1.15.31,0,.38.29.18.25-.15.51.06,0,0,0,.05,0,.06l.28-.12c-.06.08,0,.27-.13.23.51.18.82-.31,1,0h0c.71-.11.07-.29.6-.61l.36.73L37,2.3c.07,0,.22.05.19.17.27-.17-.05-.14.11-.31.35.31.95,0,1,.45.13-.21-.32-.21,0-.32.1.49.43,0,.75.24-.11.25-.4.07-.09.34.2-.4.63.19.89.14,0-.34.59,0,1-.06,0,.11.85.35,1.27.58h0c.09-.32.52-.16.84-.16a.31.31,0,0,1-.25.32l.29.06a.38.38,0,0,1,.36-.12l-.07.24a3.08,3.08,0,0,1,1.3.17c0-.23-.38-.76.16-.79,0,.14,0,.36-.11.38a.3.3,0,0,1,.26,0l-.22.17c.22.15.12-.16.31-.09,0,.18.14.16.11.31A.29.29,0,0,0,45,4a1.06,1.06,0,0,1,.54.41c0-.1,0-.25.16-.24.4.09.13.26.36.41.1-.11.35.09.36-.19.07,0,.13.1.18.25.21-.07,1,.19.73-.16h0c.68-.13,1.4.47,2.07.48v.1a5.06,5.06,0,0,0,1.17,0c.12,0,.28.2.23.31a.91.91,0,0,1,.78.09c-.32.11.1.16-.32.08a.91.91,0,0,0,.91.1c-.15.14.29.23.49.23l-.28-.19a2.28,2.28,0,0,1,.59,0l-.11.31c.81.47,1.47-.56,2.09.1.21-.22-.44-.17-.25-.42.38.06.77.5.88.49.52.16.48-.47,1-.38-.07-.11-.14-.4.26-.53s.46.44.23.55-.14,0-.13-.06-.28.1-.13.22l.05-.14c.18.11.7.06.58.25.28-.12.12-.19-.09-.24.48.14.75,0,1.24,0-.08,0-.15-.17-.08-.18.73.08.32-.24.81-.31.28.16-.1.41.39.24.32.09.07.29,0,.39a1.33,1.33,0,0,1,1.09.15l-.24.09a1.26,1.26,0,0,1,.38-.06L60.71,6c.13,0,.25,0,.25.13.14-.14-.11-.38.17-.57.18.12.56-.11.63.19-.58-.12.07.3-.42.33a.69.69,0,0,1,.35,0s0,.06-.06.08c.55.29.25-.32.83-.27-.08.16.12.33.22.31-.23,0-.11-.3.1-.4a.78.78,0,0,0,.6,0l-.22-.09a.52.52,0,0,1,.52-.12c0,.14-.24,0-.15.13.29-.25.64.47,1,.36.18.17,0,.32.17.45.44,0,.46.39.93.43-.12-.3-.15-.26.18-.3a3,3,0,0,0-.76-.17l.5-.14c-.23-.1-.49,0-.63-.14.24-.09.21,0,.11-.27.32.44.63,0,1,.47L66,7a1.87,1.87,0,0,0,.77.41,1.77,1.77,0,0,1,.88.53l-.21-.29c.11-.13.42.33.65.44,0,.16.09.33.17.53,0-.14.49.53.59.24.09.19.18.35.27.55.5.77.68.23,1.16,1-.18,0,0,.4-.32.06.17.23.3.48.32.37.07.23.47.53.55.94.07.07.14,0,.27.38,0,.07,0,.06,0,.06s.23.61.17.09c.15.89.25,1.84.32,2.81a13.79,13.79,0,0,1-.11,2.82,32.64,32.64,0,0,1-.34,3.55c0-.09,0,0,0-.22-.28,1.2,0,1.07-.34,2.39-.25.53.12-.82,0-.45-.11-.07-.2.34-.32.86A5,5,0,0,1,70,25.44l0-.21c-.24.46-.43,1.62-.83,2.41,0,0,0-.08,0-.07a9.25,9.25,0,0,1-1.12,2.55c.1-.4.17-.38.06-.48-.18.3.11.27-.25.86-.15.06-.44.3-.51.1.12-.15.24-.3.36-.47-.23-.05-.46.6-.66.76v-.16c-.55.65-.53,1-1.15,1.55H66c-.32.64-.32,0-.64.58l-.13-.28a11.76,11.76,0,0,1-1.18,1.26,9.44,9.44,0,0,1,1-1.26,3,3,0,0,0-.87.82.73.73,0,0,1,.29-.27,2.38,2.38,0,0,1-1.07,1.09c0-.38-.28-.22-.64-.09a1,1,0,0,1-.93.12,3.12,3.12,0,0,1-1.22.51,8.8,8.8,0,0,0-1.33.25c.35.48-.28.08-.21.64a.45.45,0,0,1-.32.06l-.64-.17c-.17-.14.21-.16.18-.29-.49,0-.21-.21-.53-.31.07.19-.16.32-.44.27l.39.21c-.67.4-.59-.38-1.27,0l.22-.19c-.35.14-1.3.1-1.64.57-.06-.07-.15-.22,0-.26-.84,0-1.88.54-2.54.26l.06-.14a.45.45,0,0,1-.47.12c0-.05.06-.14,0-.15a.89.89,0,0,1-.63.17l.18-.16c-.83-.19-1.27.39-2,.49,0-.41-.65-.54-1-.59v-.06a8.18,8.18,0,0,0-2.54.67c-.56-.41-1.88.06-2.77,0,.13,0,0,.33-.17.39s-.57.4-.55,0h.08c-.17-.34-.59-.17-.92-.12l0,.51c-.88-.56-2.28.59-2.76,0-.21.14-.47.14-.67.27v-.26a14.37,14.37,0,0,0-1.59-.1l.15-.17c-.4-.07-.52.72-.89.66l-.11-.42a4.29,4.29,0,0,1-1-.4,3.12,3.12,0,0,0-1-.26s0-.15.15-.12l-.73-.42c-.25-.16-.46-.21-.42.09,0-.18-.17-.29-.39-.38l-.69-.27.08-.21a.64.64,0,0,1-.79-.17c-.09-.13-.06-.29.06-.09-.31-.47-.29,0-.67-.57h.17c-.16-.25-.35-.36-.53-.32a2.2,2.2,0,0,1-.64-1.15c-.15,0-.3-.14-.42-.42,0-.11.07-.07.11,0-.52-.94-.86-.94-1.18-1.77a.57.57,0,0,0,0-.24c.42.71.76,1.25.73,1.21,0-.22-.3-.78,0-.66A4,4,0,0,1,27.5,29.4a.61.61,0,0,1,0-.15h0a1.23,1.23,0,0,0-.21-.34c-.1-.21-.16-.36-.25-.54a4.55,4.55,0,0,0-.52-1.12c0,.24-.24-.21-.08.36,0-.06,0,0,.14.24,0,0,.06.09.08.11h0l.41.75a1.4,1.4,0,0,1-.47-.75.88.88,0,0,1-.31-.08c-.16-.74-.55-1.77-.56-2.08a14,14,0,0,0-1.57-2.6,1.61,1.61,0,0,1-.16-.63,3,3,0,0,0,.24.37c-.32-.49-.81-1.73-.95-1.63-.29-.94.24.22-.2-.86l.08.08c-.35-1.31-.67-2.13-.91-3.24a9.92,9.92,0,0,1-.18-1.94,6.81,6.81,0,0,1,.32-2.12,1.19,1.19,0,0,1-.11.28A12.36,12.36,0,0,1,23.94,9.6a8.7,8.7,0,0,1,2-2.43,2.26,2.26,0,0,0,.64-.94l.11.19.37-.67c.57-.7,1.07-.1,1.79-.94l-.11-.14c.27-.11.86-.5.82-.26.05-.14.13-.2.2-.17v.14c.22-.14.44-.31.66-.43.53,0-.07.57.69.5.28-.1.8-.46.7-.57s-.3-.08-.32-.23l.26-.09c.05-.43.26-.89-.4-1.17a4.63,4.63,0,0,0-.46.31l-.12-.18.38,0c-.17-.13-.35-.07-.51.16-.05-.12-.12-.19-.19-.19-.15.17-.29.34-.43.53-.06-.16.19-.4-.12-.4-.2.25.21.32-.13.55-.22-.13-.16-.31-.41,0,0-.1,0-.19.11-.28a2,2,0,0,0-.7.6c-.24-.14-.75.48-.76.07a2.94,2.94,0,0,1-.57.75c.32-.77-.76.55-.71,0-.23.65-1,1.1-1.4,1.88a.54.54,0,0,1,.11-.24,2,2,0,0,1-.55.36,7.2,7.2,0,0,1-.56,1.48c-.36.1.13-.66,0-.84.05.25-.51,1-.37,1.11-.26.15-.21.21-.38.11,0,.47-.21.42-.36,1-.38.42-.17-.24-.51.63-.1.13-.08,0,0-.19Zm4.49,21.79h0l-.18-.3Zm.72,1.21-.31-.52c0-.12,0-.16.1,0-.06-.05.1.28.2.52ZM26.87,28a.69.69,0,0,1,.14.36L26.82,28h0s0,0,.05,0Z" transform="translate(-21.61 -1.3)"/><g class="cls-3"><path class="cls-2" d="M66.07,17.42c.07-.52,0-1.69-.16-1.45l-.11,2Z" transform="translate(-21.61 -1.3)"/><path class="cls-2" d="M64.84,13.81a16.81,16.81,0,0,0-.29,4.5c.2-1.92.25-1.13.46-3.41.18-.24.33.62.3,1.35.06-.51.28.42.37-.83-.25-1.53-.54-1.57-.85-.28A8.45,8.45,0,0,1,64.84,13.81Z" transform="translate(-21.61 -1.3)"/><path class="cls-2" d="M47.36,9.82l.11.26A.49.49,0,0,0,47.36,9.82Z" transform="translate(-21.61 -1.3)"/><path class="cls-2" d="M36,6.62c.11,0,.13-.24.12-.42A.46.46,0,0,0,36,6.62Z" transform="translate(-21.61 -1.3)"/><path class="cls-2" d="M32.9,4.87l.2.08C33,4.8,32.9,4.72,32.9,4.87Z" transform="translate(-21.61 -1.3)"/><path class="cls-2" d="M47.36,9.82l-.27-.66C47.06,9.8,47.23,9.66,47.36,9.82Z" transform="translate(-21.61 -1.3)"/><path class="cls-2" d="M62.44,18.7a1.79,1.79,0,0,0,.15-.53.76.76,0,0,1-.14.22Z" transform="translate(-21.61 -1.3)"/><path class="cls-2" d="M52.15,8.82h.09c0-.22.06-.5.08-.8Z" transform="translate(-21.61 -1.3)"/><path class="cls-2" d="M55.81,8.8a17.85,17.85,0,0,0-.16,2.34A3.89,3.89,0,0,1,55.83,10C55.84,9.6,55.83,9.2,55.81,8.8Z" transform="translate(-21.61 -1.3)"/><path class="cls-2" d="M61.6,11.88l.1-.23C61.67,11.72,61.63,11.8,61.6,11.88Z" transform="translate(-21.61 -1.3)"/><path class="cls-2" d="M49.54,8.16c0-.2,0-.4,0-.61C49.52,7.76,49.53,8,49.54,8.16Z" transform="translate(-21.61 -1.3)"/><path class="cls-2" d="M28.9,26.65v-.3A.64.64,0,0,0,28.9,26.65Z" transform="translate(-21.61 -1.3)"/><path class="cls-2" d="M24.68,18.16l.05-.11c0-.31,0-.63,0-.94Z" transform="translate(-21.61 -1.3)"/><path class="cls-2" d="M27.61,6.6h0C27.65,6.33,27.61,6.44,27.61,6.6Z" transform="translate(-21.61 -1.3)"/><path class="cls-2" d="M53.38,34.85c-.37-1.44.55-2,0-3.61C53.43,31.89,52.93,34,53.38,34.85Z" transform="translate(-21.61 -1.3)"/><path class="cls-2" d="M62.34,18.48a.2.2,0,0,1-.15,0A.08.08,0,0,0,62.34,18.48Z" transform="translate(-21.61 -1.3)"/><path class="cls-2" d="M53.37,31.24h0l-.06-.15Z" transform="translate(-21.61 -1.3)"/><path class="cls-2" d="M28.05,29.83a2,2,0,0,0,.18-.49A1.29,1.29,0,0,0,28.05,29.83Z" transform="translate(-21.61 -1.3)"/><path class="cls-2" d="M27.5,11.54l-.19.16C27.38,11.69,27.44,11.63,27.5,11.54Z" transform="translate(-21.61 -1.3)"/><path class="cls-2" d="M31.27,34.54c0,.16,0,.37.15.27l0-.19C31.34,34.78,31.25,34.82,31.27,34.54Z" transform="translate(-21.61 -1.3)"/><path class="cls-2" d="M35.35,35.24l0-.33-.16.11Z" transform="translate(-21.61 -1.3)"/><path class="cls-2" d="M38.47,26.14c-.07-.49-.11-1-.14-1.53C38.37,25.82,37.91,26.23,38.47,26.14Z" transform="translate(-21.61 -1.3)"/><path class="cls-2" d="M62.43,17.75a1.77,1.77,0,0,1-.09.73.44.44,0,0,0,.11-.09A4.56,4.56,0,0,0,62.43,17.75Z" transform="translate(-21.61 -1.3)"/><path class="cls-2" d="M37.12,21.69a2.17,2.17,0,0,0,0,.25C37.12,21.77,37.14,21.69,37.12,21.69Z" transform="translate(-21.61 -1.3)"/><path class="cls-2" d="M61,26.6l-.12.2S61,26.79,61,26.6Z" transform="translate(-21.61 -1.3)"/><path class="cls-2" d="M37.38,21.65c-.09.38-.18.78-.24,1.21,0-.14.07-.25.11-.46S37.34,21.9,37.38,21.65Z" transform="translate(-21.61 -1.3)"/><path class="cls-2" d="M38.33,24.6Z" transform="translate(-21.61 -1.3)"/><path class="cls-2" d="M35,28.5c.48.06.23-2.16.32-3.43.57-.61.26,1.64.45,2.78.36-.58.64-2.6.9-2.51a3.69,3.69,0,0,1,0,1c.38-1.75,1.12-.05,1.56-2.25a4.87,4.87,0,0,1,.06.55c-.06-1-.08-2-.06-3.05.21,0,.4-1.38.48.07-.14-.05-.15.53-.21,1l.23-.62c.19,2.09-.33.71-.33,2.26.44-.67,1-2.38,1.29-1.78.07,2-.78.66-.34,2.49l-.52-.8c.39,3.23-.32-.23,0,3.22.68.61.77-1,1.44-.4.16-1.13,0-1.68.11-2.8,1-2,.75,5.14,1.47,2.45.18-1.35.26-3.93.77-2.55l-.15,2.24c.65.25.39-3.3,1.08-1.73-.13.91-.53.75-.43,1,.45,1.83.33-1.3.67-1.29l.06,2c.7-.29,1.48-1.74,2.25-2.09a5.34,5.34,0,0,0,0,1.87c1-1,2.09.31,3,1.55l.36-1.63a2.24,2.24,0,0,1,.06,1.14c.37.68,0-1.12.2-1.8.21-.12.28,1,.14,1.54.64-1.47,1.86-3.16,2.54-1.25l-.14.52c.54.73.62-3.59,1.11-1.93l-.1.31c1.16.8,2.44-.78,3.32,1.91.17-2.53,1.14,1.17,1.22-2.37.65,1.77.47,2.4,1.4,3.61.25.17.37-2.2.68-2.56V27l.43-2,.21,2.22.29-.46a3.21,3.21,0,0,1-.22-1.37c.45-.83,1.09,1.32,1.1,2.27l1.07-1.53a3.9,3.9,0,0,1-.35,1.46c.58-1.87.1,2,.63.24a9,9,0,0,1,.05-1.48c.27,1.13.83,1.15,1.21.74l-.09,1.26c.64.39,1.29-.28,1.69.23a7.06,7.06,0,0,1,.36-2.8l-.18,1.88c.24-1-.07-.88.32-2a7.15,7.15,0,0,1-.35,2.63,3,3,0,0,1,.26-.34c-.08.53-.17.73-.28,1.37.06-.29.09-.21.09,0l.4-14.81c-.15-.22-.41-1.13-.39.38l-.07-.55c-.57.45-1,1.32-1.65,1.78.08,1.67-.21,1.45-.35,2.9-.53-.28-1.16-1.32-1.77-.92-.39,1-.06,1.47-.21,2.54-.1-1.51-.71-1.12-.44-2.34a5.31,5.31,0,0,0-1.83,2.22,4.29,4.29,0,0,1,.2,1.37c-.16.31-.41-.51-.41-1.26l0-.17c-1,2.65-2.58-3.74-3.35-.36l.05-.17-.85,1.86c-.41-.18.22-1.2-.1-2.09-.9,2.76-1.52-.07-2.28,1.77-.68-4.41-2.17.67-3-2.1l.06,1.06c-.2,1.07-.27-.58-.43-.8,0,.83.25.93.12,1.53-1.8,1.54-3.79-1-5.67-1.74-.69-.19-.33,5.57-1.21,3.14l.21-2c-1.34,2.57-2.82.31-4.15,2.51.08-.46.07-1.06.2-1.07-.32-1.4-1.06.08-1,1.25-.22-.1-.07-1-.21-1.63-.41-.8-.41,1.9-.43.46,0-.19,0-.39,0-.58a9,9,0,0,0-.23,1.52c0-.4-.09-.2-.19,0s-.19.33-.12-.17c-.26,1-.29.74-.33.62s0-.16-.51,1.22c.88-2.84.62-2.27-.09-.9.4-.87.32-.89.9-2.11A20.42,20.42,0,0,0,36,23.83c.39-.87.5-1.13.45-1.11a7,7,0,0,0-.49.56c-.42.5-.83.61.62-1.38-1,.81-2.08.46-3-1,1.21-.1,1.29.13,1.42.34s.25.39,1.42-.19a4,4,0,0,1-1.93-.42c-.64-.33-1.1-1-.87-1.48.32-.17,1.13.52,1.57.65a1.65,1.65,0,0,1-.5-.75,1,1,0,0,1,0-.65c.15-.23.24-.3-.22-1,.2.2.4.44.55.62,0-.12.44.21-.56-.76l.21.32a11.6,11.6,0,0,1-2-2.28c-.55-.77-.92-1.52-1.26-1.92a5.4,5.4,0,0,0,1.93,1.81,2.91,2.91,0,0,1,.7.6c.32.37.79,1,1.56,1.95a13.22,13.22,0,0,0-1.08-1.49,6.67,6.67,0,0,1,1.18,1.45c-.28-.71-1.18-1.87-.9-2,.36.56.45.8.87,1.46a9.36,9.36,0,0,1-.75-1.52c-.14-.39-.12-.59.13-.4.18.36.45.8.38.82.12-.15-.1-1-.15-1.62s.06-1.16.52-.61c.67,2.64.44.85,1.08,3.13,0-.22,0-.45,0-.68s-.22-.74-.35-1.11c.11,0,.12-.39.17-.71s.13-.54.29-.15q0,.46,0,.93a4.36,4.36,0,0,1,.35-.4c-.11-.31-.23-.61-.35-.89a9.64,9.64,0,0,0-.08-1.79c-.06-.49-.06-.76.2-.42-.08.22.37.07.57,1.43h0c.14-.69.3-1.42.59-.81.06.73-.11,2.47-.06,3,.22-1.84.92-.34,1.21-2.27a11.4,11.4,0,0,0-.11,1.87l.2-1.48a3.74,3.74,0,0,1,.14,1.69c.54.41-.1-2.87.52-1.5a4.84,4.84,0,0,1-.15.55c.64.79,1.29-.66,1.88.22.13,2.29-.54.43-.38,2.37.88-.2,1.87-2.3,2.71-1.6l-.16-.28c.18-3.15.6,1.69,1.06.27a7.16,7.16,0,0,0-.14,1.39c.57.62,1.2-.57,2.1-1.42l-.13.8c.33.79.9.55,1.26,1a4,4,0,0,0,.22-1.84c1.08,4.82,2.2-2.2,3.17,1.78-.12,0-.3.68-.2.7l.87-.66A8.47,8.47,0,0,0,51.86,15c.1-.76.32-1.3.58-1.41a5.52,5.52,0,0,0,.14,3c0-.44,0-.88,0-1.33.43,2.51.1-2.78.7-1.06l0,.72c.23-.34.45-1.29.7-1.07.09,1.61-.25.73-.28,2,.35-.07.71-3,1-1.36-.15.43-.36.42-.51.86.32,1.9.37,1.43.62,1.75l0-.05.58.89-.15-.52c.46-4.16.9-.71,1.49-3.42-.58,2.56-.1,1.49-.15,3.31a4.51,4.51,0,0,1,.32,1.59c.29-1.45.46,1.17.86-1,0,.59.3.07.23,1.54.37-.45-.08-1-.05-1.76.56-2,1.31,2.46,2.11-.28.69-1.13.82-3.1,1.45-4.09a4.73,4.73,0,0,1-.17,2.13c.26.77.67.77.94,0a5.26,5.26,0,0,0,.1,1.59c.27-.15.17-2.13.53-1.27-.06.82-.15,1.61-.26,2.35.32-.54.61-1.65.93-2.19a6.94,6.94,0,0,1-.3,2.23,3.85,3.85,0,0,0,1-2.58L64,15c.14-.08.08,1.38,0,1.68-.3,1.28-.45-.54-.47-1.13l.23-.38c-.25-3.42-.91.59-1.38.4l.19-2.5-.47,2.08a5.86,5.86,0,0,1,.06-2.42c-.33-1.23-.29.89-.58-.48a1,1,0,0,1,0-.43l-.32.75c.06-.52-.06-1.76.14-1.4-.57-1.44-.93,1.87-1.14,0l0-.15c-.8.84-.08,1.83-.68,4l-.4-4.53-.08,1.83c-.14,0-.24-.4-.23-.82a.49.49,0,0,0,0-.12c-.32,1.25.05.8-.13,2-.39-1.67-1.1.76-1.18-2.17-.14,1.39.38,1.09-.05,2-.11-3.15-.49.52-.85-.94.12-1.61.46-.74.11-2.2-.24,2.73-.71-.64-1-.13,0,2.18-.66.88-1.18,1.57,0-.73-1-1.27-1.43-2.1l0-.36c-.11,2.19-.6,1.73-1,2.15a7.21,7.21,0,0,1,.29-2.4h-.32a2.11,2.11,0,0,1-.42,1.29l.11-1.64c-.45,0-.92,1.84-1.49.68,0,1.53.41,4.33-.22,5.28a12.19,12.19,0,0,1,.15-2.58c0,.11-.19.67-.29.3l.26-1.36c-.26-.65-.15,1.15-.36,1,0-1.18-.15-.87-.1-1.8,0-.11.17.51.26.06a3.79,3.79,0,0,1-.6-1.89c0,.67,0,1.59-.19,1.72-.45,0-.13-1.44-.38-2.08-.13.81-.4-.09-.43,1.68-.13,0-.14-.86-.19-1.35-.24.75-1.08.07-.85,2l.06.13s0,0,0,.07h0c-.8,1.6-1.56-1.31-2.33-.68V9.09c-.46.59-1,.22-1.35,1.42a3.8,3.8,0,0,1-.22-1.83c-.36.37-.41,1-.88,0,.37-1-.1-.94.37-.68-.44-.6-.51-1.57-1-.06A3,3,0,0,0,42,6.33c-.13-.27-.29-.27-.42,0l.28,1.15a.5.5,0,0,1-.64-.19l.16-2c-.85-2.59-1.73,3.78-2.36-.44-.27,1.34.49,1.09.23,2.67-.42-.36-.81-3.31-1-3.34a.35.35,0,0,0-.19-.23.28.28,0,0,0-.23.14,3.57,3.57,0,0,0-.34.92c-.2.74-.35,1.53-.81,1.12.17.72.32,2.64-.11,3.26a5.51,5.51,0,0,1-.73-3.58c.11-.08.22.1.26.41a1.17,1.17,0,0,0,.08-1.34v.72c-.38-.75-1.28-.65-1.26-1.81a1.09,1.09,0,0,0,.4,1.52,1,1,0,0,0-1.14-.37,1.43,1.43,0,0,1-1.11,0c.23.35.57,1.13.44,1.13-.69-.26-.71.11-.64.58s.25,1,0,1.3c-.76-.8-.75-2.33-1.14-1.19C31.05,6.37,31,5.25,31,4.63c-.12.78-.5.8-.95.69a3.17,3.17,0,0,0-1.19-.27l.12-.77a1.17,1.17,0,0,1-.43.79l.8.83c-.25.13-.5,0-.73-.25.22.84,1.16,1.51,1.35,2.72-.17-.1-.35,0-.5.33s-.29.28-.74-.23c.46-.24.24-.49-.06-.83a2.72,2.72,0,0,1-.41-.54.67.67,0,0,1,0-.66.64.64,0,0,1-.44.57.52.52,0,0,1-.16-.41c-.69,0-.5.52-.24,1s.6,1.16.34,1.67c-.4-.67-1-.69-1-.36.19-.51.85.61,1,1.32a.58.58,0,0,0-.3.66c0,.23.13.45,0,.6l.32-.24c.36.51.15.74.06,1.26-.33-.2,0-.56-.23-.52.23.53-.09.62-.41.81a.89.89,0,0,0-.41.51,2.09,2.09,0,0,0,0,1.14h0c-.23.61-.64-.26-.8.32a3.33,3.33,0,0,1,0,1.87,3.46,3.46,0,0,0,.08,2c.45-.49.3-.55,1,.78-.25-1-.46-2-.63-3.08.28.75.57,1.45.88,2.09A23.13,23.13,0,0,1,26.85,16c.45,1,.32.88.7.62a1.92,1.92,0,0,0,.05,1.7,3.27,3.27,0,0,1,.3,1.86l-1.25-.07a6.79,6.79,0,0,0,.52,3.11A11.44,11.44,0,0,1,28,26.58c0-.33,0-.65.05-1,.53.08.37,1.55.73,2.22-.41.25-.44.88-.6,1.48.27-.32.41,2,1.21,1.26-.08.54-.14,1.09-.21,1.64.32,2.06,1.69-.07,2.14.43a6.42,6.42,0,0,0-.62,1c-.2.4-.44.61-.67.62.17.25.24.57.53,0-.08.3.18.17.44,0s.53-.28.42.25c.28-.36.75-1.39,1-1.22a3.25,3.25,0,0,1-.22.52c.22-.5.68-.59.93-1.84-.32,1.74.24,1.95.86,1.74s1.2-.49,1.33,1.09a9.45,9.45,0,0,1,2.12-1.16c0,.36,0,.59-.12.48.84,1,.45-3.46,1.15-2.33.36,1.87-.32,1.08-.11,1.78.14,3.88.78-.64,1.26,1.57l-.11.24c.36,1.28.81-1.59,1.36-1.39a5.8,5.8,0,0,0,0,.59,6.29,6.29,0,0,1,1.58-3.42,7.35,7.35,0,0,0-.11,2.38c.24-.25-.1-2.48.37-3a13.1,13.1,0,0,1,.59,3.14l-.43.31c.26,2.11.58-.15.82.19l0,.94c.68-.4.66-2.76,1.4-2.69L45,31.7c.37-2.39.36,1.27.74-.52l.16,2.35a14.48,14.48,0,0,1,1.37-2.93,19.36,19.36,0,0,1-1.13,3.85c.27,0,.9-.3,1-1.48-.1.24-.23.84-.32.49.29-1.9.71-2.87,1.23-2.91,0,4.6,1.39,1,1.83,4.47.91-1.83,1.86.46,3,0-.45-3.5.32-.15.19-3.8.25-.28.35-.24.37,0l.81,2.05c.21,1-.22.85-.18,1.67.56.18.26,1.51.64,2.41-.1-1.3.16-1.91.49-1.47l-.49-1.61c.74-2.09.74,2.94,1.49.85l-.22,1.2c.39-.76,1.5-.31,1.83-3.35a3.87,3.87,0,0,1,0,1.69c1,.2,2.07-3.73,2.9-2.18l0,.92c.18-.32.26-1.79.52-1,0,.37,0,.91,0,.94.09-.35.43-1.73.69-1.31l-.17,1.08c1,.8,1.36-3,2.12-4,.12,2.61.91,3.1,1.31,3.33v.37c.53-.18,1-.85,1.45-1.91s.92-2.25,1.47-3.41a.77.77,0,0,0,.29.32l2.17,1.24-1.89-12a6.06,6.06,0,0,0-1.7-3.55,9.19,9.19,0,0,1-2-1.83A4.42,4.42,0,0,1,64.7,14c-.26-.58-.72,1.76-.67-.66h.09c-.18-2.39-.69-1.77-1.06-1.85L63,14.61c-1-4.64-2.6,1.61-3.12-2.53-.24.78-.54.76-.78,1.55v-1.7a1.46,1.46,0,0,0-1.8-.3l.17-1.21c-.46-.13-.6,4.88-1,5l-.12-2.54c-.8,0-1.61-2.24-2.41,0a2.9,2.9,0,0,1,.17-1.2c-.38-.08-1.46-1.76-1.33,1.73,0-2.27-.83-.25-1.27.73l.08-1.67c-.38,2.13-.39,2.71-.9,3.29-.12-.22-.11-1.34.05-.91-.4-.89-.32,1.57-.8.67l.18-1.07c-.41-.14-.38.44-.62,1.67-.26.67-.78-.44-.84-2-.06.92-.29,2.15-.53,1.71a3.2,3.2,0,0,1,.1-1.1c-.69-1.16-1,1.91-1.51.26a5.33,5.33,0,0,0-.08-1,1.24,1.24,0,0,1,1,.29c0-1.54-.45-1.83-.08-3.94-.37,1.15-1,3.65-1.42,2.91,0-.16,0-.34,0-.53l0,0c-.09-.16-.19,0-.27.24a.93.93,0,0,0-.37-.48c0-1.27-.51-.7-.73-.77,0,1.69-.28,1.41,0,2.81,0-.12,0-.2.19-.27a.38.38,0,0,0,.09-.17v.15a2.46,2.46,0,0,1,.56-.1c-.18.85-.37,1.57-.61.62-.12,1.09-.25,2.2-.32,2.72-.3-2.37-.89-3.65-1-5.11-.68.93-1.61.58-2,3.73-.19.4-.22-.91-.29-1.41.12-.32.25-.27.31-.72-.39.8-1.15.28-1.25,2.49-.48-1,.28-2-.39-1.69l.1-.67c-1.31-3.58-2.16,5.58-3.6,1a2.19,2.19,0,0,1,.17.78c-1.67-2.05-3.45,1.77-5.06-1.45-.47-.66-.52.75-.81,1.82l-.09-1.82-.5,2.08C29.5,18,29,12,28.13,14.85l.09,1.2c-.32-.25-1,.68-.94-.72,0,.22-.11,1.27-.23.63V15l-.77,1.6c-.6-.7.1-3.76-.77-4A8.16,8.16,0,0,0,24.7,16,2.62,2.62,0,0,1,25,17.53l-.31.52c-.06,2.8-.3,5.65.42,7.62l.52-1.62.16,1.36-.43.07c.24,1.29.4.16.57-.61a5.48,5.48,0,0,0,.21,1.5l.5-2.65c.06,1.1-.23,2.16.1,2.78.24-1.24-.21-2.46.18-3.26.24,1.27.16,2.3.45,1.23A3.86,3.86,0,0,1,27.27,26c.26-.85.68-.34.81-1.82.25,1.57.86-.39.83,2.26a5.7,5.7,0,0,1,.68-2.17c-.43,3.16.87.22.75,3.61.32-2.84,1.14-1.23,1.7-2.79,0,.22-.09.68-.14.53.32.25.4,1.11.6,1.65,0-2.35.54-2.87.81-4.31.38,2.28-.25,2.75-.13,4.93,0-1.9.67-1.88.55-3.47A10.27,10.27,0,0,1,34.12,27c.06-2.93.28-.48.53-2.28.42,1.46.1,2.75.57,1.87A3.44,3.44,0,0,1,35,28.5Zm11.14-4.74h0l-.23.09Zm.94,0a.75.75,0,0,0-.41-.08c0-.59,0-1.18.1-1.15a3.41,3.41,0,0,0,.31,1.24ZM45.16,12.05c.15-.24.19.1.21.44a.91.91,0,0,0-.26.2v.2Q45.11,12.47,45.16,12.05Z" transform="translate(-21.61 -1.3)"/><path class="cls-2" d="M44.88,14.22s0,.11-.06.12.06.27.09.38L45,14.2Z" transform="translate(-21.61 -1.3)"/><path class="cls-2" d="M47.5,10.12h0a2,2,0,0,1,0,.24A1.66,1.66,0,0,1,47.5,10.12Z" transform="translate(-21.61 -1.3)"/><polygon class="cls-2" points="38.38 26.11 38.38 25.68 38.3 26.05 38.38 26.11"/><path class="cls-2" d="M52.57,16.54a2.46,2.46,0,0,0,.06.44A2,2,0,0,0,52.57,16.54Z" transform="translate(-21.61 -1.3)"/><path class="cls-2" d="M54.8,17.1l.32.62A2.1,2.1,0,0,0,54.8,17.1Z" transform="translate(-21.61 -1.3)"/><path class="cls-2" d="M56.52,18.05c0-.23,0-.47,0-.72h0Z" transform="translate(-21.61 -1.3)"/><path class="cls-2" d="M35,17.93,35,18C35.24,18.3,35.15,18.18,35,17.93Z" transform="translate(-21.61 -1.3)"/><path class="cls-2" d="M37.53,13.17c-.05.27-.1.53-.16.78C37.47,14.05,37.55,14.13,37.53,13.17Z" transform="translate(-21.61 -1.3)"/><path class="cls-2" d="M37.13,21.66Z" transform="translate(-21.61 -1.3)"/><path class="cls-2" d="M37.13,13.89c.12.35.18.28.24.06S37.18,13.64,37.13,13.89Z" transform="translate(-21.61 -1.3)"/><path class="cls-2" d="M64,18.8l.09.07a1.22,1.22,0,0,1,0-.27Z" transform="translate(-21.61 -1.3)"/><path class="cls-2" d="M64.07,18.6l.09-.21C64.1,18.4,64.08,18.41,64.07,18.6Z" transform="translate(-21.61 -1.3)"/><path class="cls-2" d="M64.35,18l-.19.43C64.22,18.4,64.31,18.44,64.35,18Z" transform="translate(-21.61 -1.3)"/><path class="cls-2" d="M61.69,18.05l0,.61A6,6,0,0,0,61.69,18.05Z" transform="translate(-21.61 -1.3)"/><path class="cls-2" d="M61,18.28c.17.13.42,1.3.64.91l0-.49C61.56,19.62,61.16,17.25,61,18.28Z" transform="translate(-21.61 -1.3)"/><path class="cls-2" d="M58.13,10.69l.58.5c-.1-.65-.23-1.53,0-1.68C58,7.55,58.89,11,58.13,10.69Z" transform="translate(-21.61 -1.3)"/><path class="cls-2" d="M56.38,9.68c.32-.29,0-1,0-1.32A1.35,1.35,0,0,0,56.38,9.68Z" transform="translate(-21.61 -1.3)"/><path class="cls-2" d="M43.52,8.05l.06-1.53C43.34,6.7,43.56,7.12,43.52,8.05Z" transform="translate(-21.61 -1.3)"/><polygon class="cls-2" points="19.26 14.13 19.47 15.14 19.61 13.77 19.26 14.13"/><polygon class="cls-2" points="18.07 2.9 18.18 2.69 17.76 3.17 18.07 2.9"/><path class="cls-2" d="M34.19,36.9c.09-.65.2-1.29.32-1.94C34.19,35.34,33.6,37.55,34.19,36.9Z" transform="translate(-21.61 -1.3)"/><path class="cls-2" d="M45,33.47c.12.93.39,1.5.53.55C45.31,33.92,45.11,33.21,45,33.47Z" transform="translate(-21.61 -1.3)"/><polygon class="cls-2" points="40.91 11.03 41.1 10.39 40.75 10.91 40.91 11.03"/></g></g></svg>