<svg xmlns="http://www.w3.org/2000/svg" viewBox="0 0 162.51 40.54"><defs><style>.cls-1{fill:#202020;}.cls-2{fill:#fcba54;}.cls-3{opacity:0.42;}</style></defs><g id="Слой_2" data-name="Слой 2"><g id="Слой_1-2" data-name="Слой 1"><path class="cls-1" d="M32,36.7c.2,0,.15-.24-.34-.35l-.43.21Z"/><path class="cls-1" d="M28.92,35.08c-.6,0-1.34,0-1.09.41.67-.1.76.07,1.47-.08.49.12.8.38.68.47.2,0,.72.3,1,.18a4.28,4.28,0,0,0-2.2-.78C28.67,35.15,28.86,35.12,28.92,35.08Z"/><path class="cls-1" d="M11,7.13l-.31.08A1.58,1.58,0,0,0,11,7.13Z"/><path class="cls-1" d="M40.43,2.09c-.23,0-.32.05-.33.08C40.31,2.14,40.48,2.12,40.43,2.09Z"/><path class="cls-1" d="M45.58,2.36l-.3,0A.53.53,0,0,0,45.58,2.36Z"/><path class="cls-1" d="M11,7.13l.78-.21C11.77,6.8,11.35,7,11,7.13Z"/><path class="cls-1" d="M22.35,33.27a2.35,2.35,0,0,0,.44.11l-.39-.15Z"/><path class="cls-1" d="M1.72,14.75a.67.67,0,0,0,0,.2l.14.15A3.68,3.68,0,0,1,1.72,14.75Z"/><path class="cls-1" d="M7.72,21.91c-.17-.16-.41,0-.56,0a.84.84,0,0,1,.5.19A.3.3,0,0,0,7.72,21.91Z"/><path class="cls-1" d="M20.78,31.24l.28.09Z"/><path class="cls-1" d="M5.76,9.92a.33.33,0,0,0,.13,0S5.83,9.92,5.76,9.92Z"/><path class="cls-1" d="M46.41,37.55s0,0,0,0S46.33,37.55,46.41,37.55Z"/><path class="cls-1" d="M34.55,36.36h.16a.53.53,0,0,0,0-.16Z"/><path class="cls-1" d="M55,2.78h0C54.71,2.81,54.85,2.8,55,2.78Z"/><path class="cls-1" d="M141.57,4.26c-.93-.36,1.6-.13.19-.58C141.87,3.81,140.39,4,141.57,4.26Z"/><path class="cls-1" d="M22.12,33.12,21.74,33A2.54,2.54,0,0,0,22.12,33.12Z"/><path class="cls-1" d="M141.76,3.68h0l-.15-.05Z"/><path class="cls-1" d="M76.76,2.94a.51.51,0,0,0-.22-.12S76.6,2.88,76.76,2.94Z"/><path class="cls-1" d="M60.56,2.3l.4,0A2.15,2.15,0,0,0,60.56,2.3Z"/><path class="cls-1" d="M85.19,2.67a1.76,1.76,0,0,0,.59,0l-.09,0A.91.91,0,0,1,85.19,2.67Z"/><path class="cls-1" d="M94,2.8l-.16,0h-.28Z"/><path class="cls-1" d="M73.05,37a1.16,1.16,0,0,1-.41-.24C72.78,36.9,71.49,37,73.05,37Z"/><path class="cls-1" d="M22.42,33.13a.35.35,0,0,1-.3,0l.28.11S22.46,33.17,22.42,33.13Z"/><path class="cls-1" d="M85.58.46,87,.52C86.58.49,86.07.47,85.58.46Z"/><path class="cls-1" d="M136,34.38l-.32.08A.72.72,0,0,0,136,34.38Z"/><path class="cls-1" d="M91.1.55a3.44,3.44,0,0,0,.78.2A.59.59,0,0,0,92,.68Z"/><path class="cls-1" d="M72.63,36.7h0Z"/><path class="cls-1" d="M63.47,37.53c1.33,0,.62-.37.9-.59,1.58-.13.74.26,1.28.44,1-.12,1.74-.47,2.48-.47.05.06.2.08,0,.16,1-.31,3.1-.07,4.31-.46a.47.47,0,0,1,.16.09.49.49,0,0,1-.19-.5c.59,0,1.1-.25,1.33,0a.86.86,0,0,0-.57.18l.62-.12c.57.34-.84.14-.84.4a22.44,22.44,0,0,1,3.56-.37c.2.34-2.18.15-.93.43l-1.44-.1c1.11.52-.88,0,.14.53,1.9.07,2.12-.21,4-.14.42-.2-.15-.28.27-.47,2.68-.39,2.14.81,4.1.33a2.44,2.44,0,0,1,2.11-.47l-.47.39c1.84,0,1-.57,3-.34-.33.16-1.44.15-1.16.19,1.25.28.88-.23,1.84-.25l.2.34c2-.09,4.1-.37,6.27-.47-.12.1-.49.21,0,.31a62.86,62.86,0,0,1,8.47.1l1-.31c.23,0,.43.12.18.18,1,.09,0-.19.54-.31s.78.16.41.25a32.39,32.39,0,0,1,7.06-.42l-.37.1c1.49.07,1.66-.66,3-.44l-.27.06c3.24,0,6.79-.45,9.28-.18.44-.45,3.22,0,3.38-.66a21.2,21.2,0,0,0,4,.23c.7,0,1-.48,1.85-.64l.05.31,1.13-.47.66.29.79-.18c-.32,0-.69-.05-.66-.14a7.4,7.4,0,0,1,3.14-.07c1-.23,1.94-.47,2.91-.73,0,.13-.53.26-.91.4,1.53-.58.34.27,1.74-.26-.21,0,.07-.2.09-.27a13.1,13.1,0,0,0,3.6-.64l-.18.26a34.26,34.26,0,0,0,7-2.43c-.89.31-.83-.13-.17-.47l.41.17c.35-.39-.76.22,0-.42.87-.4.75,0,.3.38l1-.64c.11,0-.11.22-.12.37.34-.38,2-.77,2.35-1.49l.11,0a14.92,14.92,0,0,0,2.41-2.14,20.48,20.48,0,0,0,1.77-2.26c-.21-.19.32-.87.42-1.56a10.15,10.15,0,0,0,1.68-5.08c-.17-1.41-.25-.41-.44-1,.12-.06.13-.59.1-1s0-.63.16-.14a10,10,0,0,0-1-2.63,11.85,11.85,0,0,0-1.91-2.53c.12.31.3.61.12.52-.35-.38-.67-1-.53-1l.11.08c-1.24-1-2.43-2.43-3.86-3.5a9.79,9.79,0,0,0-4.16-2.19l.14,0L150,3.8l-1.28-.25c-1.13-.4.74,0-.06-.39-2.8-.35-4.3-1.06-6.6-1.08-1.68-1-6.21-.47-8.52-1l.13.18c-.6.16-.73-.12-1.17-.17.06.14.65.17.28.26C127.65,1.53,122.25,1,117,.73c-1.91-.07-1.1.91-3.5.45l.69-.32c-3.86.33-7.88-.14-11.66.14.23-.07.24-.17.6-.16a5.79,5.79,0,0,0-3,.14c-.59,0-.13-.18-.49-.29-.8-.15-2,.28-2.43,0-.08,0,.22-.07.37-.09-.53.11-2.43-.06-1.93.22C94.3.7,93,.93,91.88.75c-.74.3-2.42-.18-2.66.25.11-.45-2.48-.4-3.38-.2.3-.14-.77-.16-.42-.34-1,0-2,.06-1.78.3-1.88-.57-3.79.37-4.84-.34-3,.2-5.85.32-8.58.39.1-.45,3,0,2.9-.48A49.7,49.7,0,0,1,66.47.7c-.67-.07.38-.19.6-.27-2.59.15-5-.11-7.3.1,0,0,.25-.09.49-.12-.46,0-1.06-.08-1,.13l.44-.05c.72.31-1.81.59-1.89.75.78-.58-2.27-.18-1-.91-.3,0-.67.13-.61.27-.44,0-.58-.13-.13-.28A23.24,23.24,0,0,1,53.5.61c0-.1.3-.14.45-.25a7.88,7.88,0,0,1-2.74.27c.07-.06-.07-.14.3-.13-2.14,0-3.65.48-6,.31.69-.44-.8-.13-.93-.51L43.32.43l.51.17c-1.11,0-2.08.31-3,.21l.82-.17L39.54.76l1.18.11c-1.12.23.13.47-1.34.41a11.25,11.25,0,0,1-1.69-.15h0a5.78,5.78,0,0,1-1.92.26c-.22-.11.15-.43,0-.5-.52.36-2.59.25-3.24.66.22-.1.22-.29.14-.33l-.43.3c-.52,0-.6-.06-.53-.23-1.55.1.53.43-1.31.4.14,0,.07-.07.36-.13-1.84.09-3.52.55-5.21.71C25,2,27,1.94,26.39,1.72,24,2.17,21.46,3,19.15,3.5l.44-.07c-.19.61-1.79.13-2.87.74C17,4,17,3.77,17,3.85a21,21,0,0,0-2.46.79l-3,1.29a2.55,2.55,0,0,1,.24-.23c-.93.23-2.37.88-3.34,1.23-.23.26-.77.49-.36.52a10,10,0,0,0-2.23.77A9.7,9.7,0,0,0,3.92,9.51,20.73,20.73,0,0,0,.84,12.83c.15-.34.33-.83.17-.58A4.91,4.91,0,0,0,.38,14.9c.23-.21.13-.37.4-.88A13.9,13.9,0,0,0,1,15.64c-.32-1.06-.42.06-.35.64,0-.11.17,0,.23,0,.07.72.24.71.4.74s.36.1.81.85H2c.47.46,1,.76,1.47,1.27,0,.39-.57-.39-.76-.27.71.67,1.7,1,2.17,1.78-.36-.22-.78-.63-1.13-.87a4.24,4.24,0,0,0,1.1,1.43l-.05-.05c.37.4.73.83,1.12,1.22L5.63,22c1.38.28,2,1.54,3.52,2.2-1.5-.66-.36,0-.64.19.27.34.72.8.52.76.77.27.91.95,2,1.31,0,.1.67.49.38.59.87.52-.09-.28.05-.33,1.44.64,2.8,2.41,5,3.18,1.77.81,2.24.69,3.88,1.37.47.41-.6.09-.6.09a8.45,8.45,0,0,0,2.34,1.18c-.2,0-.06.14.15.36.68.28.59-.12,1.41.42a2.5,2.5,0,0,1-.83.05c.83.29,1.69.45,2.55.72.16.25-.59,0-.93,0a8.4,8.4,0,0,0,2.87.7l-.56-.32c.34.12.09.28-.18.23-.89-.1-1.13-.55-1.13-.65l.61.18c-.39-.77-2.4-.89-3.55-1.48l.66-.15c-.44-.09-.9-.15-1.34-.25-.2-.22-.27-.51.32-.29-.73-.59-.79-.23-1.39-.78-.06-.07,0-.07.06-.05-.28-.09-.57-.19-.85-.3.2,0,0-.33.46,0-1.29-1-2.42-1-2.78-1.53l.13,0c-2-1-.35.18-2-.39l-.56-1.23-.35.14c-.19-.13-.55-.41-.41-.46-.83-.3,0,.19-.48.08-.77-.82-2.58-1.63-2.5-2.17-.46,0,.76.76-.3.21.05-.63-1.14-.76-1.79-1.56.41,0,1.08.66.43-.14-.76,0-1.47-1.29-2.16-1.78-.26.25-1.49-1.09-2.61-2A6.39,6.39,0,0,0,4.11,19,16.65,16.65,0,0,1,2.53,17.1H2.6c-.44.05-1.18-1.05-1.26-2,.21,0,.31.16.51.56A3.17,3.17,0,0,1,1.73,15a.62.62,0,0,1-.14-.35,1.85,1.85,0,0,1,0-.61l.22.26a4.51,4.51,0,0,1,1.89-3.06c-.08-.26-1.45.32-.25-.94.14.07.32.21,0,.53a2,2,0,0,1,.59-.54l-.38.59c.62-.36.16-.39.65-.71.1.16.42-.13.44.05s-.45.21-.57.41a3.67,3.67,0,0,1,1.53-.66c-.1-.07-.14-.24.27-.49,1.08-.56.48,0,1.17-.2.21-.25,1-.46.87-.74a.77.77,0,0,1,.6-.05c.51-.42,2.74-1.19,1.95-1.22l-.16,0,.09,0h0A9.34,9.34,0,0,1,12,6.52c.51-.18,1-.34,1.56-.49,1-.32,2.12-.55,3.11-.9l0,.1c1.16-.49,2.67-.77,3.49-1.2.36-.09.89,0,.76.13a8.45,8.45,0,0,1,2.39-.51c-.91.36.35.09-.94.32a9.18,9.18,0,0,0,2.8-.54c-.41.33,1,.17,1.54,0l-.89,0a12.45,12.45,0,0,1,1.82-.26l-.27.37c2.54.07,4.46-1.22,6.45-.7.65-.28-1.39-.06-.81-.37a19.92,19.92,0,0,1,2.78.33c1.6.08,1.47-.57,3.15-.52-.22-.11-.44-.42.81-.58,1.18,0,1.46.45.73.57-.29,0-.42,0-.41-.06-.38.05-.87.13-.4.24l.14-.13c.59.11,2.2.05,1.82.26.89-.14.38-.21-.28-.25,1.51.12,2.35,0,3.9,0-.25-.06-.48-.2-.23-.2,2.27.13,1-.23,2.54-.28.87.18-.32.43,1.23.28,1,.12.2.31-.17.41a12.33,12.33,0,0,1,3.44.22l-.75.09a8.29,8.29,0,0,1,1.19,0l-.43-.24c.44.05.81.05.8.15.45-.15-.34-.4.56-.6.58.13,1.78-.1,2,.21-1.83-.13.2.32-1.35.35a5.94,5.94,0,0,1,1.1,0c.07,0-.06.07-.18.08,1.75.31.81-.34,2.63-.31-.23.18.42.35.72.31-.74,0-.35-.3.32-.42a8.3,8.3,0,0,0,1.89-.06l-.7-.08A4.45,4.45,0,0,1,61.5,2c.06.14-.74.08-.45.15.9-.3,2,.35,3.3.16.58.13.05.33.56.42,1.41-.21,1.52.27,3,.1-.42-.24-.5-.19.55-.4L66,2.6l1.57-.33c-.74,0-1.56.13-2,.08.75-.18.67-.12.32-.32,1,.37,2-.18,3.17.08l0,.59c1.75.29,3.12-.26,5.39-.08l-.73-.11c.31-.23,1.4,0,2.14-.1-.07.2.39.28.7.41,0-.15,1.67,0,1.88-.36l1,.28c1.83.13,2.1-.53,3.87-.44-.54.21.26.36-.92.5.59,0,1.12.05,1.13-.08.34.12,1.64-.25,2.18-.05a1.58,1.58,0,0,1,1-.26c.07,0,0,.1,0,.1s1-.12.46-.35c1.81.64,5.07,0,6.65.59,1.28,0,2.83-.09,4-.09-.07.06,0,.1-.22.08,1.6.2,1-.56,2.82-.32.94.33-1,.15-.39.28.24.66,2.21-.05,3.44.35l-.3,0c.94.24,2.31-.21,3.84-.14,0,0-.07.06,0,.1a23.74,23.74,0,0,1,4.54-.47c-.46.25-.67.13-.4.39.67,0-.18-.42,1.14-.47.43.15,1.39.28,1.51.56h-1.25c.63.37,1.62,0,2.27.09l-.08.15c1.92,0,2-.41,4-.35l-.21-.12c1.13-.37.94.23,2.06,0l.34.4c.74-.09,2.6-.34,3.94-.4a24.11,24.11,0,0,1-3.29.57,12.57,12.57,0,0,0,2.89-.18,3.47,3.47,0,0,1-1,.06,10.87,10.87,0,0,1,3.56-.4c-.27.76,3.82.25,4.88.86,2.59-.25,5.11.22,8.07.43-1-.68.87.07.75-.56a2.7,2.7,0,0,1,1,.13c.69.19,1.37.42,2,.65.46.26-.67,0-.62.18,1.47.29.58.34,1.52.69-.16-.26.57-.21,1.38,0l-1.12-.51a3.36,3.36,0,0,1,1.88.51,4.71,4.71,0,0,0,1.84.63H148c.26,0,.63.15,1,.27l1.33.44a12,12,0,0,0,2.39.7c.13.16.26.42-.16.23.54.32,1.13.62,1.69,1A18.81,18.81,0,0,1,156,9.58a8.11,8.11,0,0,1,2.43,2.54l-.23-.06c.3.34.7.49.86,1.06-.07,0-.22-.08-.12.1a3.77,3.77,0,0,1,.9,1.52c-.11-.14-.22-.27-.34-.4.35,1.09.58,1.88.76,2.7a6.25,6.25,0,0,1,0,2.66c-.21-.06-.47.35-.78.84s-.66,1.08-.93,1.45l0-.06a18.52,18.52,0,0,1-4.86,5.45c-.82.25-2.08.85-3.52,1.4a22.21,22.21,0,0,1-4.39,1.27c.42,0,0,.34-.44.51-.64.07-1.67.7-1.66.28l.23,0c-.56-.28-1.82.09-2.85.25l-.08.55c-2.81-.26-7,1.35-8.62.82-.64.2-1.45.3-2.09.49v-.28c-1.82.1-2.73.15-5,.39l.44-.24c-1.27.08-1.55.94-2.73,1l-.38-.4c-2.22.15-4.49-.1-6.68.37,0-.06.09-.19.45-.22-1,0-4.07-.13-3.67.44,0-.38-2.31,0-3.51.24l.18-.28a6.25,6.25,0,0,1-2.46.63c-.34,0-.3-.22.15-.16-1.13-.12-.87.28-2.24.16l.5-.19a3.2,3.2,0,0,0-1.69.31,4.31,4.31,0,0,1-2.38-.28,2.16,2.16,0,0,1-1.46.31c-.1-.09.15-.15.28-.18-2-.16-2.87.37-4.21.12a.27.27,0,0,0-.23-.16c1.54,0,2.77,0,2.66,0,0-.25-1.25-.28-.27-.65a15.35,15.35,0,0,1-3.9.56.4.4,0,0,1-.16-.08l.12,0a2.65,2.65,0,0,0-.76,0c-.39,0-.64-.06-1-.06-.15-.21-1.43-.09-2-.09.06.28-.75.25,0,.47-.1,0,.11,0,.52-.06a1.7,1.7,0,0,0,.27,0l0,0,1.53,0a3.13,3.13,0,0,1-1.68.14c-.31.18-.66.38-.85.47-.86-.38-2.5-.57-2.73-.8-1.89.19-4.45.18-5.63.73-.54.07-.62-.14-.83-.22a5.75,5.75,0,0,0,.85-.14c-1.07.16-3.19.11-3.43.48-1.36-.14.75-.35-1.11-.26l.25-.11c-3.68-.53-5.94,1-10,.35.29,0,.43.07.49.13-4.64-.26-9.54.47-14.12,0a4.75,4.75,0,0,0-2.23.34l-.28-.3-1.35.38c-1.92.29-3.34-.69-5.77-.16l.32.2c-.87,0-2.77.16-2.62-.07a.74.74,0,0,1-.63.11l0-.15L39,36c-1.67-.08.25-.63-2.18-.62-.9.08-2.56.51-2.22.61s.93.08,1,.24l-.83.1c-.15.46-.78.95,1.25,1.24l1.41-.31.46.22-1.19,0a2.41,2.41,0,0,0,1.58-.14,1,1,0,0,0,.59.24l1.39-.47c.17.18-.62.38.31.46.65-.22-.63-.4.45-.55.68.2.48.37,1.27.18.11.12,0,.2-.37.25a11.08,11.08,0,0,0,2.23-.34c.71.25,2.39-.11,2.32.33a7.29,7.29,0,0,1,1.89-.4c-1.18.55,2.43,0,2.12.56.87-.49,3.17-.26,4.72-.55a.72.72,0,0,1-.4.09,10.25,10.25,0,0,1,1.7.25c.11-.4,1.47-.51,2.2-.77,1.07.36-.65.48-.31.83-.06-.31,1.86-.35,1.49-.6.83.22.71.1,1.14.41.13-.49.76-.09,1.43-.4,1.19.22.32.45,1.62.28C64.63,37.34,63.47,37.53,63.47,37.53Zm31-1.39h0l-.64,0Zm2.6,0H95.92c-.09-.09,0-.19.27-.19C96,36,96.66,36,97.05,36.1ZM91.5,34.24c.41,0,.55,0,.6.07l-.72,0,0,0A.34.34,0,0,1,91.5,34.24Z"/><path class="cls-1" d="M90.76,34.62l-.17,0,.25.06.15-.09Z"/><path class="cls-1" d="M10.62,7.22h0Z"/><polygon class="cls-1" points="133.07 34.89 133.06 34.82 132.84 34.91 133.07 34.89"/><path class="cls-1" d="M.69,16.28a.47.47,0,0,0,0,.22A.69.69,0,0,0,.69,16.28Z"/><path class="cls-1" d="M4.82,21.18l.58.68C5.15,21.55,5,21.35,4.82,21.18Z"/><path class="cls-1" d="M8.36,24.44a.27.27,0,0,0,.15,0h0Z"/><path class="cls-1" d="M60.26.41h.18C60.87.36,60.58.37,60.26.41Z"/><path class="cls-1" d="M37.69,1.13c.24-.06.47-.12.72-.16C38,1,37.69,1,37.69,1.13Z"/><path class="cls-1" d="M85.42.45h0Z"/><path class="cls-1" d="M39.46.92a3.91,3.91,0,0,0-1.05,0A6.16,6.16,0,0,0,39.46.92Z"/><path class="cls-1" d="M26.3,35l.21.09s0,0,0,0Z"/><path class="cls-1" d="M26.55,35.05l.25.06C26.69,35.07,26.6,35,26.55,35.05Z"/><path class="cls-1" d="M27.33,35.24l-.53-.13A1.14,1.14,0,0,0,27.33,35.24Z"/><path class="cls-1" d="M20.52,32.27l-.11.06A.11.11,0,0,0,20.52,32.27Z"/><path class="cls-1" d="M18.79,31.4a9,9,0,0,0,1.53,1l.09,0C20.07,32.33,19.26,31.46,18.79,31.4Z"/><path class="cls-1" d="M12.64,26.12c.41.33.84.65,1.27,1-.17-.24-.39-.56.22-.18C12.65,25.51,14.33,27.34,12.64,26.12Z"/><path class="cls-1" d="M8.81,23c.69.5.09-.13.16-.15C8.49,22.59,8.37,22.53,8.81,23Z"/><path class="cls-1" d="M21.32,4.18l0,.27C21.93,4.28,21.28,4.35,21.32,4.18Z"/><polygon class="cls-1" points="27.88 1.72 27.21 1.65 26.93 1.92 27.88 1.72"/><polygon class="cls-1" points="32.11 3.09 31.82 3.15 32.91 2.95 32.11 3.09"/><path class="cls-1" d="M92.38,3l-.19-.32C91.74,2.76,91.64,3.11,92.38,3Z"/><path class="cls-1" d="M118.47,3.1a2.28,2.28,0,0,0,1.47.13C119.35,3.2,118.77,3.07,118.47,3.1Z"/><polygon class="cls-1" points="139.57 31.43 140.07 31.23 139.12 31.48 139.57 31.43"/><path class="cls-2" d="M29.18.9c-.17.1-.05.28.44.21L30,.75Z"/><path class="cls-2" d="M32.59,1.25c.57-.2,1.23-.54.83-.81-.56.36-.71.24-1.31.67-.5.07-.88,0-.81-.17-.17.1-.78,0-1,.21A3.89,3.89,0,0,0,32.61,1C32.8,1.09,32.62,1.19,32.59,1.25Z"/><path class="cls-2" d="M81.25,3.59l-.31-.06A1.31,1.31,0,0,0,81.25,3.59Z"/><path class="cls-2" d="M111.5,4.78c-.23,0-.33,0-.34.08C111.37,4.83,111.55,4.81,111.5,4.78Z"/><path class="cls-2" d="M116.66,5h-.3A.52.52,0,0,0,116.66,5Z"/><path class="cls-2" d="M81.25,3.59l.8.17C82.12,3.65,81.64,3.65,81.25,3.59Z"/><path class="cls-2" d="M39.29.13a2.43,2.43,0,0,0-.44.09l.41,0A.13.13,0,0,1,39.29.13Z"/><path class="cls-2" d="M68,2.8l-.25,0a1.13,1.13,0,0,0-.21.12Z"/><path class="cls-2" d="M57.76,2.15c.23,0,.33-.25.42-.37a.86.86,0,0,1-.51.16C57.66,2,57.69,2.06,57.76,2.15Z"/><path class="cls-2" d="M41.6,1.23l-.28.05Z"/><path class="cls-2" d="M75.24,3.44a.19.19,0,0,0,.08.11S75.29,3.48,75.24,3.44Z"/><path class="cls-2" d="M20.3,2.37s0,0,0,0S20.38,2.35,20.3,2.37Z"/><path class="cls-2" d="M32.35,2.52h-.17a.5.5,0,0,0,0,.16Z"/><path class="cls-2" d="M126.06,5.31h0C125.78,5.33,125.92,5.33,126.06,5.31Z"/><path class="cls-2" d="M117.19,36.14c1,.19-1.57.44-.08.61C117,36.65,118.41,36.22,117.19,36.14Z"/><path class="cls-2" d="M39.55.16h0Z"/><path class="cls-2" d="M117.11,36.75h.15Z"/><path class="cls-2" d="M147.18,8.1a.93.93,0,0,0-.17-.19S147,8,147.18,8.1Z"/><path class="cls-2" d="M131.58,5,132,5Z"/><path class="cls-2" d="M154.73,11.06a2.17,2.17,0,0,0,.41.35.3.3,0,0,0,0-.08A.87.87,0,0,1,154.73,11.06Z"/><path class="cls-2" d="M156.93,18.07l.09-.14,0-.26Z"/><path class="cls-2" d="M.61,18.37a1.1,1.1,0,0,1,0-.53C.53,18.06-.13,16.69.61,18.37Z"/><path class="cls-2" d="M39.29.29a.33.33,0,0,1,.26-.13l-.29,0S39.23.26,39.29.29Z"/><path class="cls-2" d="M156.36,9.51a9.15,9.15,0,0,1,1.17,1.16A7.14,7.14,0,0,0,156.36,9.51Z"/><path class="cls-2" d="M58.36,40.22l-.32.05A1,1,0,0,0,58.36,40.22Z"/><path class="cls-2" d="M159.36,15.27a7.17,7.17,0,0,0-.18.9.75.75,0,0,0,.07.18C159.3,16,159.34,15.64,159.36,15.27Z"/><path class="cls-2" d="M.64,17.83h0Z"/><path class="cls-2" d="M3.86,8.45c-1.21.84-.34.69-.47,1-1.26,1.17-.78.31-1.37.57a10.76,10.76,0,0,0-1.4,2.59c-.09,0-.19.17-.16,0A11.93,11.93,0,0,0,0,15.11a4.22,4.22,0,0,0,.66,2.52.34.34,0,0,1,0,.2c.09-.28.26-.37.4-.38.23.6.71.94.62,1.26-.2-.33-.29-.31-.44-.44a5.6,5.6,0,0,0,.42.52c0,.71-.57-.71-.78-.62A20.39,20.39,0,0,0,3.38,21c-.11.41-1.64-1.61-1-.43a12.8,12.8,0,0,1-.87-1.3c.27,1.3-.53-.83-.35.42a7.44,7.44,0,0,0,1.47,1.69c.44.38.88.73,1.61,1.41.46.13.06-.31.52-.18,2.38,1.41,1.19,2,3.06,2.81a2.55,2.55,0,0,1,2,.91l-.62,0c1.48,1.1,1.17.17,2.61,1.49-.37-.08-1.26-.73-1.06-.53.86,1,.85.33,1.64.87l0,.4c1.66,1.07,3.62,2,5.53,3.1-.15,0-.53-.07-.14.28,2.47,1.25,5.16,2.89,7.59,4.11l1.06.12c.22.08.37.28.1.24.95.48.12-.16.64-.08s.67.43.29.38c.91.21,2.21.47,3.49.82a25.72,25.72,0,0,1,3.5,1H34c1.47.42,1.79-.23,3.11.29h-.27c3.2.71,6.82.75,9.27,1.33.49-.4,3.22.33,3.44-.28a20.46,20.46,0,0,0,3.94.6c.7,0,1-.37,1.89-.47l0,.31L56.6,40l.64.35.8-.1c-.32,0-.69-.12-.64-.21a7,7,0,0,1,3.11.24l3-.42c-.06.13-.55.2-.94.3,1.57-.41.31.31,1.74-.06-.2-.06.1-.19.13-.26A15,15,0,0,0,68,39.75l-.22.23c2.2-.08,4.62-.39,7.07-.5-.88,0-.7-.43,0-.5l.3.31c.46-.22-.76-.09.19-.38.92,0,.63.34.11.47l1.11-.16c.07.1-.19.16-.25.28.45-.21,1.93.27,2.58-.11l.07.1c2.45-.08,3.56-.2,5.57-.25,0-.28.82-.22,1.42-.46,1.47.08,3.11.29,4.89.27,1.25-.15.36-.24.93-.41.09.25,1.87.23.94.41,2.14,0,2.73,0,5.44-.26-.3-.1-.63-.15-.45-.24.49,0,1.11.11,1,.23l-.13,0c3-.39,7,.7,9.45.1l-.14,0,2.51-.35c1.16,0-.69.21.18.34,2.69-.53,4.29-.1,6.51-.55,1.79.66,6.14-.55,8.52-.4l-.16-.16c.58-.25.74,0,1.19,0-.08-.13-.67-.08-.31-.22,5.07-.91,10.51-1.51,15.69-3,1.89-.6.76-1.19,3.21-1.71l-.53.57c1.79-.91,3.63-1.82,5.37-2.92a16.89,16.89,0,0,0,4.56-4c-.1.22,0,.3-.3.59a5.36,5.36,0,0,0,1.3-1.39c.37-.58.62-1.11.53-1.18.37-.51.23,0,.53-.29.6-.66.81-2,1.2-2.34.07-.06,0,.25-.09.4.2-.53,1-2.46.56-2a15.84,15.84,0,0,0,.78-4.1,11.69,11.69,0,0,1-.2-1.71c-.06-.62-.23-1.18-.48-1.23.23,0,.11-.77-.37-1.56A5,5,0,0,0,156.39,10c.36.11-.6-.66-.17-.56-.95-.71-1.9-1.07-1.83-.78a5.78,5.78,0,0,0-2.54-1.26,4,4,0,0,1-1.94-1,72.87,72.87,0,0,0-8.56-1.86c.19-.45,3,.62,3,.13-2.64-.42-4.19-.33-6.74-.79-.66-.15.4-.14.64-.19a63.09,63.09,0,0,0-7.38-.5,1.28,1.28,0,0,1,.5-.09c-.46,0-1.06-.13-1,.08l.45,0c.71.33-1.85.51-1.93.69.79-.57-2.28-.22-1-.93-.3,0-.68.12-.61.26-.45-.06-.59-.14-.13-.28-1.64.08-1.06.31-2.54.29,0-.1.3-.13.46-.25a8.18,8.18,0,0,1-2.76.3c.08-.06-.07-.14.31-.14-2.15,0-3.65.56-6,.42.69-.45-.8-.12-.93-.49l-1.26.14.51.17a27.93,27.93,0,0,1-3,.21l.81-.17-2.06.12,1.17.11c-1.11.22.13.47-1.34.4a11.49,11.49,0,0,1-1.68-.19h0a5.29,5.29,0,0,1-1.92.17c-.21-.12.17-.41,0-.49-.54.33-2.58.09-3.26.41.23-.07.24-.27.17-.31l-.46.25c-.51-.09-.58-.13-.5-.28-1.53-.06.49.48-1.33.26.14,0,.07-.06.37-.1-1.83-.11-3.54.07-5.22-.1-.48-.39,1.47,0,.92-.38-2.42,0-5,.24-7.38,0l.44.07c-.36.51-1.73-.37-2.93-.2.29,0,.4-.27.32-.21-1.6-.18-3.29-.1-5.74-.11l.31-.11c-.93-.19-2.48-.26-3.5-.4-.31.11-.89,0-.55.27-3.09-1-6-.08-8.79-.94.33,0,.81-.05.54-.08L67.9,1.45c.17.25.3.16.79.38A4.44,4.44,0,0,1,67.1,2c1.09-.07,0-.37-.43-.53.07.08-.09.14-.06.22-1.21-.5-.24.45-1.92.05l.1-.12a12.28,12.28,0,0,1-1.93.05c-.26-.29.69-.08.75-.29-1-.06-1.94.37-2.79,0,.41,0,1,0,1.42-.06a5,5,0,0,0-1.75-.4l.07,0L58.93.69l.41.11c-1.25.61-2.47,0-4.12.36,1.61-.35.28-.24.41-.53-.41-.11-1-.23-.85-.31C54,.53,53.5.05,52.4.38c0-.1-.83,0-.65-.28-1,0,.23.18.15.3C50.34.68,48.27-.14,46,.31,44.12.48,43.76.79,42,1c-.6-.14.49-.36.49-.36a9.1,9.1,0,0,0-2.61,0c.18-.08,0-.15-.29-.26-.74,0-.48.35-1.45.25a2.61,2.61,0,0,1,.72-.42c-.87.12-1.71.35-2.6.47-.25-.16.53-.28.84-.4A9.41,9.41,0,0,0,34.2.84l.64.06c-.36,0-.2-.22.07-.28.85-.25,1.25,0,1.3.13l-.63.1c.68.55,2.54-.23,3.83-.21l-.52.42L40.19.7c.28.1.48.33-.15.4.92.19.8-.16,1.59.06.09,0,0,.06,0,.07l.9-.13c-.18.09.15.29-.4.24,1.6.2,2.58-.32,3.19,0l-.14,0c2.23-.11.22-.3,1.9-.64l1.11.77.22-.31c.23,0,.69.06.6.18.86-.18-.14-.14.36-.32,1.1.32,3,0,3.28.47.41-.22-1-.22.14-.34.32.53,1.37,0,2.37.26-.33.26-1.27.07-.28.36.64-.43,2,.2,2.82.15.06-.36,1.86,0,3.29-.06-.1.11,2.67.37,4,.61l0,0c.28-.34,1.64-.17,2.65-.17-.06.21-.24.28-.79.34l.93.07a2.75,2.75,0,0,1,1.14-.13l-.25.25a27.76,27.76,0,0,1,4.12.19c.11-.25-1.22-.81.49-.85.06.15.1.39-.35.41a2.51,2.51,0,0,1,.82,0l-.7.18c.72.16.4-.17,1-.1,0,.2.42.18.33.33A2.74,2.74,0,0,0,73.54,3a5.59,5.59,0,0,1,1.7.44c0-.11,0-.26.5-.25,1.25.09.41.27,1.13.43.32-.11,1.1.1,1.14-.2a.8.8,0,0,1,.56.27c.66-.08,3,.2,2.32-.17l-.17,0h.11c2.14-.14,4.39.5,6.5.51v.1c1.27,0,2.8.1,3.71,0,.37,0,.87.22.71.33a8.24,8.24,0,0,1,2.46.1c-1,.12.32.17-1,.08a7.83,7.83,0,0,0,2.87.11C95.61,4.9,97,5,97.6,5l-.87-.21c.67,0,1.26,0,1.85.06l-.33.33c2.56.5,4.64-.6,6.58.1.68-.23-1.39-.18-.78-.44,1.18.06,2.41.53,2.78.52,1.62.17,1.5-.5,3.19-.41-.22-.11-.43-.42.83-.56,1.18,0,1.46.47.72.58-.28,0-.42,0-.41-.06-.38,0-.88.11-.41.23L110.9,5c.59.11,2.21.06,1.83.26.89-.13.38-.2-.28-.25,1.51.14,2.36-.05,3.91,0-.25-.06-.48-.19-.23-.2,2.28.09,1-.25,2.54-.33.87.17-.31.44,1.24.26,1,.1.2.31-.17.41a12.31,12.31,0,0,1,3.44.16l-.75.1a8.32,8.32,0,0,1,1.18-.06l-.42-.23c.43,0,.8,0,.79.14.45-.15-.34-.4.55-.61.58.13,1.77-.11,2,.21-1.83-.13.19.32-1.35.35a5.18,5.18,0,0,1,1.1,0c.06,0-.07.06-.19.08,1.74.31.81-.34,2.62-.28-.24.17.4.35.7.32-.73,0-.34-.31.33-.42a7.23,7.23,0,0,0,1.87,0l-.69-.1a4.26,4.26,0,0,1,1.64-.12c.06.14-.74,0-.46.13.92-.26,2,.5,3.25.39.56.18,0,.34.52.48,1.4,0,1.46.41,2.92.45-.37-.31-.46-.27.59-.32-.79-.1-1.6-.14-2.4-.18l1.58-.14c-.72-.11-1.55,0-2-.15.75-.1.67,0,.35-.29,1,.47,2,.05,3.1.5l-.14.58a12.84,12.84,0,0,0,2.42.44,10.77,10.77,0,0,1,2.78.56l-.67-.3c.35-.14,1.34.35,2.07.46-.13.17.29.35.54.57,0-.15,1.53.56,1.86.25.28.2.57.38.84.59,1.59.82,2.14.24,3.66,1.08-.56,0,.08.43-1,.07.52.24.94.51,1,.39.23.25,1.48.56,1.74,1,.22.08.43,0,.85.41,0,.07-.07.06-.07.06s.71.65.54.09a12.54,12.54,0,0,1,1,3,5.16,5.16,0,0,1-.35,3A12.67,12.67,0,0,1,156,21.58c0-.09-.09,0,0-.23-.87,1.28.09,1.14-1.07,2.54-.78.57.39-.87,0-.48-.34-.07-.61.37-1,.92a4.22,4.22,0,0,1-1.35,1.46l.17-.23c-.76.49-1.38,1.73-2.64,2.57,0,0,0-.09-.05-.08a12,12,0,0,1-3.52,2.72c.29-.43.53-.41.17-.52-.57.32.36.29-.79.92-.45.06-1.37.32-1.59.11.38-.16.75-.32,1.12-.5-.71-.06-1.44.64-2.08.81l0-.17c-1.74.69-1.65,1.07-3.61,1.64l.24,0c-1,.69-1,0-2,.62l-.43-.3c-.69.26-2.42,1-3.7,1.34a28,28,0,0,1,3-1.34,11.84,11.84,0,0,0-2.73.88,2.84,2.84,0,0,1,.91-.29,9.23,9.23,0,0,1-3.37,1.16c.05-.41-.88-.24-2-.1a8.44,8.44,0,0,1-2.93.13,23.3,23.3,0,0,1-3.86.54c-1.33.08-2.71.11-4.2.27,1.11.51-.88.08-.65.68a3.84,3.84,0,0,1-1,.06L115,36.53c-.51-.15.66-.17.58-.31-1.53.05-.65-.22-1.67-.33.22.21-.52.34-1.4.29l1.25.23c-2.13.42-1.87-.41-4,0l.68-.21c-1.11.15-4.09.11-5.17.61-.2-.07-.46-.23,0-.28-2.65,0-5.91.58-8,.28l.2-.15a3.76,3.76,0,0,1-1.49.13c0-.06.2-.15,0-.16a7.82,7.82,0,0,1-2,.18l.57-.17c-2.6-.2-4,.41-6.17.52,0-.44-2.05-.57-3.07-.63l0-.06a68.69,68.69,0,0,0-8,.71c-1.77-.43-5.92.07-8.73,0,.43,0-.05.35-.54.42-.66,0-1.79.42-1.71,0h.23c-.52-.37-1.85-.18-2.9-.13l-.15.54c-2.78-.59-7.17.63-8.68,0-.66.15-1.48.15-2.13.29l0-.28c-1.82-.06-2.73-.09-5-.1l.46-.19c-1.26-.07-1.63.77-2.81.71l-.32-.45c-1.1-.08-2.21-.23-3.3-.42a24.06,24.06,0,0,0-3.28-.28c.05-.05.13-.16.48-.13l-2.29-.45c-.8-.17-1.45-.22-1.33.1,0-.19-.52-.31-1.23-.4s-1.56-.22-2.16-.29l.25-.23a4.9,4.9,0,0,1-2.49-.18c-.3-.13-.2-.3.19-.09-1-.5-.91,0-2.13-.61h.54a3.23,3.23,0,0,0-1.67-.34c-.72-.16-2-.91-2-1.22A2.06,2.06,0,0,1,23.28,33c0-.12.2-.07.33,0-1.64-1-2.69-1-3.72-1.88a.28.28,0,0,0-.11-.26c1.32.76,2.4,1.33,2.29,1.29.12-.23-.94-.83.08-.7A12.5,12.5,0,0,1,18.56,30a.37.37,0,0,1-.09-.16l.12,0a2.94,2.94,0,0,0-.67-.36c-.31-.23-.5-.38-.8-.58,0-.26-1.13-.84-1.64-1.19-.11.26-.76-.22-.25.39-.07-.07.11,0,.46.25.08,0,.17.1.23.12h0l1.3.8a3,3,0,0,1-1.47-.8c-.36,0-.76-.06-1-.09-.49-.79-1.71-1.88-1.76-2.21-1.63-.93-3.66-2.48-4.93-2.77-.47-.26-.4-.49-.51-.67a4.75,4.75,0,0,0,.75.4c-1-.53-2.56-1.85-3-1.74-.89-1,.77.24-.62-.91l.25.08c-1.09-1.39-2.12-2.26-2.86-3.45a3.87,3.87,0,0,1-.58-2.06,3.27,3.27,0,0,1,1-2.26c-.17.19-.26.29-.33.3A14.14,14.14,0,0,1,7.34,8.93a26.52,26.52,0,0,1,6.45-2.58,5.13,5.13,0,0,0,2-1l.35.2,1.19-.71c1.79-.75,3.36-.11,5.63-1l-.34-.15c.85-.12,2.69-.54,2.58-.28a.73.73,0,0,1,.61-.18l0,.15c.7-.15,1.39-.33,2.09-.46,1.66,0-.21.61,2.18.53.88-.1,2.53-.49,2.19-.6s-.92-.09-1-.25l.82-.09c.15-.46.81-.95-1.26-1.25-.48.09-1,.22-1.43.33L29,1.4l1.22-.06a2.4,2.4,0,0,0-1.61.18A1.1,1.1,0,0,0,28,1.31c-.46.18-.92.37-1.37.57-.19-.17.6-.43-.36-.43-.64.27.67.34-.4.59-.7-.14-.53-.33-1.31,0-.12-.11,0-.21.35-.3a9.25,9.25,0,0,0-2.21.64c-.75-.15-2.37.51-2.39.07a8.24,8.24,0,0,1-1.79.8c1-.82-2.4.59-2.24,0-.74.69-3,1.17-4.42,2A.66.66,0,0,1,12.2,5a11.47,11.47,0,0,1-1.71.38c0,.41-1.2,1-1.77,1.57-1.15.11.41-.7-.05-.89.18.27-1.59,1.09-1.14,1.18-.85.16-.69.22-1.22.12.1.5-.67.44-1.14,1.06-1.19.45-.53-.25-1.61.67-.31.14-.25,0-.09-.2A5.14,5.14,0,0,1,3.86,8.45ZM18,31.64h0l-.56-.32Zm2.29,1.29-1-.56c0-.13.11-.17.33,0C19.43,32.32,19.94,32.67,20.25,32.93Zm-3.74-4.47c.36.18.45.3.46.38l-.62-.35h-.06A.51.51,0,0,1,16.51,28.46Z"/><path class="cls-2" d="M15.69,28.38l-.15-.08.17.19h.17Z"/><path class="cls-2" d="M80.89,3.52h0l-.11,0S80.87,3.5,80.89,3.52Z"/><polygon class="cls-2" points="55.45 40.45 55.44 40.38 55.22 40.45 55.45 40.45"/><path class="cls-2" d="M66.67,1.42a.33.33,0,0,0-.18-.08A.5.5,0,0,0,66.67,1.42Z"/><path class="cls-2" d="M60.49.92,59.62.77C60,.85,60.27.89,60.49.92Z"/><path class="cls-2" d="M55.73.51a.33.33,0,0,0-.1.12h0Z"/><path class="cls-2" d="M131.37,3.06h.18C132,3,131.69,3,131.37,3.06Z"/><path class="cls-2" d="M108.77,3.77c.24-.06.47-.11.72-.15C109.09,3.61,108.78,3.61,108.77,3.77Z"/><path class="cls-2" d="M156.22,9.4h0l.14.11Z"/><path class="cls-2" d="M110.54,3.6a4.5,4.5,0,0,0-1.05,0A6.14,6.14,0,0,0,110.54,3.6Z"/><path class="cls-2" d="M35,.27h-.23a.05.05,0,0,1,0,0Z"/><path class="cls-2" d="M34.76.32l-.25,0A.47.47,0,0,0,34.76.32Z"/><path class="cls-2" d="M34,.46l.54-.1A1.11,1.11,0,0,0,34,.46Z"/><path class="cls-2" d="M41.35.2l.08-.1A.14.14,0,0,0,41.35.2Z"/><path class="cls-2" d="M43.28.14A10.55,10.55,0,0,0,41.48,0l0,.08C41.73-.06,42.84.32,43.28.14Z"/><path class="cls-2" d="M51.26,1.55l-1.6-.13c.28.12.64.27-.09.28C51.58,2.09,49.16,1.44,51.26,1.55Z"/><path class="cls-2" d="M56.21,1.93c-.86,0,0,.15,0,.21C56.72,2.07,56.85,2.05,56.21,1.93Z"/><path class="cls-2" d="M92.09,4.49l-.1.25C92.66,4.74,92,4.64,92.09,4.49Z"/><polygon class="cls-2" points="99.02 3.45 98.38 3.27 98.06 3.5 99.02 3.45"/><polygon class="cls-2" points="103.05 5.34 102.75 5.38 103.87 5.3 103.05 5.34"/><path class="cls-2" d="M156.89,16.6l.32-.16C157.17,16,156.83,15.93,156.89,16.6Z"/><path class="cls-2" d="M139.94,32.82a2.27,2.27,0,0,0-1.42.3A11.47,11.47,0,0,0,139.94,32.82Z"/><polygon class="cls-2" points="62.26 37.63 62.77 37.5 61.8 37.64 62.26 37.63"/><g class="cls-3"><path class="cls-2" d="M141.13,14.37c.19-.52.05-1.69-.5-1.45l-.36,2Z"/><path class="cls-2" d="M137.3,10.76a5.87,5.87,0,0,0-.91,4.5c.62-1.92.79-1.13,1.45-3.41.55-.24,1,.62.91,1.35.18-.51.87.42,1.15-.83-.76-1.53-1.68-1.57-2.62-.28A2.39,2.39,0,0,1,137.3,10.76Z"/><path class="cls-2" d="M83,6.77l.34.26A.61.61,0,0,0,83,6.77Z"/><path class="cls-2" d="M47.77,3.57c.33,0,.41-.24.37-.42C47.85,3.28,47.62,3.4,47.77,3.57Z"/><path class="cls-2" d="M38.08,1.82l.61.08C38.35,1.75,38.06,1.67,38.08,1.82Z"/><path class="cls-2" d="M83,6.77l-.86-.66C82.07,6.75,82.6,6.61,83,6.77Z"/><path class="cls-2" d="M129.83,15.65a1.34,1.34,0,0,0,.49-.53,2.77,2.77,0,0,1-.46.22Z"/><path class="cls-2" d="M97.88,5.77h.28c.08-.22.17-.5.25-.8Z"/><path class="cls-2" d="M109.23,5.75c-.25-.08-.37,1.6-.49,2.34.16-.69.36-1,.58-1.15A6.11,6.11,0,0,0,109.23,5.75Z"/><path class="cls-2" d="M127.23,8.83l.32-.23A3.19,3.19,0,0,0,127.23,8.83Z"/><path class="cls-2" d="M89.78,5.11a3.68,3.68,0,0,0-.07-.61A2.08,2.08,0,0,0,89.78,5.11Z"/><path class="cls-2" d="M25.65,23.6c0-.12,0-.2,0-.3C25.59,23.47,25.57,23.59,25.65,23.6Z"/><path class="cls-2" d="M12.52,15.11,12.7,15c0-.31.05-.63.05-.94Z"/><path class="cls-2" d="M21.63,3.55h.1C21.75,3.28,21.63,3.39,21.63,3.55Z"/><path class="cls-2" d="M101.71,31.8c-1.18-1.44,1.69-2-.06-3.61C101.84,28.84,100.29,30.9,101.71,31.8Z"/><path class="cls-2" d="M129.53,15.43a2.43,2.43,0,0,1-.47,0A.65.65,0,0,0,129.53,15.43Z"/><path class="cls-2" d="M101.65,28.19h0l-.18-.15Z"/><path class="cls-2" d="M23,26.78a2.17,2.17,0,0,0,.57-.49A1.18,1.18,0,0,0,23,26.78Z"/><path class="cls-2" d="M21.28,8.49l-.56.16A1.52,1.52,0,0,0,21.28,8.49Z"/><path class="cls-2" d="M33,31.49c.08.16-.1.37.48.27l.13-.19C33.23,31.73,32.94,31.77,33,31.49Z"/><path class="cls-2" d="M45.68,32.19a1.59,1.59,0,0,0-.09-.33l-.5.11Z"/><path class="cls-2" d="M55.37,23.09a7.26,7.26,0,0,1-.44-1.53C55.07,22.77,53.63,23.18,55.37,23.09Z"/><path class="cls-2" d="M129.82,14.7c0,.43-.14.64-.29.73a2.62,2.62,0,0,0,.33-.09A1.3,1.3,0,0,0,129.82,14.7Z"/><path class="cls-2" d="M51.18,18.64a1,1,0,0,0-.13.25C51.19,18.72,51.25,18.64,51.18,18.64Z"/><path class="cls-2" d="M125.49,23.55l-.36.2C125.26,23.79,125.39,23.74,125.49,23.55Z"/><path class="cls-2" d="M52,18.6a6,6,0,0,0-.76,1.21c.11-.14.21-.25.36-.46A6.94,6.94,0,0,1,52,18.6Z"/><path class="cls-2" d="M54.93,21.55h0Z"/><path class="cls-2" d="M44.66,25.45c1.48.06.72-2.16,1-3.43,1.77-.61.8,1.64,1.39,2.78,1.11-.58,2-2.6,2.8-2.51.06.37.22.5,0,1,1.19-1.75,3.46-.05,4.85-2.25a2.15,2.15,0,0,1,.17.55,12.86,12.86,0,0,1-.18-3.05c.66,0,1.24-1.38,1.48.07-.41-.05-.45.53-.64,1l.7-.62c.6,2.09-1,.71-1,2.26,1.36-.67,3-2.38,4-1.78.2,2-2.44.66-1.07,2.49l-1.6-.8c1.2,3.23-1-.23.12,3.22,2.11.61,2.38-1,4.48-.4.49-1.13-.14-1.68.35-2.8,3-2,2.31,5.14,4.54,2.45.58-1.35.83-3.93,2.39-2.55L68,23.32c2,.25,1.2-3.3,3.33-1.73-.39.91-1.62.75-1.31,1,1.37,1.83,1-1.3,2.06-1.29l.2,2c2.18-.29,4.6-1.74,7-2.09-.14.6-.56,1.24,0,1.87,3-1,6.49.31,9.42,1.55L89.82,23c.26,0,.48.8.19,1.14,1.14.68.07-1.12.63-1.8.65-.12.85,1,.43,1.54,2-1.47,5.78-3.16,7.89-1.25l-.42.52c1.65.73,1.91-3.59,3.43-1.93l-.3.31c3.59.8,7.58-.78,10.3,1.91.55-2.53,3.55,1.17,3.81-2.37,2,1.77,1.45,2.4,4.33,3.61.77.17,1.17-2.2,2.13-2.56v1.85L123.56,22l.67,2.22.9-.46a1.49,1.49,0,0,1-.69-1.37c1.4-.83,3.39,1.32,3.42,2.27l3.33-1.53c-.09.74-.64,1-1.09,1.46,1.79-1.87.31,2,1.94.24-.21-.42.13-1.1.17-1.48.83,1.13,2.57,1.15,3.75.74l-.28,1.26c2,.39,4-.28,5.24.23-.23-.71.5-2.8,1.12-2.8-.17.63-.35,1.26-.55,1.88.76-1-.21-.88,1-2,.54.5-.63,2.16-1.1,2.63a8.33,8.33,0,0,1,.82-.34c-.26.53-.52.73-.89,1.37.21-.29.29-.21.3,0l1.25-14.81c-.49-.22-1.3-1.13-1.23.38l-.2-.55c-1.77.45-3.06,1.32-5.13,1.78.24,1.67-.65,1.45-1.08,2.9-1.67-.28-3.62-1.32-5.51-.92-1.23,1-.2,1.47-.67,2.54-.3-1.51-2.2-1.12-1.35-2.34A16.42,16.42,0,0,0,122,17.52c.38.6.77.83.64,1.37-.51.31-1.29-.51-1.29-1.26l.13-.17c-3.11,2.65-8-3.74-10.39-.36l.14-.17-2.63,1.86c-1.29-.18.68-1.2-.32-2.09-2.8,2.76-4.71-.07-7.07,1.77-2.13-4.41-6.74.67-9.46-2.1l.2,1.06c-.62,1.07-.84-.58-1.34-.8.1.83.77.93.38,1.53-5.6,1.54-11.78-1-17.64-1.74-2.14-.19-1,5.57-3.76,3.14l.68-2c-4.19,2.57-8.79.31-12.9,2.51.23-.46.21-1.06.62-1.07-1-1.4-3.29.08-3.25,1.25-.66-.1-.2-1-.63-1.63-1.27-.8-1.29,1.9-1.34.46a2.62,2.62,0,0,1,.12-.58c-.17.7-.31-.16-.71,1.52-.08-.4-.3-.2-.59,0s-.59.33-.39-.17c-.8,1-.89.74-1,.62s-.16-.16-1.6,1.22c2.75-2.84,1.94-2.27-.29-.9,1.26-.87,1-.89,2.8-2.11a33,33,0,0,0-3.53,2.1c1.21-.87,1.56-1.13,1.39-1.11s-.84.32-1.51.56c-1.31.5-2.59.61,1.91-1.38a13.39,13.39,0,0,1-9.36-1c3.74-.1,4,.13,4.41.34s.75.39,4.41-.19a35.38,35.38,0,0,1-6-.42c-2-.33-3.41-1-2.7-1.48,1-.17,3.5.52,4.86.65A3.71,3.71,0,0,1,43.46,16c-.24-.23-.23-.5,0-.65.45-.23.72-.3-.71-1,.64.2,1.26.44,1.72.62-.06-.12,1.37.21-1.75-.76l.66.32A40.45,40.45,0,0,1,37,12.25c-1.7-.77-2.84-1.52-3.91-1.92a23.6,23.6,0,0,0,6,1.81,13,13,0,0,1,2.19.6c1,.37,2.46,1,4.85,1.95-.43-.22-1.55-.77-3.37-1.49a19.56,19.56,0,0,1,3.67,1.45c-.86-.71-3.68-1.87-2.81-2,1.12.56,1.4.8,2.7,1.46A14.77,14.77,0,0,1,44,12.59c-.43-.39-.37-.59.42-.4.54.36,1.38.8,1.17.82.38-.15-.31-1-.46-1.62s.17-1.16,1.61-.61c2.09,2.64,1.37.85,3.36,3.13a2.58,2.58,0,0,1,0-.68q-.49-.56-1.08-1.11c.34,0,.36-.39.51-.71s.41-.54.9-.15a4.73,4.73,0,0,0-.08.93c.33-.14.69-.27,1.08-.4a13.26,13.26,0,0,0-1.1-.89,3.18,3.18,0,0,0-.24-1.79c-.17-.49-.19-.76.63-.42-.25.22,1.15.07,1.76,1.43h0c.44-.69.94-1.42,1.85-.81.19.73-.34,2.47-.21,2.95.7-1.84,2.86-.34,3.76-2.27a3.87,3.87,0,0,0-.32,1.87l.61-1.48c.53.52.6.77.44,1.69,1.68.41-.33-2.87,1.6-1.5-.17.11-.11.34-.46.55,2,.79,4-.66,5.85.22.39,2.29-1.69.43-1.19,2.37,2.75-.2,5.81-2.3,8.41-1.6l-.48-.28c.56-3.15,1.86,1.69,3.28.27-.34.22-.53,1.74-.42,1.39,1.77.62,3.73-.57,6.51-1.42l-.38.8c1,.79,2.78.55,3.91,1,.38-.8,1-.63.68-1.84,3.34,4.82,6.84-2.2,9.83,1.78-.37,0-.92.68-.62.7l2.7-.66c-.17-1.4-.32-.85-.85-1.95a2.23,2.23,0,0,1,1.8-1.41c-1.23.89-.06,2.23.44,3a12,12,0,0,1,.08-1.33c1.33,2.51.32-2.78,2.17-1.06l-.12.72c.72-.34,1.4-1.29,2.17-1.07.28,1.61-.78.73-.86,2.05,1.08-.07,2.2-3,3.14-1.36-.47.43-1.13.42-1.6.86,1,1.9,1.16,1.43,1.94,1.75L106,14l1.81.89-.45-.52c1.43-4.16,2.77-.71,4.63-3.42-1.81,2.56-.32,1.49-.48,3.31.46.51,1.16,1.08,1,1.59.89-1.45,1.43,1.17,2.68-1,0,.59.92.07.71,1.54,1.13-.45-.26-1-.15-1.76,1.74-2,4.05,2.46,6.55-.28,2.14-1.13,2.53-3.1,4.51-4.09.67.93-.54,2.13-.54,2.13a2.13,2.13,0,0,0,2.91,0c-.2.51,0,.94.33,1.59.82-.15.53-2.13,1.62-1.27a10.37,10.37,0,0,1-.8,2.35c1-.54,1.91-1.65,2.9-2.19.27,1-.59,1.56-.93,2.23,1.12-.48,2.9-1,3.22-2.58l-.73-.57c.41-.08.23,1.38-.07,1.68-.94,1.28-1.39-.54-1.45-1.13l.7-.38c-.77-3.42-2.84.59-4.27.4l.57-2.5-1.45,2.08c-.31-.65-.53-2,.17-2.42-1-1.23-.9.89-1.79-.48a.36.36,0,0,1,0-.43l-1,.75c.2-.52-.17-1.76.44-1.4-1.78-1.44-2.88,1.87-3.55,0l.15-.15c-2.48.84-.24,1.83-2.11,4l-1.24-4.53-.25,1.83a.76.76,0,0,1-.67-.94c-1,1.25.16.8-.4,2-1.22-1.67-3.41.76-3.66-2.17-.46,1.39,1.17,1.09-.16,2.05-.34-3.15-1.53.52-2.64-.94.37-1.61,1.42-.74.32-2.2-.72,2.73-2.18-.64-3.14-.13-.08,2.18-2.07.88-3.68,1.57.11-.73-3-1.27-4.43-2.1l.06-.36c-.35,2.19-1.87,1.73-3,2.15a2.94,2.94,0,0,1,.92-2.4l-1,0a1.89,1.89,0,0,1-1.3,1.29l.32-1.64c-1.39,0-2.86,1.84-4.61.68-.16,1.53,1.26,4.33-.68,5.28,0-.83,0-2.26.46-2.58-.17.11-.61.67-.92.3l.81-1.36c-.79-.65-.47,1.15-1.12,1,.06-1.18-.45-.87-.31-1.8.17-.11.54.51.81.06a3.1,3.1,0,0,1-1.84-1.89c0,.67-.06,1.59-.61,1.72-1.39,0-.41-1.44-1.19-2.08-.38.81-1.22-.09-1.33,1.68-.4,0-.44-.86-.57-1.35-.76.75-3.37.07-2.65,2l.18.13s-.08,0-.13.07h0C81,8.91,78.64,6,76.26,6.63l0-.59c-1.44.59-3.13.22-4.21,1.42-.41,0-.9-1.14-.68-1.83-1.1.37-1.26,1-2.74,0,1.15-1-.3-.94,1.15-.68-1.35-.6-1.59-1.57-3.19-.06A1.16,1.16,0,0,0,65,3.26l.89,1.15a4,4,0,0,1-2-.19l.5-2C61.75-.37,59,6,57.06,1.78c-.86,1.34,1.5,1.09.7,2.67-1.29-.36-2.5-3.31-2.93-3.34a1.19,1.19,0,0,0-.6-.23,1.61,1.61,0,0,0-.71.14,3.1,3.1,0,0,0-1.06.92c-.62.74-1.1,1.53-2.53,1.12.54.72,1,2.64-.34,3.26-1.46-.3-3.25-3-2.25-3.58a.68.68,0,0,1,.8.41c.5-.26,1.28-.54.26-1.34l0,.72c-1.2-.75-4-.65-3.94-1.81-1.25.73,0,1.18,1.25,1.52a8.1,8.1,0,0,0-3.54-.37,13.67,13.67,0,0,1-3.44,0C39.44,2.22,40.48,3,40.1,3c-2.14-.26-2.22.11-2,.58s.77,1-.09,1.3c-2.35-.8-2.34-2.33-3.53-1.19C32.33,3.32,32,2.2,32,1.58c-.35.78-1.53.8-2.93.69A26.21,26.21,0,0,0,25.37,2l.36-.77c-.23.47-.78.62-1.33.79l2.48.83a4.17,4.17,0,0,1-2.25-.25c.66.84,3.59,1.51,4.19,2.72a2,2,0,0,0-1.55.33c-.39.19-.9.28-2.32-.23,1.45-.24.77-.49-.16-.83a7.47,7.47,0,0,1-1.28-.54c-.3-.2-.43-.43,0-.66-.11.29-.56.47-1.38.57-.37-.09-.48-.27-.5-.41-2.14,0-1.55.52-.74,1s1.88,1.16,1.05,1.67c-1.25-.67-3.06-.69-3-.36.58-.51,2.64.61,3.13,1.32-1,.16-1,.43-.93.66s.39.45.1.6l1-.24c1.12.51.45.74.16,1.26-1-.2-.06-.56-.71-.52.73.53-.28.62-1.25.81a2.74,2.74,0,0,0-1.3.51.81.81,0,0,0-.11,1.15c-.72.61-2-.26-2.49.32.74,1,.45,1.4.11,1.87s-.71,1,.22,2c1.41-.49.94-.55,2.95.78a18.9,18.9,0,0,1-1.95-3.08,29.45,29.45,0,0,0,2.74,2.09c-.29-.85-1.52-1.93-1.33-2.43,1.39,1,1,.88,2.17.62-1,.44-.49,1.08.16,1.7s1.43,1.21.93,1.86l-3.88-.07c-.41,1.11.53,2.13,1.61,3.11s2.32,1.94,2.64,3.35c0-.33.09-.65.15-1,1.66.08,1.14,1.55,2.26,2.22-1.25.25-1.35.88-1.84,1.48.82-.32,1.25,2,3.74,1.26-.23.54-.44,1.09-.64,1.64,1,2.06,5.25-.07,6.66.43a11.07,11.07,0,0,0-1.95,1,4.07,4.07,0,0,1-2.08.62c.52.25.75.57,1.64,0-.24.3.57.17,1.38,0s1.64-.28,1.31.25c.85-.36,2.31-1.39,3-1.22a3.49,3.49,0,0,1-.66.52c.66-.5,2.1-.59,2.87-1.84-1,1.74.75,1.95,2.67,1.74s3.72-.49,4.15,1.09a60.93,60.93,0,0,1,6.57-1.16c-.14.36,0,.59-.38.48,2.62,1,1.42-3.46,3.58-2.33,1.13,1.87-1,1.08-.35,1.78.46,3.88,2.44-.64,3.92,1.57l-.33.24c1.11,1.28,2.5-1.59,4.23-1.39a1.3,1.3,0,0,0,0,.59c1.08-2,3.27-2.79,4.9-3.42-.44,1.55-.71.84-.33,2.38.73-.25-.33-2.48,1.13-3,.52.81,1.62,1.5,1.83,3.14L69,30.91c.81,2.11,1.8-.15,2.55.19l-.05.94c2.12-.4,2.05-2.76,4.35-2.69l-.27-.7c1.15-2.39,1.11,1.27,2.29-.52l.48,2.35c.8-.61,2.8-2.42,4.26-2.93-.76,1.79-2.46,2.76-3.49,3.85.83,0,2.79-.3,3.16-1.48-.32.24-.71.84-1,.49q1.38-2.86,3.84-2.91c-.08,4.6,4.31,1,5.66,4.47,2.83-1.83,5.79.46,9.18,0-1.39-3.5,1-.15.58-3.8.78-.28,1.08-.24,1.17,0l2.51,2.05c.64,1-.7.85-.58,1.67,1.75.18.82,1.51,2,2.41-.32-1.3.49-1.91,1.51-1.47l-1.5-1.61c2.3-2.09,2.3,2.94,4.63.85l-.7,1.2c1.22-.76,4.68-.31,5.68-3.35.25.4.63,1.38.1,1.69,3.08.2,6.42-3.73,9-2.18l-.13.92c.54-.32.79-1.79,1.6-1,0,.37-.13.91.14.94.27-.35,1.32-1.73,2.13-1.31l-.52,1.08c3.11.8,4.22-3,6.57-4,.38,2.61,2.84,3.1,4.08,3.33l0,.37a8.6,8.6,0,0,0,4.5-1.91c1.42-1,2.86-2.25,4.57-3.41a3,3,0,0,0,.91.32L154.93,26l-5.86-12c-.83-1.69-3-2.89-5.27-3.55s-4.42-1-6.08-1.83c.54.52-.23,2.05-.86,2.28-.82-.58-2.25,1.76-2.07-.66l.28,0c-.56-2.39-2.15-1.77-3.3-1.85l-.22,3.17c-3-4.64-8.07,1.61-9.7-2.53-.75.78-1.67.76-2.41,1.55l0-1.7a12.27,12.27,0,0,0-5.61-.3l.53-1.21c-1.43-.13-1.86,4.88-3.18,5l-.37-2.54c-2.5,0-5-2.24-7.5,0,0-.37.13-1.1.53-1.2-1.17-.08-4.53-1.76-4.13,1.73,0-2.27-2.58-.25-3.94.73l.23-1.67c-1.16,2.13-1.2,2.71-2.8,3.29-.37-.22-.32-1.34.18-.91-1.25-.89-1,1.57-2.51.67l.58-1.07c-1.29-.14-1.19.44-1.92,1.67-.82.67-2.44-.44-2.62-2-.18.92-.9,2.15-1.66,1.71a1.25,1.25,0,0,1,.33-1.1c-2.15-1.16-3.24,1.91-4.71.26a1.74,1.74,0,0,0-.24-1,9.83,9.83,0,0,1,3,.29c0-1.54-1.37-1.83-.24-3.94-1.13,1.15-3.06,3.65-4.4,2.91a2.2,2.2,0,0,1-.17-.53L79,9.64c-.31-.16-.59,0-.86.24A2.43,2.43,0,0,0,77,9.4c-.15-1.27-1.59-.7-2.28-.77,0,1.69-.86,1.41,0,2.81-.11-.12.13-.2.59-.27.1-.05.23-.07.3-.17l0,.15c.45-.05,1-.08,1.72-.1-.56.85-1.14,1.57-1.89.62-.37,1.09-.77,2.2-1,2.72-.93-2.37-2.74-3.65-3-5.11-2.12.93-5,.58-6.33,3.73-.61.4-.68-.91-.9-1.41.35-.32.76-.27.95-.72-1.21.8-3.56.28-3.87,2.49-1.5-1,.87-2-1.21-1.69l.29-.67c-4.05-3.58-6.7,5.58-11.19,1,.31.28.47.41.53.78C44.53,10.74,39,14.56,34,11.34c-1.45-.66-1.62.75-2.51,1.82l-.3-1.82-1.53,2.08c-2.16,1.51-3.67-4.48-6.41-1.62L23.53,13c-1-.25-3.09.68-2.92-.72-.1.22-.33,1.27-.7.63l0-.95-2.41,1.6c-1.85-.7.32-3.76-2.38-4-1,.35-2.9,2.73-2.53,3.37a1.53,1.53,0,0,1,1.06,1.55L12.7,15c-.2,2.8-.93,5.65,1.31,7.62L15.6,21l.5,1.36-1.33.07c.74,1.29,1.23.16,1.77-.61a2.5,2.5,0,0,0,.64,1.5l1.58-2.65c.17,1.1-.72,2.16.31,2.78.74-1.24-.67-2.46.54-3.26.74,1.27.51,2.3,1.41,1.23a1.53,1.53,0,0,1-.43,1.49c.8-.85,2.09-.34,2.51-1.82.77,1.57,2.66-.39,2.56,2.26.25-.63,1.41-2.06,2.13-2.17-1.35,3.16,2.71.22,2.32,3.61,1-2.84,3.55-1.23,5.3-2.79-.1.22-.3.68-.45.53,1,.25,1.25,1.11,1.87,1.65.15-2.35,1.67-2.87,2.5-4.31,1.18,2.28-.75,2.75-.4,4.93,0-1.9,2.1-1.88,1.71-3.47.9,1.41.78.69,1.23,2.64.19-2.93.86-.48,1.63-2.28,1.31,1.46.32,2.75,1.78,1.87C46,24.42,44.66,25.45,44.66,25.45Zm34.61-4.74v0l-.72.09Zm2.9,0a6.06,6.06,0,0,0-1.26-.08c-.09-.59,0-1.18.32-1.15C81.06,19.88,81.74,20.22,82.17,20.72ZM76.15,9c.46-.24.61.1.67.44a3.91,3.91,0,0,0-.81.2l-.05.2A3.48,3.48,0,0,1,76.15,9Z"/><path class="cls-2" d="M75.3,11.17c-.07,0-.11.11-.19.12a2.5,2.5,0,0,0,.27.38l.17-.52Z"/><path class="cls-2" d="M83.43,7.07l-.06,0a.67.67,0,0,1,.11.24A1.94,1.94,0,0,1,83.43,7.07Z"/><polygon class="cls-2" points="122.24 24.35 122.24 23.92 121.99 24.29 122.24 24.35"/><path class="cls-2" d="M99.19,13.49a.9.9,0,0,0,.19.44A1.06,1.06,0,0,0,99.19,13.49Z"/><path class="cls-2" d="M106.11,14.05l1,.62A3.46,3.46,0,0,0,106.11,14.05Z"/><path class="cls-2" d="M111.44,15a5.1,5.1,0,0,0,.11-.72h0Z"/><path class="cls-2" d="M44.46,14.88s0,0,.14.08C45.33,15.25,45.07,15.13,44.46,14.88Z"/><path class="cls-2" d="M52.45,10.12a8.65,8.65,0,0,1-.48.78C52.28,11,52.51,11.08,52.45,10.12Z"/><path class="cls-2" d="M51.2,18.61l0,0s0,0,0,0Z"/><path class="cls-2" d="M51.2,10.84c.38.35.58.28.77.06C51.72,10.77,51.37,10.59,51.2,10.84Z"/><path class="cls-2" d="M134.6,15.75l.26.07a1,1,0,0,1,0-.27Z"/><path class="cls-2" d="M134.89,15.55l.28-.21C135,15.35,134.93,15.36,134.89,15.55Z"/><path class="cls-2" d="M135.77,14.91l-.6.43C135.38,15.35,135.64,15.39,135.77,14.91Z"/><path class="cls-2" d="M127.52,15l-.08.61A2,2,0,0,0,127.52,15Z"/><path class="cls-2" d="M125.37,15.23c.51.13,1.29,1.3,2,.91l.06-.49C127.11,16.57,125.85,14.2,125.37,15.23Z"/><path class="cls-2" d="M116.46,7.64l1.79.5c-.31-.65-.72-1.53.1-1.68C116.11,4.5,118.8,7.92,116.46,7.64Z"/><path class="cls-2" d="M111,6.63c1-.29,0-1,.06-1.32C110.39,5.9,110.24,6,111,6.63Z"/><path class="cls-2" d="M71.05,5l.19-1.53C70.49,3.65,71.2,4.07,71.05,5Z"/><polygon class="cls-2" points="62.84 12.38 63.49 13.39 63.94 12.01 62.84 12.38"/><polygon class="cls-2" points="59.13 1.14 59.47 0.94 58.18 1.41 59.13 1.14"/><path class="cls-2" d="M42.07,33.85c.3-.65.62-1.29,1-1.94C42.07,32.29,40.25,34.5,42.07,33.85Z"/><path class="cls-2" d="M75.63,30.42c.36.93,1.2,1.5,1.66.55C76.63,30.87,76,30.16,75.63,30.42Z"/><polygon class="cls-2" points="130.11 9.27 130.7 8.64 129.59 9.16 130.11 9.27"/></g></g></g></svg>