<svg xmlns="http://www.w3.org/2000/svg" viewBox="0 0 150.61 56.9"><defs><style>.cls-1{fill:#202020;}.cls-2{fill:#fcba54;}.cls-3{opacity:0.42;}</style></defs><g id="Слой_2" data-name="Слой 2"><g id="Слой_1-2" data-name="Слой 1"><path class="cls-1" d="M20.83,9.23c.19-.07.1-.28-.39-.27l-.37.31Z"/><path class="cls-1" d="M17.52,8.61c-.58.23-1.19.59-.78.84.52-.37.67-.28,1.26-.7.49-.06.87.08.78.2.18-.1.76.05,1-.12a2.29,2.29,0,0,0-1.09-.22,3.44,3.44,0,0,0-1.23.22C17.31,8.78,17.48,8.67,17.52,8.61Z"/><path class="cls-1" d="M12.42,44.32l-.28-.16A3.08,3.08,0,0,0,12.42,44.32Z"/><path class="cls-1" d="M42.25,51.27c-.23,0-.33,0-.35,0C42.12,51.3,42.3,51.31,42.25,51.27Z"/><path class="cls-1" d="M47.36,52.44l-.3-.06A.61.61,0,0,0,47.36,52.44Z"/><path class="cls-1" d="M12.42,44.32l.74.39C13.26,44.63,12.79,44.49,12.42,44.32Z"/><path class="cls-1" d="M11.4,11.19a1.6,1.6,0,0,0,.34-.26l-.34.2Z"/><path class="cls-1" d="M2.19,35.39l-.12-.23A1.48,1.48,0,0,0,1.86,35Z"/><path class="cls-1" d="M0,25c0,.24.24.34.36.44a.84.84,0,0,1-.15-.54A.32.32,0,0,0,0,25Z"/><path class="cls-1" d="M8.85,11.33a1.37,1.37,0,0,1,.23-.19A1,1,0,0,0,8.85,11.33Z"/><path class="cls-1" d="M6.87,41.44a.22.22,0,0,0,0,.14S6.9,41.51,6.87,41.44Z"/><path class="cls-1" d="M27.58,6.22s0,0,0,0S27.51,6.23,27.58,6.22Z"/><path class="cls-1" d="M17,9.68,17,9.52a.6.6,0,0,0-.13-.09Z"/><path class="cls-1" d="M56.82,54h0C56.53,54,56.67,54,56.82,54Z"/><path class="cls-1" d="M144.28,48.43c-.51.17-.19-.12.06-.38s.44-.51-.28-.19C144.25,47.87,143.08,49,144.28,48.43Z"/><path class="cls-1" d="M11.15,11.27l-.36.19Z"/><path class="cls-1" d="M144.06,47.86h0l-.15.06Z"/><path class="cls-1" d="M78.86,55.5a.64.64,0,0,0-.22-.14S78.69,55.43,78.86,55.5Z"/><path class="cls-1" d="M62.48,54l.4.07A2.6,2.6,0,0,0,62.48,54Z"/><path class="cls-1" d="M87.4,55.3a1.63,1.63,0,0,0,.6,0l-.09,0A.92.92,0,0,1,87.4,55.3Z"/><path class="cls-1" d="M96.28,55.22l-.17,0-.28,0Z"/><path class="cls-1" d="M54.21,3.21A1.4,1.4,0,0,1,53.78,3C53.93,3.17,52.64,3.33,54.21,3.21Z"/><path class="cls-1" d="M11.32,11.05c0,.09-.06.15-.17.22l.25-.14S11.39,11.05,11.32,11.05Z"/><path class="cls-1" d="M87.78,53.09l1.4,0C88.78,53.1,88.28,53.09,87.78,53.09Z"/><path class="cls-1" d="M117,7l-.32-.06A1,1,0,0,0,117,7Z"/><path class="cls-1" d="M93.33,53.06a3.5,3.5,0,0,0,.79.19.48.48,0,0,0,.16-.07Z"/><path class="cls-1" d="M53.78,3Z"/><path class="cls-1" d="M44.63,4.38c1.33-.12.59-.42.86-.66,1.58-.24.76.21,1.31.35,1-.18,1.72-.58,2.46-.63.06.06.2.07,0,.16,1-.39,3.12-.24,4.31-.7a.26.26,0,0,1,.17.08.5.5,0,0,1-.22-.49c.6-.05,1.1-.3,1.34-.08a.91.91,0,0,0-.56.2L55,2.47c.58.31-.85.17-.83.43a21.59,21.59,0,0,1,3.56-.51c.22.33-2.18.24-.92.47l-1.45,0c1.14.47-.88,0,.17.53,1.91,0,2.12-.31,4-.29.42-.21-.15-.27.27-.48,2.69-.45,2.16.76,4.13.25A2.47,2.47,0,0,1,66,2.32l-.47.4c1.85,0,1-.57,3-.35-.34.15-1.45.15-1.17.19,1.26.28.88-.23,1.85-.25l.2.34c2-.09,4.14-.33,6.32-.38-.12.1-.5.2,0,.31A53.28,53.28,0,0,1,84.26,3l1-.26c.24,0,.43.15.17.2,1,.15.07-.18.57-.28s.77.2.39.27a27.38,27.38,0,0,1,7.11.17l-.38.06c1.49.22,1.73-.48,3.09-.1L96,3.1c3.22.37,6.82.51,9.19,1.31.53-.36,3.12.69,3.43.16a36.52,36.52,0,0,0,3.7,1.36c.66.18,1.09-.15,1.93,0l-.06.3,1.21,0,.49.51.79.15c-.3-.11-.61-.32-.54-.39a6,6,0,0,1,2.83,1.25c1,.21,1.9.49,2.86.74-.11.09-.58,0-1-.1,1.58.26.16.38,1.6.65-.16-.14.16-.13.21-.18a8.47,8.47,0,0,0,1.42.75c.58.28,1.23.56,1.8.77l-.3.1a59.55,59.55,0,0,1,6.12,3.34c-.68-.55-.31-.76.31-.39l.05.43c.5.1-.54-.53.38-.19.73.56.29.66-.2.45l1,.54c0,.12-.25,0-.37.07.5.08,1.31,1.4,2,1.52v.11a45.13,45.13,0,0,1,4.1,3.63c.23-.17.72.43,1.29.72.43.59.88,1.22,1.33,1.88s.91,1.37,1.39,2.1c.79.94.39.16.84.54-.14.2.76,1.69.14,1,1.06,1.8,1.39,2.27,2.58,4.65,0-.31-.09-.63.05-.51.22.44.31,1.07.17,1l-.07-.11a9.65,9.65,0,0,1,.8,2.23c.19.8.27,1.64.38,2.44.17,1.64.09,3,.17,4.08v-.12a7,7,0,0,1-.41,2.17c-.52.89.11-.64-.38,0a5.78,5.78,0,0,1-1.74,2.55c-.69.63-1.43,1.13-2.22,1.85a18.94,18.94,0,0,0-3.51,1.47,12,12,0,0,1-4.11,1.2l.17.14c-.52.32-.71.06-1.14.12.09.12.66,0,.32.19a42.12,42.12,0,0,1-7.7,1.18c-2.65.22-5.32.42-7.94.58-1.91.14-1,1-3.45.85l.66-.4c-3.83.73-7.9.66-11.67,1.17.22-.09.22-.19.59-.21a6,6,0,0,0-3,.34c-.59,0-.15-.17-.51-.25-.81-.09-2,.37-2.44.15-.08,0,.22-.08.36-.1-.52.13-2.44,0-1.93.3-1.42-.1-2.72.21-3.86.06-.74.31-2.44-.14-2.67.3.1-.45-2.5-.35-3.4-.13.3-.14-.78-.14-.43-.33-1,0-2,0-1.79.29C83.94,52.8,82,53.74,81,53c-3.06.11-5.9.19-8.65.12.13-.43,3,.13,3-.36a43,43,0,0,1-6.71.05c-.67-.11.39-.17.62-.23-2.62,0-5-.45-7.35-.41a1.31,1.31,0,0,1,.51-.07c-.46,0-1.06-.16-1,0h.44c.7.36-1.87.46-2,.6.83-.5-2.27-.41-1-1-.31,0-.69.06-.64.21-.44-.09-.57-.19-.1-.29a24.78,24.78,0,0,1-2.56,0c0-.1.32-.1.48-.2a7.73,7.73,0,0,1-2.77,0c.08-.05-.06-.15.31-.1-2.13-.25-3.7,0-6-.5.75-.33-.78-.25-.84-.63-.43,0-.85-.06-1.28-.09l.48.26a26.26,26.26,0,0,1-3-.35h.84l-2.07-.27,1.15.33c-1.15,0,0,.48-1.41.14a12.63,12.63,0,0,1-1.63-.49h0a5.17,5.17,0,0,1-1.94-.2c-.19-.16.24-.38.12-.48-.59.21-2.58-.4-3.32-.2.25,0,.29-.22.23-.27l-.5.16c-.49-.17-.56-.23-.45-.37-1.51-.33.4.56-1.37,0a3.5,3.5,0,0,1,.39,0c-1.8-.47-3.53-.58-5.17-1-.41-.47,1.47.22,1-.21-2.41-.42-5.05-.66-7.33-1.3l.42.14c-.45.44-1.66-.66-2.89-.7.3,0,.45-.2.36-.16-1.55-.48-3.24-.65-5.6-1.3l.33,0c-.85-.42-2.28-.95-3.14-1.48-.32,0-.81-.32-.61,0-1.14-1.13-2.37-1.86-3.46-2.82a7.5,7.5,0,0,1-2.56-3.3c.18.28.51.59.38.37l-.67-1c-.21-.33-.4-.67-.6-1-.12.27,0,.33.09.86a3.85,3.85,0,0,1-.92-1.3c.58.92.32-.16.27-.63,0,.1-.17,0-.22.05-.09-1.29-.54,0-.83-1.73l.15.05a7.51,7.51,0,0,1-.67-1.81c.19-.33.28.64.5.63-.13-.46-.35-.9-.5-1.34A2.29,2.29,0,0,1,1,28.08a12.63,12.63,0,0,0,.34,1.38,7.45,7.45,0,0,0,.07-1.77v.07a12,12,0,0,1,.08-1.59l-.08.4a2.83,2.83,0,0,1-.3-1.87,13.48,13.48,0,0,0,.13-2.21c.14,1.65.2.31.47.49.14-.38.42-.94.45-.75a2.16,2.16,0,0,1,.24-1A2.83,2.83,0,0,0,2.72,20c.09,0,.34-.72.49-.46.36-.89-.25.13-.33,0a4.68,4.68,0,0,1,.47-1.13c.24-.37.52-.74.81-1.12s.64-.75.94-1.16A9.17,9.17,0,0,0,6,14.86c.6-.71.9-1.21,1.26-1.64a7,7,0,0,1,1.37-1.46c.58-.22-.2.57-.2.57A14.49,14.49,0,0,0,10.65,11c-.12.16.08.13.38.11.63-.32.27-.54,1.21-.8a3.92,3.92,0,0,1-.5.66c.35-.24.72-.44,1.09-.66A7,7,0,0,1,14,9.68c.27.1-.44.37-.68.6.44-.21,1-.4,1.55-.63A2.94,2.94,0,0,0,16,9.13l-.65,0c.36-.09.23.19,0,.29-.77.38-1.2.24-1.28.14l.59-.24c-.79-.37-2.43.83-3.53,1.42l.3-.61c-.34.31-.7.58-1,.91-.29,0-.57-.06,0-.44-.91.3-.64.53-1.44.77-.09,0-.07,0,0-.08L8.17,12c.09-.17-.3-.15.2-.42-1.52.75-1.89,1.89-2.55,2.08l.09-.11c-.79.84-.74,1-.66,1s.23.09-.18.83a11,11,0,0,0-1.3.43l.11.36c-.15.18-.45.55-.5.41-.3.85.19-.06.08.48-.87.8-1.38,2.76-1.87,2.83.07.46.55-.94.27.24-.31.07-.42.4-.51.83A4.39,4.39,0,0,1,1,22.35C.8,22,1.21,21.05.69,22c.28.71-.52,2-.48,2.9.34.07,0,1.94.31,3.4a4.36,4.36,0,0,0,.06,1.53c.12.87.32,1.93.49,2.6l-.07,0c.22.07.41.46.63.92s.46,1,.72,1.48c-.22.06-.38-.07-.69-.55.13.3.25.6.41.89a3.07,3.07,0,0,1,.74.94L2.46,36c.67,1.14,1.62,2.08,2.6,3.45.25-.11-.31-1.44.94-.27-.06.14-.19.35-.53,0a3.34,3.34,0,0,1,.6.57c-.23-.1-.42-.23-.64-.35.43.64.4.16.82.6-.15.13.22.4,0,.46-.13-.1-.33-.43-.55-.53a8.52,8.52,0,0,1,1.12,1.44c0-.12.17-.2.58.09,1,.8.2.49.78,1,.34.06,1,.65,1.14.4a.91.91,0,0,1,.42.49c.64.25,2.87,1.3,2.3.71L11.94,44l.11,0h0c2.1.57,4.21,1.62,6.32,2l0,.1a37.5,37.5,0,0,0,3.71.6c.36.09.82.38.64.46a8.46,8.46,0,0,1,2.42.55c-1-.06.3.23-1-.11a7.29,7.29,0,0,0,2.84.62c-.5.15.87.51,1.47.56l-.83-.37c.67.11,1.24.25,1.83.4l-.39.26c2.45.95,4.71.27,6.52,1.29.72-.1-1.35-.42-.7-.57a24.38,24.38,0,0,1,2.67,1c1.57.49,1.58-.19,3.24.2-.19-.15-.34-.49.93-.4,1.17.24,1.37.73.61.7-.29,0-.42-.1-.4-.13-.38,0-.89,0-.45.15l.17-.09c.57.21,2.19.46,1.78.59.91,0,.41-.13-.24-.3,1.49.41,2.36.42,3.9.74-.24-.1-.45-.27-.2-.24,2.27.47,1-.08,2.6.08.85.3-.38.39,1.2.45.94.26.16.34-.23.39a15.33,15.33,0,0,1,3.45.64h-.76a10.81,10.81,0,0,1,1.2.08l-.4-.28c.43.09.81.14.79.23.47-.1-.3-.43.62-.54.58.19,1.81.08,2,.42-1.83-.32.17.33-1.4.2A5.77,5.77,0,0,1,57,54c.06,0-.07.06-.2.06,1.74.48.86-.26,2.69,0-.25.15.39.38.7.36-.75-.07-.33-.32.36-.4a7.58,7.58,0,0,0,1.91.09l-.7-.13a4.62,4.62,0,0,1,1.67-.06c.06.15-.75,0-.47.12.94-.23,2,.5,3.33.41.58.17,0,.34.54.46,1.44-.13,1.53.35,3.05.26-.42-.27-.5-.22.57-.38H68l1.61-.24c-.74,0-1.58.05-2,0,.77-.14.68-.09.34-.31,1,.42,2-.08,3.19.24L71,55c1.76.39,3.17-.09,5.46.14L75.77,55c.32-.22,1.42,0,2.17,0-.08.2.38.29.7.42,0-.14,1.68.09,1.91-.3l1,.29c1.86.14,2.13-.53,3.92-.43-.54.21.27.36-.93.49.59,0,1.13.06,1.14-.07.35.12,1.66-.23,2.21-.05a1.63,1.63,0,0,1,1-.28c.08,0,0,.1,0,.1s1-.14.46-.36c1.84.6,5.14,0,6.74.42,1.31-.11,2.87-.21,4-.26-.07.06,0,.1-.22.08,1.64.13,1-.58,2.84-.47,1,.27-1,.22-.38.31.29.64,2.23-.21,3.5.11l-.3.05c1,.16,2.32-.34,3.87-.43,0,0-.07.07,0,.1a24.43,24.43,0,0,1,4.53-.88c-.44.29-.67.18-.36.42.67-.09-.23-.4,1.1-.57.45.11,1.42.13,1.57.39-.42,0-.83.1-1.26.13.68.31,1.64-.17,2.31-.17l-.07.16c1.93-.24,1.91-.63,4-.82l-.23-.09c1.09-.51,1,.13,2.07-.3l.39.35c.74-.19,2.57-.71,3.9-1a24.48,24.48,0,0,1-3.22,1,12.8,12.8,0,0,0,2.87-.58,3.48,3.48,0,0,1-1,.19,12.06,12.06,0,0,1,3.52-.91c-.15.82,3.86-.37,5,0,2.54-.84,5.25-1.14,8.12-2.68-1.28,0,.82-.47.34-.91a3.71,3.71,0,0,1,.93-.55,19.51,19.51,0,0,0,2-1.06c.53-.2-.47.56-.34.62,1.33-1,.72-.23,1.67-.89-.32,0,.22-.62.9-1.34a11.4,11.4,0,0,1-1.13.84,8.06,8.06,0,0,1,1.51-1.65,3.6,3.6,0,0,0,1.2-2c0,.27-.1.54-.16.81a10.22,10.22,0,0,0,.84-3,5.49,5.49,0,0,0-.37-2.91c.05-.22.18-.53.29,0-.28-2.91-1.85-6-2.46-8l.21.14c-.22-.47-.6-.72-.75-1.36.07,0,.22.12.13-.1a10.64,10.64,0,0,1-1.1-1.76l.43.43a10.84,10.84,0,0,0-1.86-2.83c-.64-.76-1.35-1.38-2.06-2.25.37-.27-.87-2-1.55-2.84h.07a29.32,29.32,0,0,0-6.45-5.14,8,8,0,0,0-1.28-1.22,19.52,19.52,0,0,0-1.9-1.35c-1.39-.92-3-1.78-4.21-2.54.36.27-.22.27-.69.08-.58-.38-1.82-.5-1.56-.83l.22.11c-.3-.59-1.63-1-2.64-1.44l-.36.42a10,10,0,0,0-2.12-1.08c-.81-.28-1.66-.54-2.48-.74a13.34,13.34,0,0,1-3.81-1.22c-.69,0-1.51-.22-2.2-.24l.1-.27a38.7,38.7,0,0,0-5.06-1l.5-.12c-1.3-.23-1.77.54-3,.39l-.3-.47c-2.26-.31-4.52-.91-6.8-.73,0-.06.12-.17.49-.16C97,1,93.92.52,94.27,1.13c0-.38-2.34-.2-3.57-.09l.2-.27a6.45,6.45,0,0,1-2.53.42c-.34-.05-.29-.24.16-.14-1.13-.21-.9.21-2.28,0L86.78.9A3.2,3.2,0,0,0,85,1.12,4.55,4.55,0,0,1,82.66.71a2.35,2.35,0,0,1-1.5.25c-.1-.1.16-.15.29-.18-2-.24-2.93.25-4.27,0A.3.3,0,0,0,77,.58c1.56,0,2.82.06,2.7.08,0-.25-1.26-.33-.25-.66a16.1,16.1,0,0,1-4,.44.56.56,0,0,1-.17-.09l.13,0a2.76,2.76,0,0,0-.77,0,9.21,9.21,0,0,0-1-.07C73.45.07,72.15.17,71.52.17c.06.28-.77.23,0,.46-.1,0,.11,0,.53,0l.27,0,0,0,1.56,0a3.28,3.28,0,0,1-1.71.11c-.32.18-.67.37-.87.46-.86-.4-2.52-.57-2.76-.81-1.91.17-4.52.21-5.7.77-.54.08-.63-.13-.84-.21a5.35,5.35,0,0,0,.85-.15c-1.08.17-3.22.19-3.46.57-1.38-.11.75-.37-1.13-.23l.25-.13c-3.75-.39-6,1.28-10.12.86.29,0,.43,0,.5.09-4.71,0-9.59,1.2-14.24,1.27a4.7,4.7,0,0,0-2.2.59l-.33-.26L30.78,4c-1.89.51-3.44-.24-5.81.61l.35.15c-.88.07-2.76.63-2.66.39a.82.82,0,0,1-.61.26L22,5.3a13.55,13.55,0,0,0-2,1c-.81.34-.82.21-.93.09s-.32-.23-1.43.69a4.41,4.41,0,0,0-.94,1.63c-.15.57-.16.95,0,.8.15-.38.54-.88.7-.8a3.89,3.89,0,0,0-.33.79c.18.16.33.42.57.43s.49-.23,1.08-.76a4.12,4.12,0,0,1,.61-1l.45,0a5.81,5.81,0,0,0-.75.63c.54-.21.69-.55,1-.88a1,1,0,0,0,.57,0,8.62,8.62,0,0,1,1-.9c.2.12-.42.53.42.35.52-.38-.69-.21.25-.65.68,0,.53.25,1.24-.1.13.1,0,.2-.29.32.62-.3,1.75-.41,2.08-.71.74.15,2.36-.43,2.36,0a7.26,7.26,0,0,1,1.83-.65c-1.11.69,2.42-.3,2.19.3.8-.6,3.13-.64,4.65-1.09a.79.79,0,0,1-.39.14,8.78,8.78,0,0,1,1.72.06c.07-.4,1.42-.65,2.13-1,1.11.26-.6.53-.22.85-.09-.31,1.82-.52,1.43-.74.85.14.72,0,1.18.31.09-.5.75-.15,1.4-.52,1.22.12.35.43,1.64.15C45.78,4.1,44.63,4.38,44.63,4.38ZM75.74,2.17H75.1Zm2.63,0-1.14,0c-.09-.1,0-.2.27-.19C77.36,2.05,78,2.11,78.37,2.2Zm-5.56-2c.42,0,.56,0,.62.07l-.73,0,0,0A.32.32,0,0,1,72.81.22Z"/><path class="cls-1" d="M72.06.59l-.17,0,.25.06.15-.09Z"/><path class="cls-1" d="M12.09,44.13l.05,0-.09-.08S12.07,44.11,12.09,44.13Z"/><polygon class="cls-1" points="114.14 6.32 114.16 6.25 113.92 6.25 114.14 6.32"/><path class="cls-1" d="M2.76,33.58s0-.09,0-.2S2.75,33.48,2.76,33.58Z"/><path class="cls-1" d="M1.4,27.69a8.08,8.08,0,0,1,.05-.85A5.85,5.85,0,0,0,1.4,27.69Z"/><path class="cls-1" d="M1.8,23.1A.32.32,0,0,0,1.7,23h0Z"/><path class="cls-1" d="M62.33,52.13h.18C63,52.12,62.65,52.11,62.33,52.13Z"/><path class="cls-1" d="M39.73,49.78l.74,0C40.08,49.68,39.77,49.62,39.73,49.78Z"/><path class="cls-1" d="M87.62,53.08h0Z"/><path class="cls-1" d="M41.52,49.94a4.36,4.36,0,0,0-1.05-.18A5.37,5.37,0,0,0,41.52,49.94Z"/><path class="cls-1" d="M15.25,9.82l.21,0s0,0,0,0Z"/><path class="cls-1" d="M15.48,9.73l.23-.08A.53.53,0,0,0,15.48,9.73Z"/><path class="cls-1" d="M16.21,9.47l-.5.18A1,1,0,0,0,16.21,9.47Z"/><path class="cls-1" d="M9.6,12.07v.12A.13.13,0,0,0,9.6,12.07Z"/><path class="cls-1" d="M8.11,13.17a13.57,13.57,0,0,0,1.49-.88v-.1C9.46,12.49,8.32,12.76,8.11,13.17Z"/><path class="cls-1" d="M2.09,18.52A13.9,13.9,0,0,1,3,17.11c-.25.19-.58.45-.2-.22-.69.83-.58.77-.45.73S2.59,17.55,2.09,18.52Z"/><path class="cls-1" d="M.34,23.4c.11-.9-.16,0-.21-.08C.12,23.91.12,24.05.34,23.4Z"/><path class="cls-1" d="M23,47.44l-.14.23C23.54,47.79,22.9,47.57,23,47.44Z"/><polygon class="cls-1" points="30.09 47.65 29.48 47.36 29.13 47.53 30.09 47.65"/><polygon class="cls-1" points="33.76 50.26 33.46 50.24 34.58 50.36 33.76 50.26"/><path class="cls-1" d="M94.7,55.51l-.2-.31C94,55.26,94,55.62,94.7,55.51Z"/><path class="cls-1" d="M121.06,53.52a2.29,2.29,0,0,0,1.5-.05C122,53.52,121.36,53.45,121.06,53.52Z"/><polygon class="cls-1" points="121.56 5.95 122.11 6.04 121.12 5.77 121.56 5.95"/><path class="cls-2" d="M89.25,2.34c-.18.08-.09.27.4.26L90,2.29Z"/><path class="cls-2" d="M92.51,3.14c.59-.12,1.27-.36.92-.69-.59.28-.72.14-1.36.48-.49,0-.85-.16-.76-.28-.18.08-.76-.11-1,.08a3.81,3.81,0,0,0,2.28.19C92.74,3,92.56,3.08,92.51,3.14Z"/><path class="cls-2" d="M136.28,19.35l-.19-.24A1.64,1.64,0,0,0,136.28,19.35Z"/><path class="cls-2" d="M145,45.21c.11-.18.1-.28.08-.3C145,45.1,145,45.24,145,45.21Z"/><path class="cls-2" d="M141.51,48.05l.25-.1A.48.48,0,0,0,141.51,48.05Z"/><path class="cls-2" d="M136.28,19.35l.49.62C136.88,19.94,136.54,19.63,136.28,19.35Z"/><path class="cls-2" d="M99.18,2.91a2.76,2.76,0,0,0-.44,0h.41Z"/><path class="cls-2" d="M125.74,12l-.21-.11-.24,0Z"/><path class="cls-2" d="M116.62,8.13c.21.08.37-.16.49-.25a.86.86,0,0,1-.53,0A.28.28,0,0,0,116.62,8.13Z"/><path class="cls-2" d="M101.29,4.31h0Z"/><path class="cls-2" d="M131.66,15.81a.32.32,0,0,0,0,.14A.14.14,0,0,0,131.66,15.81Z"/><path class="cls-2" d="M79.4,2.81s0,0,0,0S79.48,2.82,79.4,2.81Z"/><path class="cls-2" d="M91,3.65l-.16,0a.45.45,0,0,0,0,.16Z"/><path class="cls-2" d="M132.79,50.39h0C133.05,50.29,132.92,50.33,132.79,50.39Z"/><path class="cls-2" d="M48.59,50.66c.92.37-1.59.13-.19.58C48.28,51.12,49.76,51,48.59,50.66Z"/><path class="cls-2" d="M99.44,3l.41,0A2.61,2.61,0,0,0,99.44,3Z"/><path class="cls-2" d="M48.4,51.24h0l.15,0Z"/><path class="cls-2" d="M112,53.82a.65.65,0,0,0,.22.1S112.11,53.86,112,53.82Z"/><path class="cls-2" d="M127.65,52.13l-.39,0A2,2,0,0,0,127.65,52.13Z"/><path class="cls-2" d="M103.76,54.62a1.76,1.76,0,0,0-.57,0,.19.19,0,0,0,.09,0A.77.77,0,0,1,103.76,54.62Z"/><path class="cls-2" d="M95.2,54.66l.15.06.27,0Z"/><path class="cls-2" d="M53.24,2.06a1.38,1.38,0,0,1,.41.25C53.51,2.11,54.78,2,53.24,2.06Z"/><path class="cls-2" d="M99.17,3.07A.34.34,0,0,1,99.44,3l-.29,0S99.11,3,99.17,3.07Z"/><path class="cls-2" d="M103.47,56.85c-.46,0-.92,0-1.38,0C102.48,56.86,103,56.86,103.47,56.85Z"/><path class="cls-2" d="M1.32,26.92l0-.32A.81.81,0,0,0,1.32,26.92Z"/><path class="cls-2" d="M98,56.9a3.44,3.44,0,0,0-.78-.2.77.77,0,0,0-.16.07Z"/><path class="cls-2" d="M53.65,2.31Z"/><path class="cls-2" d="M62.73,1.8c-1.31-.06-.63.33-.91.53-1.57,0-.71-.29-1.24-.5-1,.06-1.74.38-2.47.35,0-.06-.19-.08,0-.15-1,.27-3.07,0-4.27.37a.31.31,0,0,1-.16-.09.5.5,0,0,1,.19.51c-.58,0-1.08.24-1.3,0a.84.84,0,0,0,.55-.18l-.61.12c-.57-.33.83-.14.83-.39a28.55,28.55,0,0,1-3.51.42c-.21-.34,2.15-.21.91-.46l1.43.08c-1.11-.5.86,0-.16-.53-1.88,0-2.09.25-4,.26-.41.21.16.27-.25.48-2.62.52-2.16-.7-4.07-.07a2.45,2.45,0,0,1-2,.64l.43-.43c-1.81.17-1,.65-2.88.65.31-.2,1.39-.32,1.12-.33-1.27-.14-.84.33-1.78.46l-.24-.31c-1.91.32-4,.91-6.06,1.37.09-.12.43-.29-.08-.3-2.62.67-5.65,1.15-8.23,1.62L23,6.48c-.23.06-.45,0-.23-.14-1,.17,0,.2-.44.44s-.78,0-.45-.14a54.74,54.74,0,0,1-6.61,2.51l.32-.23c-1.44.47-1.31,1.21-2.67,1.54l.22-.16a28.41,28.41,0,0,0-4.32,2.39L5.18,15.16c0,.32-.67.85-1.21,1.48S3,18,3.2,18.21a12.83,12.83,0,0,0-1,1.54,8,8,0,0,0-.75,2.3c-.11.72.26,1.1.26,1.95H1.38l.25,1.18-.39.61.06.81c0-.33.15-.68.24-.63a9,9,0,0,1-.34,3.15,23,23,0,0,0,.67,3c-.14,0-.28-.55-.42-.94.61,1.57-.29.36.33,1.8,0-.21.21.07.28.08a8.53,8.53,0,0,0,1.29,3.55l-.3-.12a19,19,0,0,0,4.71,5.77c-.62-.69-.2-.81.37-.35v.44c.49.16-.51-.59.4-.15.7.62.26.69-.24.43.33.21.65.43,1,.63,0,.12-.25,0-.38,0,.49.13,1.44,1.47,2.23,1.51V45a28,28,0,0,0,5.24,2.39c.14-.25.86.09,1.51.06A26.88,26.88,0,0,0,22.54,49c1.25.14.41-.15,1-.2,0,.28,1.78.6.84.6a45.67,45.67,0,0,0,5.34.69c-.27-.15-.58-.24-.4-.3.48,0,1.07.28,1,.39h-.13c3,.11,6.7,1.81,9.13,1.61h-.14l2.49.07c1.11.19-.7.09.11.37,2.69-.07,4.15.61,6.36.6,1.6,1,6,.67,8.21,1.38L56.2,54c.61-.11.7.18,1.13.27,0-.15-.62-.23-.24-.29,5,.32,10.26,1.29,15.37,1.86,1.87.2,1.14-.83,3.47-.23l-.7.28c3.81-.1,7.74.55,11.48.4-.23.07-.24.16-.6.15A5.86,5.86,0,0,0,89,56.41c.58,0,.13.18.48.29.78.19,2-.24,2.4,0,.07,0-.22.08-.37.09.52-.1,2.39.09,1.91-.2,1.39.18,2.67-.08,3.78.1.73-.29,2.4.16,2.63-.29-.1.45,2.45.36,3.33.11-.29.15.77.12.43.32,1,0,1.93-.15,1.75-.37,1.88.5,3.71-.62,4.8,0,3-.43,5.73-.86,8.39-1.28,0,.46-3,.37-2.79.83,1.26-.23,2.25-.48,3.24-.7a23.05,23.05,0,0,1,3.23-.57c.66,0-.34.25-.55.35,1.26-.25,2.48-.45,3.67-.66a21.6,21.6,0,0,0,3.42-.78s-.22.14-.45.22c.44-.11,1-.15.95-.34l-.42.14c-.76-.14,1.62-1,1.66-1.14-.31.36.25.28.75.23s1-.1.46.41c.28-.11.61-.3.52-.41.43-.07.59,0,.19.23,1.54-.5.93-.57,2.34-.92,0,.1-.25.21-.37.36a8.72,8.72,0,0,1,2.53-1c-.05.08.11.11-.25.21,2-.65,3.32-1.38,5.56-2.24-.45.71.81-.25,1.11,0a8.42,8.42,0,0,0,1-.93l-.54.22a12,12,0,0,0,2-2.5,5.92,5.92,0,0,1-.37.81,8.86,8.86,0,0,0,1-1.94,8,8,0,0,1-.68,1c.4-1.1-.44-.11.29-1.39-.06.29.4-1,.73-1.55h0a8.85,8.85,0,0,1,.16-1.93c.15-.21.39.21.49.08a7.11,7.11,0,0,1-.14-1.63,3.88,3.88,0,0,0-.3-1.68c.1.21.3.21.33.13l-.3-.43c0-.52,0-.6.21-.54-.21-1.54-.37.56-.5-1.28,0,.14.07.06.17.35a11.26,11.26,0,0,0-.7-2.58l-.43-1.21c-.15-.4-.31-.79-.43-1.19.16-.6.63,1.33.72.69a47.27,47.27,0,0,0-3.64-6.44l.2.39c-.62,0-.7-1.62-1.64-2.42.21.21.47.13.37.11a22.44,22.44,0,0,0-3.9-4.18l.31.12A27.47,27.47,0,0,0,135.45,17c-.32-.1-.74-.51-.61-.12A10.57,10.57,0,0,0,131.39,14a18.81,18.81,0,0,1-3.54-2.36c.29.17.75.31.52.17-.7-.38-1.41-.73-2.13-1.06.05.29.21.27.56.66a4.39,4.39,0,0,1-1.48-.52c1,.37.17-.34-.19-.66,0,.1-.14.1-.13.18-.93-.9-.4.33-1.78-.65l.13-.07a11.46,11.46,0,0,1-1.8-.59c-.16-.35.66.16.78,0-.88-.38-1.92-.25-2.62-.81.4.07.94.28,1.35.36a4.78,4.78,0,0,0-1.53-.9l.06,0c-.49-.24-1-.45-1.48-.68l.36.22c-1.35.25-2.35-.67-4-.68,1.62,0,.32-.17.52-.43-.37-.19-1-.45-.76-.48-.8,0-1.18-.53-2.31-.44,0-.11-.79-.21-.57-.4-1-.16.19.21.08.32C109.86,5.11,108,4,105.73,4c-1.89-.14-2.29.16-4,.08-.57-.23.52-.29.52-.29a8,8,0,0,0-2.54-.32c.19-.07,0-.16-.25-.3-.72,0-.52.3-1.44.06A2.6,2.6,0,0,1,98.74,3c-.85,0-1.71.11-2.59.11-.21-.19.55-.2.87-.29A8.76,8.76,0,0,0,94.13,3l.63.14c-.36,0-.17-.24.1-.27.86-.15,1.21.19,1.25.29h-.63c.59.62,2.5.13,3.75.31l-.56.35,1.32-.2c.26.14.42.39-.21.38.87.31.81-.05,1.55.27.08,0,0,.06,0,.07h.88c-.18.06.11.31-.42.18,1.53.45,2.56,0,3.1.46h-.14c2.18.23.26-.26,1.94-.34l.94,1,.27-.26c.22,0,.66.16.55.26.86,0-.11-.16.4-.25,1,.49,3,.53,3.08,1.07.43-.13-1-.42.2-.3.19.58,1.32.24,2.21.75-.37.18-1.23-.21-.35.29.71-.29,1.82.64,2.63.8.15-.34,1.77.43,3.11.82a5.31,5.31,0,0,0,1.28.68c.74.38,1.65.81,2.2,1.15l-.06,0c.37-.21,1.57.4,2.45.81-.13.18-.33.17-.83,0l.8.43a2.8,2.8,0,0,1,1.07.32l-.34.13a16.76,16.76,0,0,1,3.48,2c.22-.16-.66-1.28.84-.5,0,.15-.11.38-.51.18a2.25,2.25,0,0,1,.7.4l-.69-.18c.54.48.43,0,.88.4-.12.15.26.36.1.44-.13-.07-.35-.36-.57-.42a5.26,5.26,0,0,1,1.17,1.22c0-.12.16-.21.55,0,1,.75.18.45.67,1,.31.08.82.66,1,.46a.78.78,0,0,1,.27.53c.28.16.83.64,1.27,1s.75.62.61.26l-.1-.13L136,19h0c1.72,1.21,2.84,3.22,4.17,4.75l-.08.06c.4.46.83,1,1.2,1.5a10.12,10.12,0,0,0,1,1.31c.2.31.27.84.1.76a6.08,6.08,0,0,1,1.13,2.08c-.56-.76,0,.36-.53-.8a8.79,8.79,0,0,0,1.19,2.5c-.39-.31,0,.95.32,1.45l-.14-.84a8.56,8.56,0,0,1,.6,1.66l-.41-.18a19.18,19.18,0,0,0,1,3.15,4.52,4.52,0,0,1,.23,2.84c.26.62.09-1.31.39-.76a8.72,8.72,0,0,1-.53,2.57,3.21,3.21,0,0,0-.05,1.43,2.26,2.26,0,0,1-.2,1.47c.16-.15.58-.23.2.93-.54,1-1.09.92-.82.32.13-.22.2-.32.23-.29.11-.34.25-.76,0-.43l.05.17c-.15.22-.42.62-.65.93s-.44.46-.42.27c-.36.68-.05.39.35,0a15.08,15.08,0,0,1-1.18,1.2,4.86,4.86,0,0,1-1.43.94c.22-.05.47,0,.28.08-.94.42-1.16.52-1.26.67s-.13.26-.82.53c-.86.1.16-.5-1.22.11-.93.14-.28-.25,0-.45a12.06,12.06,0,0,1-3.27.76l.67-.29a8.79,8.79,0,0,1-1.09.37l.46.11c-.42.08-.76.18-.78.09-.38.25.43.3-.36.71-.58,0-1.65.55-1.92.29,1.76-.33-.26-.26,1.19-.67a5.3,5.3,0,0,1-1,.25c-.07,0,0-.08.15-.12-1.72.13-.67.55-2.4.94.18-.22-.48-.25-.75-.15.7-.14.4.22-.22.49a7.21,7.21,0,0,0-1.77.46l.68-.08a3.9,3.9,0,0,1-1.52.53c-.09-.12.69-.23.4-.23-.81.47-2,0-3.2.45-.58,0-.1-.32-.61-.32-1.32.45-1.51,0-2.9.37.44.18.51.11-.47.49l2.33-.5-1.46.55c.71-.09,1.48-.36,1.91-.37-.69.29-.63.22-.26.37-1-.22-1.9.48-3.06.4l0-.6c-1.72,0-3,.66-5.2.73l.72,0c-.27.26-1.36.14-2.07.3,0-.21-.4-.24-.72-.34,0,.14-1.61.13-1.79.52l-1-.21c-1.79,0-2,.7-3.74.67.51-.23-.28-.34.87-.53-.58,0-1.1,0-1.1.13-.34-.11-1.59.32-2.12.15a1.49,1.49,0,0,1-1,.29c-.07,0,0-.09,0-.09s-1,.14-.44.35A10.68,10.68,0,0,0,98.52,55a10.74,10.74,0,0,1-3.17-.24c-1.26.06-2.78.06-3.92.05.08-.06,0-.1.22-.07-1.57-.23-1,.54-2.77.26-.91-.36,1-.13.39-.28-.22-.66-2.17,0-3.36-.43l.29,0c-.9-.28-2.26.12-3.76,0,0,0,.08-.06,0-.1a22.8,22.8,0,0,1-4.46.24c.47-.22.67-.09.41-.37-.65,0,.16.44-1.14.41-.42-.17-1.34-.36-1.45-.65l1.23.08c-.6-.4-1.58-.1-2.22-.22l.09-.14c-1.88-.09-1.93.29-4,.1l.2.13c-1.13.3-.9-.29-2-.1l-.3-.42c-.74,0-2.58.16-3.89.11A24.09,24.09,0,0,1,68.21,53a13,13,0,0,0-2.84,0,3,3,0,0,1,.95,0,10.36,10.36,0,0,1-3.52.12c.33-.73-3.71-.56-4.69-1.26-2.56,0-5-.66-8-1,1,.71-.86-.09-.75.54a3.41,3.41,0,0,1-1-.13l-2-.63c-.47-.23.67,0,.62-.19-1.49-.24-.59-.34-1.56-.63.17.25-.56.24-1.4.05l1.16.44c-2.14.05-1.74-.75-3.89-.72l.69-.1c-1.09,0-4-.56-5.11-.24-.18-.09-.41-.3.07-.27-2.57-.45-5.82-.37-7.77-1l.22-.11c-.49,0-.88.14-1.46-.12,0,0,.22-.11,0-.16A6.48,6.48,0,0,1,26,47.4l.56-.06c-2.43-.66-3.86-.35-5.93-.8.11-.42-1.73-1.09-2.61-1.49l.06,0c-2.66-1-4.62-1.5-6.92-2.86-.53-.67-1.6-1.53-2.63-2.6A12.72,12.72,0,0,1,6,36.06c.13.38-.32.12-.59-.25-.22-.56-1-1.38-.6-1.46l.08.2c.17-.57-.35-1.64-.55-2.57l-.55,0c.08-1.32-.15-3-.23-4.53a8.11,8.11,0,0,1,.32-3.71,19.53,19.53,0,0,1,0-2l.27.08a10.26,10.26,0,0,1,.61-1.91A8.57,8.57,0,0,1,5.87,18l-.09.44c.68-.81.34-1.62,1.18-2.37l.53.1c1.64-1.34,3.63-2.18,5.31-3.49,0,.08,0,.21-.3.39.88-.5,3.61-1.42,3.05-1.79.17.32,2.06-.82,3.12-1.35l-.08.32a5.47,5.47,0,0,1,2.1-1.28c.33-.06.34.13-.09.19,1.08-.19.73-.51,2-.74l-.42.31A3,3,0,0,0,23.75,8a4.06,4.06,0,0,1,2.32-.27,2.09,2.09,0,0,1,1.33-.61c.11.07-.12.18-.23.24,1.88-.25,2.67-.94,4-.94a.3.3,0,0,0,.25.12c-1.47.29-2.65.54-2.54.49.05.26,1.24,0,.38.59a13.38,13.38,0,0,1,3.63-1.25.85.85,0,0,1,.17.06l-.12,0a2.69,2.69,0,0,0,.73-.17,9.63,9.63,0,0,0,1-.1c.18.18,1.39-.11,2-.2-.09-.27.7-.35-.07-.46.1,0-.11.05-.5.12l-.25.07,0,0L34.36,6A2.88,2.88,0,0,1,36,5.57,8.57,8.57,0,0,1,36.73,5c.88.26,2.48.24,2.73.46,1.81-.42,4.3-.61,5.41-1.24.52-.11.61.1.81.17a5.79,5.79,0,0,0-.81.19c1-.23,3.09-.3,3.32-.67,1.34.08-.72.37,1.09.21L49,4.24c3.58.41,5.8-1.16,9.78-.33-.28-.05-.41-.08-.47-.14,4.52.43,9.35.1,13.82.86a4.6,4.6,0,0,0,2.21-.21l.26.31L76,4.44c1.89-.2,3.26.84,5.67.34l-.31-.2c.86,0,2.73-.17,2.59.07a.71.71,0,0,1,.62-.12l0,.16,2.1-.38c1.65,0-.22.65,2.19.49.9-.15,2.49-.73,2.15-.79s-.93,0-1-.16l.79-.17c.1-.48.64-1-1.34-1.13-.44.15-.89.29-1.33.42l-.46-.19,1.14-.11a2.28,2.28,0,0,0-1.51.22,1,1,0,0,0-.59-.2l-1.32.51c-.17-.17.59-.39-.32-.44-.62.24.62.38-.41.56-.67-.19-.48-.37-1.25-.17-.11-.11.05-.19.36-.25a12.4,12.4,0,0,0-2.17.34C81,3,79.33,3.31,79.4,2.86a6.27,6.27,0,0,1-1.85.33c1.17-.49-2.36-.09-2-.66-.87.45-3.09.08-4.63.26a.8.8,0,0,1,.39-.07,9,9,0,0,1-1.64-.36c-.13.39-1.47.4-2.2.61-1-.44.66-.43.35-.81,0,.32-1.84.22-1.5.5-.79-.28-.68-.15-1.08-.49-.17.48-.76,0-1.44.31-1.16-.3-.28-.47-1.57-.38C61.58,1.92,62.73,1.8,62.73,1.8ZM32.25,4.71h0l.62-.13Zm-2.52.51L30.82,5c.11.07,0,.19-.22.23C30.73,5.15,30.12,5.22,29.73,5.22Zm5.67.9c-.39.11-.53.08-.6,0L35.49,6l0,0A.33.33,0,0,1,35.4,6.12Z"/><path class="cls-2" d="M36.05,5.64l.16,0-.25,0-.12.11Z"/><path class="cls-2" d="M136.06,19.07l0,0A.34.34,0,0,1,136,19Z"/><polygon class="cls-2" points="1.31 24 1.38 24 1.33 23.77 1.31 24"/><path class="cls-2" d="M125.13,10.19a.37.37,0,0,0-.13-.14S125.06,10.13,125.13,10.19Z"/><path class="cls-2" d="M119.53,7.68l-.78-.39C119.08,7.47,119.33,7.58,119.53,7.68Z"/><path class="cls-2" d="M115.09,6.05a.5.5,0,0,0-.12.09h0Z"/><path class="cls-2" d="M128.33,53.91l-.17.05C127.75,54.1,128,54,128.33,53.91Z"/><path class="cls-2" d="M146.92,43.14c0,.25,0,.5-.06.76C147,43.5,147.07,43.19,146.92,43.14Z"/><path class="cls-2" d="M103.62,56.85h0Z"/><path class="cls-2" d="M146.48,44.91a3.73,3.73,0,0,0,.38-1A7.22,7.22,0,0,0,146.48,44.91Z"/><path class="cls-2" d="M95,2.5l-.23,0s0,0,0,0Z"/><path class="cls-2" d="M94.75,2.51H94.5C94.62,2.53,94.72,2.54,94.75,2.51Z"/><path class="cls-2" d="M94,2.55l.53,0A1.14,1.14,0,0,0,94,2.55Z"/><path class="cls-2" d="M101.19,3.26l.08-.1A.14.14,0,0,0,101.19,3.26Z"/><path class="cls-2" d="M103.07,3.48a7.94,7.94,0,0,0-1.73-.39l-.07.07C101.59,3.05,102.62,3.58,103.07,3.48Z"/><path class="cls-2" d="M110.57,6.14l-1.51-.41c.24.16.56.38-.14.25C110.78,6.72,108.57,5.66,110.57,6.14Z"/><path class="cls-2" d="M115.21,7.55c-.81-.21,0,.15-.09.19C115.65,7.81,115.78,7.82,115.21,7.55Z"/><path class="cls-2" d="M142.56,27.73l-.26.05C142.64,28.32,142.39,27.74,142.56,27.73Z"/><polygon class="cls-2" points="146.47 33.38 146.42 32.71 146.11 32.49 146.47 33.38"/><polygon class="cls-2" points="145.59 37.61 145.52 37.35 145.73 38.36 145.59 37.61"/><path class="cls-2" d="M96.72,54.43l.2.31C97.36,54.69,97.45,54.34,96.72,54.43Z"/><path class="cls-2" d="M71.21,53.41a2.21,2.21,0,0,0-1.43-.22A14.27,14.27,0,0,0,71.21,53.41Z"/><path class="cls-2" d="M4,30.68l.18.46c-.08-.29-.15-.59-.22-.89Z"/><g class="cls-3"><path class="cls-2" d="M66.51,28.86c0,.6.69,1.54,1.4.93-.12-.69-.22-1.38-.31-2.07Z"/><path class="cls-2" d="M73.47,29.87c.62-1.19,1.39-3.18.25-4.74-.52,2.14-1,1.45-1.35,3.94a1.16,1.16,0,0,1-1.77-.78c-.1.58-1.5.11-1.4,1.49a3.07,3.07,0,0,0,2.21.37,3.51,3.51,0,0,0,1.72-1.55C73.57,28.92,73.42,29.5,73.47,29.87Z"/><path class="cls-2" d="M66.65,20.75l.56.16A1,1,0,0,0,66.65,20.75Z"/><path class="cls-2" d="M67.65,39.65c-.38.08-.53.28-.54.46C67.46,40,67.75,39.82,67.65,39.65Z"/><path class="cls-2" d="M76.4,41.22c-.19,0-.35-.07-.52-.1C76.09,41.29,76.29,41.38,76.4,41.22Z"/><path class="cls-2" d="M66.65,20.75c-.48-.15-1-.29-1.43-.42C65.22,21,66,20.69,66.65,20.75Z"/><path class="cls-2" d="M84,23.16a1.91,1.91,0,0,0-.71.59,6.55,6.55,0,0,1,.69-.27C84,23.37,84,23.28,84,23.16Z"/><path class="cls-2" d="M88.69,17.15l.41,0a7.9,7.9,0,0,0,.29-.83Z"/><path class="cls-2" d="M105.6,16c-.39-.06-.45,1.64-.56,2.38.18-.71.45-1.05.78-1.2A4.4,4.4,0,0,0,105.6,16Z"/><path class="cls-2" d="M88.37,29.69l-.46.27C88,29.88,88.23,29.8,88.37,29.69Z"/><path class="cls-2" d="M76.47,17.64a1.82,1.82,0,0,0-.21-.58A1.36,1.36,0,0,0,76.47,17.64Z"/><path class="cls-2" d="M27.38,21.3a2.11,2.11,0,0,0-.06-.29C27.26,21.19,27.26,21.32,27.38,21.3Z"/><path class="cls-2" d="M7,18.32l.22-.18a8.57,8.57,0,0,0-.28-.9Z"/><path class="cls-2" d="M92.14,42.06l-.07,0C91.68,42.26,91.91,42.2,92.14,42.06Z"/><path class="cls-2" d="M19.57,26.52c.57-1.07,1.25-.05,2,.7a2.18,2.18,0,0,0,1.06.76c.34,0,.59-.19.85-.87-.31.11-1.19-.61-2-1.14S19.81,25.12,19.57,26.52Z"/><path class="cls-2" d="M84.51,23.34c.23,0,.47-.06.71-.07A1.46,1.46,0,0,0,84.51,23.34Z"/><path class="cls-2" d="M23.44,27.11h0l.08-.28Z"/><path class="cls-2" d="M130.11,23.26a3.24,3.24,0,0,0-.36,1.16C129.9,24.34,130.06,24,130.11,23.26Z"/><path class="cls-2" d="M101,37.88l.68.17A1.57,1.57,0,0,0,101,37.88Z"/><path class="cls-2" d="M116.32,14a6,6,0,0,0-.28-.57,1.47,1.47,0,0,0-.64-.51,1.55,1.55,0,0,0,0,.31.84.84,0,0,1,.51.17A1.16,1.16,0,0,1,116.32,14Z"/><path class="cls-2" d="M99.22,9.74a2.22,2.22,0,0,0,.28.33L100,10Z"/><path class="cls-2" d="M69.71,17.74A5.49,5.49,0,0,1,69,16.23C69.26,17.43,67.15,17.85,69.71,17.74Z"/><path class="cls-2" d="M84.13,24.11c.05-.43.16-.66.38-.77l-.49.14A.89.89,0,0,0,84.13,24.11Z"/><path class="cls-2" d="M106.7,23.22a1.29,1.29,0,0,0-.1-.41A.68.68,0,0,0,106.7,23.22Z"/><path class="cls-2" d="M118.5,34.15l.55-.2A.52.52,0,0,0,118.5,34.15Z"/><path class="cls-2" d="M104.28,22.93A3.4,3.4,0,0,0,103,21.79a1.42,1.42,0,0,0-.26.44Z"/><path class="cls-2" d="M69,16.21v0Z"/><path class="cls-2" d="M54.2,20.39c2.12,0,.94-2.2,1.36-3.48,2.55-.7,1.22,1.6,2.11,2.71,1.58-.61,2.79-2.66,4-2.59.1.37.33.5.06,1,1.69-1.78,5.06-.12,7.06-2.33a1.43,1.43,0,0,1,.26.55,8.5,8.5,0,0,1-.31-3c1,0,1.82-1.4,2.19.05-.6,0-.65.54-.93,1l1-.63c.92,2.09-1.4.72-1.4,2.27,2-.68,4.34-2.4,5.87-1.8.32,2-3.59.67-1.55,2.49l-2.37-.79c1.81,3.22-1.44-.22.22,3.22,3.12.6,3.5-1,6.63-.43.71-1.13-.23-1.68.47-2.81,4.45-2,3.53,5.13,6.82,2.39.85-1.37,1.14-3.94,3.51-2.61l-.77,2.31c3.09.18,1.69-3.33,5-1.86-.55.92-2.41.82-1.93,1.09,2.14,1.76,1.45-1.34,3.05-1.39l.4,2c3.32-.41,6.73-2.1,10-2.43-.19.6-.75,1.24,0,1.87a10.48,10.48,0,0,1,6,.36,11,11,0,0,1,4.36,2.89,20,20,0,0,1,1.81-1.07c.26.15.09.93-.34,1.1.72,1.16.6-1,1.47-1.25.71.29.29,1.36-.37,1.58a8.39,8.39,0,0,1,4.7,1.18,5.22,5.22,0,0,1,2.82,4l-.74-.07c.36,1,1.37.95,2.37,1s1.85.2,1.7,1.47l-.47-.16c.09.23.2.45.3.68l.14.35a1.27,1.27,0,0,1,.09.2c.07.21.2.46.3.69.23.47.48.94.7,1.42.42.93.75,2,.14,2.35-.23.14-.56.17-1.24,0,.85.59,1.08.95,1,1.09s-.51.08-.83,0c-.65-.08-1-.09.31,1.67a9.85,9.85,0,0,1-2.59-1.92c-.5-.52-1-1-1.5-1.56-.11-.09-.11.47-.24,1.08a2.7,2.7,0,0,1-.12.47,3.08,3.08,0,0,1-.38.43,2,2,0,0,1-.92.56V33.84l-2,1.89-1-2.23-1.38.45a1.46,1.46,0,0,1,1,1.38c-2.13.8-5.19-1.34-5.26-2.27-1.68.54-3.36,1.07-5,1.64.09-.74.92-1,1.58-1.51-2.64,2-.53-1.94-3-.14.35.41-.14,1.1-.19,1.48-1.25-1.08-4-1-6.05-.41l.33-1.3c-3.73-.15-7.73,1-11.8,1.26,1.49.5,1.29,2.73.11,3l-.59-1.92c-.7,1.25,1.29.66-.2,2.23-1.54-.13-1.16-2.15-.33-2.84l-1.8.79c-.14-.58.27-.91.34-1.66-.68,1.26-3.3-1.76-4.25.4l-.14-.58c-4,.22-5.79,1-9,1.2,0,1.69-1.28,1.37-2.2,2.75-2.42-.46-5.07-1.73-7.9-1.6-2,.83-.59,1.42-1.5,2.42-.14-1.52-3-1.46-1.47-2.52a40.26,40.26,0,0,0-8.53,1.11c.37.68.87,1,.55,1.49a1.36,1.36,0,0,1-1.45-1.54l.21-.13c-2.41.89-4.9-.67-6.78-2.27a25.33,25.33,0,0,0-2.61-2.09A2.9,2.9,0,0,0,40.55,32l.22-.06c-.58,0-1.17,0-1.76-.08-.29,0-.6-.05-.89-.1a3.75,3.75,0,0,0-.82-.08c-.23-.36.08-.48.41-.69a2,2,0,0,0,.86-1,1.49,1.49,0,0,1-1.39.17.88.88,0,0,1-.48-.64,2,2,0,0,0-.17-.67c-.12-.2-.4-.39-1.08-.71,1.4-.13,2.1-.15,2.4-.23s.18-.27.15-.51,0-.44.26-.46.68.15,1.17.8c-.21-.33-.43-.65-.65-1-.21-.49,0-.37.17-.08s.44.72.53.84c-.32-.79-.61-.88-.73-1.45a2.13,2.13,0,0,1,.34-.25,1.76,1.76,0,0,1,.2-.09l.1,0,.37-.08a26.29,26.29,0,0,1,3.1-.44A48.34,48.34,0,0,1,49.24,25c4.3.18,8.64.7,12.87.87,3.08,0,1.34-5.64,5.42-3.38l-1,2.06c6.09-2.8,12.77-.64,18.85-2.87-.35.47-.34,1.07-.94,1.08,1.35,1.39,4.81-.09,4.81-1.26,1,.11.25,1.06.86,1.64,1.33.8,3.24-1.93,4-.52.13.23-.35.48-.59.59.84-.72,4,.08,3.13-1.56,2.34.74,4.43-.85,6.32.1.58-.94,1.59-.74,2.49-.63l.44.05a.28.28,0,0,0,.18-.1,3.2,3.2,0,0,0,.36-1.11c-.17,1.2,0,1.77.14,2s.69,0,1.37-.32a1.66,1.66,0,0,0-.49.74,3,3,0,0,1-.73.84s.18.16.29.24a3.83,3.83,0,0,0,.42.32,4.76,4.76,0,0,0,1,.53c.69.27,1.32.23,1.68-.4a4.19,4.19,0,0,0,2,3.06,7.36,7.36,0,0,0,3.11,1.13,4,4,0,0,1,1.77.42.62.62,0,0,1,.2.58,1.68,1.68,0,0,1-.14.46l-.13.28-.08.15h0c.28-.42-.65.92.64-.93h0v0c-.17.23,0-.08.54-.48a5.78,5.78,0,0,1,1.81-1,2.34,2.34,0,0,1,.85-.14h0l-.27-.07h.07l.1,0h0a1.11,1.11,0,0,1-.12-.08,1.31,1.31,0,0,1-.24-.21,5.38,5.38,0,0,1-.72-.88c-.1-.17-.3-.45-.42-.69l-.1-.19,0-.08h0v0c0,.13-.18.32-.44.49a6.13,6.13,0,0,1-1,.47,6.23,6.23,0,0,1-.64.19l-.83.2a1.29,1.29,0,0,1,.74-1.3,4.15,4.15,0,0,1,1.08-.41c.34-.1.57-.21.61-.45s-.26-.88-.13-.6l-.19-.49a.73.73,0,1,0,0-.08,0,0,0,0,1,0,0v.12a1.26,1.26,0,0,1-.14.29,4.2,4.2,0,0,1-.59.64,9.45,9.45,0,0,1-2.15,1.26,10.26,10.26,0,0,1-5.4,1.19c-1.12-.28.53-1.22.85-1.72-4.15,1.48-8.24.46-11.9,2.25,0-.25.37-.56.74-.8-.74.15-1.77-.25-1.58,1l.7-.39c1.34,1.67-2.65,4-2.7,4.91,1-3.62-3.81-.56-2.18-5.17a1.65,1.65,0,0,0-.86,1.72c-.75-.18-1-.64-.36-1.63-2.61.89-1.55,2.11-4,2.29,0-.59.43-.86.62-1.58C88,29.06,86.88,30.32,84.79,30c.1-.37-.18-.81.43-.85-3.5.47-5.73,3.59-9.66,2.79.92-2.67-1.38-.75-1.75-3l-2,.83.9,1c-1.8.09-3.28,1.84-4.87,1.2l1.27-1-3.33.63,2,.74c-1.76,1.26.36,2.82-2.08,2.33.48-.25-1.82.08-2.82-1.2h0c-.86.75-1.76,1.54-3.11,1-.37-.7.2-2.48,0-2.95-.82,1.9-4.15.61-5.25,2.59a2.7,2.7,0,0,0,.26-1.88L54,33.79c-.83-.49-.95-.73-.81-1.66-2.45-.31.72,2.86-2.14,1.58.22-.12.13-.35.59-.57a18.07,18.07,0,0,0-3.12-.32,1.59,1.59,0,0,1-.89-.36c-.21-.19-.23-.42,0-.48l.23,0a1.06,1.06,0,0,0,.28-.07c.33-.12.77-.43.44-.21a1.93,1.93,0,0,1-.73.28h0c.18,0-.39,0,.4,0h-.25s-.06,0,0,0a.4.4,0,0,1,.13,0,1.13,1.13,0,0,1,.27.13,4,4,0,0,1,.35.21l.18.14.12.08h0a.12.12,0,0,1-.06-.1,1,1,0,0,1,.2-.69,4.47,4.47,0,0,1,1.69-1.5,7.7,7.7,0,0,1,1.29-.52,8.55,8.55,0,0,1,1.4-.31l-.74-.05c-.18-1.6.62-1.43,1.62-1.05s2.2.89,3,0c-.4.34-.19,1.86-.15,1.49,2.59-.09,4.93-1.87,8.69-3.48l-.36.88c1.62.48,4-.16,5.74,0,.38-.87,1.35-.85.64-2,2.81,2,5.14,1.17,7.47.27s4.6-1.89,7-.09c-.54,0-1.26.8-.82.77l3.86-1c-.38-1.37-.56-.82-1.44-1.84a3.23,3.23,0,0,1,2.49-1.61c-1.71,1,.14,2.23,1,3-.15-.42.08-.9,0-1.33,2.19,2.35.2-2.81,3.09-1.29l-.11.73c1-.42,1.95-1.43,3.1-1.28.55,1.58-1.08.8-1.09,2.12,1.58-.17,3-3.18,4.5-1.66-.65.48-1.62.54-2.27,1,1.65,1.81,1.81,1.32,3,1.56l-.12,0,2.72.72-.7-.47c.9-2.14,1.9-2.38,3-2.45a8.52,8.52,0,0,0,1.14,0c.09,0,.1-.17.27-.23a.69.69,0,0,1,.78.13c-.61-.53-1.25.31-.92,0h0l-.19.17h0l.07-.07s.16-.11.18-.13a.33.33,0,0,1,.08,0s0,0,0,0h-.17a1.06,1.06,0,0,1-.31-.05,1.79,1.79,0,0,1-.37-.12c-.52-.21-.84-.45-.58-.29a6.84,6.84,0,0,1-1.36-1.06,2.28,2.28,0,0,1-.22-.22l-.1-.11,0,0-.1-.12c-.15-.2.09.11.38.75l0,.12,0,.06,0,0c-.88-2.09-.25-.58-.44-1.05h0l-.09.09a1.34,1.34,0,0,0-.16.23,2.94,2.94,0,0,0-.28.74c-.27-.52-1.1.35-1.34-1.13-1.15.86.62.88.75,1.59a1.91,1.91,0,0,1-1.59,1,7.86,7.86,0,0,1-2.18-.12,9.21,9.21,0,0,0-2.35-.07,4.24,4.24,0,0,0-2.37,1.25C92.23,25,91.75,27,88.91,28.19c-1.06-.87.66-2.18.66-2.18a4.3,4.3,0,0,0-4.31.27c.26-.53-.08-.94-.6-1.56-1.23.27-.64,2.2-2.34,1.49a7.91,7.91,0,0,1,1-2.46c-1.43.67-2.78,1.93-4.21,2.68-.57-.95.7-1.68,1.17-2.39-1.7.64-4.46,1.66-4.6,3.38l1.2.32c-.59.21-.61-1.28-.19-1.68,1.27-1.52,2.25.18,2.41.75l-1,.55c.85,1.6,1.84,1.27,3,.6s2.35-1.75,3.44-1.75l-.67,2.57c.65-.76,1.32-1.51,2-2.25.52.61.93,2-.08,2.43,1.59,1.12,1.27-1,2.66.3.16.2.1.33,0,.43l1.42-.84c-.25.55.36,1.74-.57,1.45,2.77,1.26,4.16-2.19,5.33-.4l-.21.17c3.65-1.24.2-1.86,2.66-4.3q1.2,2.1,2.55,4.17l.06-1.86c.39,0,1.18,0,1.18.72,1.19-1.54-.39-.73.18-2.07,1.09.66,2.3.1,3.35-.24s1.94-.61,2.69.68c.12-1.53-2.08-.38-.56-2,.45.66.73,1,1.13.9a1.44,1.44,0,0,0,1-.76c.26-.41.46-.88.71-1.32a9.35,9.35,0,0,1,1.07-1.42,1.41,1.41,0,0,1,.46,1.15,3.57,3.57,0,0,1-.19.95c-.06.21-.06.34.14.33a2.5,2.5,0,0,0,1.39-.87,17.47,17.47,0,0,1-.67-2.78,5.34,5.34,0,0,0-1.8-2.83,8.1,8.1,0,0,0-2.46-1.25c-.68-.19-1-.27-1.36-.13,0,2.18-3,1.06-5.36,1.9.12-.73-4.51-1-6.75-1.65l0-.37c-.31,2.22-2.59,1.93-4.22,2.48A2.52,2.52,0,0,1,90.65,17l-1.55.1a2.49,2.49,0,0,1-1.79,1.43l.3-1.67c-2.08.22-4.06,2.19-6.82,1.29,0,1.54,2.42,4.11-.3,5.34-.16-.82-.38-2.23.33-2.62-.23.12-.8.75-1.32.44l1-1.48C79.26,19.33,80,21.07,79,21c-.08-1.19-.79-.79-.73-1.74.24-.13.89.42,1.23-.07a4.37,4.37,0,0,1-3-1.57c.16.66.14,1.59-.65,1.82-2.08.28-.85-1.36-2.14-1.84-.42.87-1.85.17-1.69,1.93-.61.06-.82-.75-1.11-1.2-1,.89-5.06.88-3.58,2.58l.3.09s-.11.05-.17.1h0c-1.64,1.11-3.48,1.14-5.36,1.1s-3.81-.18-5.46.58l-.13-.58c-1.93,1.11-4.53,1.51-5.63,3.16-.59.16-1.74-.63-1.68-1.38-.85.5-1.23.95-1.78,1.3a14,14,0,0,1-2.81,1.09c.62-1.09.36-1.15.23-1.18s-.08,0,.1-.08.53-.28,1.2-.58A9.23,9.23,0,0,0,42.78,26a4.36,4.36,0,0,0-1.25,1.65,5.57,5.57,0,0,0-.42,3.09c-.3-.47-.59-.57-.89-.31a2.77,2.77,0,0,0-.68,1.65,5.78,5.78,0,0,0,.29,2.64A5.1,5.1,0,0,0,41,36.64a8.64,8.64,0,0,1-.25-3.51,9.75,9.75,0,0,0,1.39,3.06A10.26,10.26,0,0,0,44,38.26a10.88,10.88,0,0,1-2.1.86,7.06,7.06,0,0,0,2.6,2.36,7.27,7.27,0,0,0,2.79.85,8.55,8.55,0,0,0,4-.65c1.92-.8,3.54-1.42,5.24.59,1.13-1.4-2.37-1-1.35-2.6,2,.26,4.11,3.07,4.74,3.06,2.79,1,2.44-3,5.3-2.38A2.26,2.26,0,0,1,66.44,37c2,.15,2.58,2.84,1.38,3.49-.47.09-.71-.13-.71-.37-.62.3-1.44.65-.61,1.37l.21-.72c1,.67,3.73.42,3.17,1.62,1.45-.78.56-1.21-.56-1.5,2.59.86,3.93-.24,6.56.24-.44-.36-.88-1.16-.47-1.18,3.84.57,1.55-1.48,4.07-2,1.54,1-.3,2.63,2.18,1.51,1.63.6.49,1.85-.08,2.48,2.22-1.56,4.43.53,5.78.67l-1.18.68a4.1,4.1,0,0,1,1.92-.5l-.82-1.36c.74.19,1.35.14,1.39.74.66-1-.77-2.32.59-3.71,1,.64,2.86-1,3.35.83-3.07-.38.5,1.86-2,2.38a2.44,2.44,0,0,1,1.82-.12c.12.2-.07.4-.26.53,3,1.43,1.15-2.25,4.15-2.46-.29,1.1.86,2,1.33,1.69-1.21.08-.73-1.72.31-2.63,2,.66,2-.79,3-.78l-1.18-.29c.3-1.1,1.27-1,2.58-1.49.18.82-1.17.67-.66,1,1.33-2,3.52,1.64,5.49.21,1,.64.26,2,1.14,2.4,2.21-1.57,2.64,1.24,5-.1-.82-1.37-.91-1,.69-2.55l-3.93,1.35,2.4-2.3c-1.21.09-2.48,1.12-3.23.94,1.13-1.27,1-.91.36-2,1.83,2,3.17-1.53,5.21-.24l.24,3.53a3.29,3.29,0,0,0,2.11.22,14.06,14.06,0,0,0,2.4-.86c.91-.42,1.87-.91,3-1.49.59-.32,1.22-.62,2-1.06A13.62,13.62,0,0,0,127,33.34a8,8,0,0,1-2.46,1.24c0-.87.92-1.43,1.9-2.61a5.69,5.69,0,0,0,1.44-4.35c.59.14,1-.23,1.31-.9a10.59,10.59,0,0,0,.55-2.3c-.38.2-.91-1.49-1.93-2.6s-2.33-1.84-3.29-1.1c-.16-.48-.42-1-.61-1.44s-.41-.88-.62-1.3a3,3,0,0,0-3.63-.3c-1,.45-1.92,1-2.71-.05a3,3,0,0,0,1.33-1,2.19,2.19,0,0,1,1.39-.64c-.32-.25-.64-.87-1.22-.29.11-.4-.56-.53-1.31-.81a3.78,3.78,0,0,1-1.06-.54,1,1,0,0,1-.21-.2,1.44,1.44,0,0,1-.22-.27,1.38,1.38,0,0,1-.23-.59c-.81,0-1.67.8-2.76-.12a.66.66,0,0,1,.31-.49c-.16.25-.73.08-1.21.16s-.82.3-.64,1.16A3.38,3.38,0,0,0,109.8,12a5.4,5.4,0,0,0-3.06-.89c-1.26,0-2,.11-2.85.16-1.69.13-3.27.09-4.39-1.22a53.71,53.71,0,0,1-6.6,1c.11-.35,0-.59.36-.47-2.7-1-1.55,3.44-4.61,2.3-1.61-1.87,1.58-1.09.59-1.78-.54-3.89-3.64.64-5.76-1.56L84,9.35C82.35,8.07,80.2,11,77.63,10.79a.91.91,0,0,0,0-.58c-1.66,2.06-4.93,2.87-7.35,3.57.68-1.56,1.07-.87.52-2.39-1.09.29.46,2.47-1.7,3-.77-.8-2.4-1.42-2.72-3.06l2.08-.22c-1.2-2.08-2.69.25-3.81-.05l.07-.94c-3.18.52-3,2.9-6.47,3l.42.67c-1.66,2.49-1.68-1.16-3.38.74l-.79-2.31c-1.19.67-4.09,2.73-6.23,3.42,1-1.9,3.53-3.06,5-4.27-1.23.11-4.16.62-4.67,1.85.47-.28,1-.92,1.56-.61a7.23,7.23,0,0,1-5.57,3.41c-.08-2.31-1.71-2.38-3.59-2.27a18.38,18.38,0,0,1-2.87,0c-.24,0-.43-.07-.69-.12a8.68,8.68,0,0,1-.94-.19,4.87,4.87,0,0,1-1.68-.78,22.42,22.42,0,0,1-2.44.88c-.81.24-1.48.57-2.27.78a49.26,49.26,0,0,1-4.91,1.17,9.41,9.41,0,0,0-3.95,2.38,7.72,7.72,0,0,0-2,4.77c1.91-.72,1.84-.16,1.83.54s.11,1.7,2,1.87c.43,1.41.62,1.88.37,2a14.13,14.13,0,0,0-.55,4.46c-.53,1.33-1.6-1.33-2.35-1.12.67,1.84.5,2.32.16,2.68s-.89.56-.6,2.07c.47-.48,1.17-.29,1.84.27a9.21,9.21,0,0,1,2,2.62,20.56,20.56,0,0,1-.53-3.53A8.05,8.05,0,0,1,25.72,37a6.43,6.43,0,0,1,.68,2.11,5.43,5.43,0,0,0,1,2.18A5.18,5.18,0,0,0,30.21,43a7.56,7.56,0,0,1-2-.08c.42.25.79.41,1.15.62l1.21.68a22,22,0,0,0,2.88,1.4c2,.81,4.3,1.11,5.78.09.21.52.38,1.64-.65,1.56,2.47,1.15,5.55,1.15,8.23,1s5.08-.33,6.84.73l-.43.86c.92-.18,1.66-1.56,2.69-.59-.08.36-.4.87,0,1,.49-.28,2.38-1.45,3.48-.91l-1,1c4.46,1.31,6.89-2.3,10.52-3,0,2.66,3.51,3.44,5.26,3.8l0,.38c5.15.14,8.55-2.58,13.12-3.88,3.06,2.69,9.8.59,14.41,2-.72-.45,0-2.06.8-2.37,1.09.48,2.87-2,2.8.46l-.38,0c.9,2.35,3,1.62,4.73,1.65l.19-3.18c2.29,2.24,5.15,1.77,7.78,1.32s5.07-.93,6.3,1.15c.14-.09.29-.17.44-.25a3.91,3.91,0,0,1,.68-.19c.52-.12,1-.21,1.54-.3a9.44,9.44,0,0,0,2.75-.81l.38,1.7a39.8,39.8,0,0,0,6.94-.13,10.51,10.51,0,0,0,5.8-2.46c.07.46.18,1,.21,1.45,1.21-.79.77-2.14.32-3.46-.24-.66-.47-1.33-.65-2a8.77,8.77,0,0,1-.41-1.81c.79.21,1.62.4,2.48.58l.05-.32c0-.56.13-1.11.23-1.65s0-1.22,0-1.84a13.66,13.66,0,0,0-.49-4,22.09,22.09,0,0,0-1.54-4.31,15.45,15.45,0,0,0-2.9-3.86,1.48,1.48,0,0,1,1.72.74l-.54-1.29-.75-1.68a13.35,13.35,0,0,0-1.15-2.3c-.9-1.4-2.08-2.18-3.26-.86.92-.68.31-1.64-.87-2.53a12,12,0,0,0-2-1.21,19.23,19.23,0,0,0-2-.88l1.45-.92c-1.49,0-2.31.19-3.06.13a6.12,6.12,0,0,1-2.69-.85c-.38-.54.36-1.41.78-.54a1.53,1.53,0,0,0-1.78-.88,2.13,2.13,0,0,1-2.11-1c.46-.14.92-.28,1.39-.4-1.84-1.31-2-.69-3.64-.13a2.57,2.57,0,0,1-1.17-.35,4.67,4.67,0,0,1-1.14-.83,3.29,3.29,0,0,1-1.16-2.32c-.59.77-2,1.61-3.15.93,0-.6.49-.84.76-1a5.47,5.47,0,0,0-4.34-.43c-1.22.29-2.23.56-3.37-.32a1.29,1.29,0,0,0-.36-1,17.22,17.22,0,0,1,4.86.7c.26-1.54-2.17-2.11,0-4-1.09.44-2.51,1.23-3.86,1.83a5.35,5.35,0,0,1-3.73.66,1.88,1.88,0,0,1-.29-.53l.23-.18a1.6,1.6,0,0,0-1.36.26,4.93,4.93,0,0,0-1.76-.43c-.28-1.27-2.48-.61-3.49-.63.15,1.68-1.2,1.46.11,2.8-.17-.11.19-.21.87-.3a1.3,1.3,0,0,0,.43-.19l-.06.15c.68-.08,1.57-.14,2.61-.19C101,6,100.15,6.7,99,5.81c-.49,1.1-1,2.23-1.32,2.77-1.5-2.29-4.18-3.48-4.59-4.92-3,1-7.21.75-9.15,3.92-.88.42-1-.9-1.35-1.4.51-.32,1.12-.27,1.39-.73-1.76.83-5.23.33-5.65,2.54-2.23-1,1.25-2-1.81-1.68l.41-.67c-6-3.55-9.83,5.6-16.59,1.13.47.27.7.4.8.77-3.85-1-7.84-.4-11.8.1s-7.87,1-11.87-.22c-2.26-.41-2.35,1-3.53,2.26l-.7-1.74-2,2.38c-1.48,1-3,.1-4.68-.55s-3.45-1.11-5.17.75l.77,1.07c-1.5.07-4.37,1.76-4.48.34-.09.26-.15,1.34-.87.88l-.28-.9c-1,.85-2.07,1.67-3.07,2.55-1.43.07-1.62-.85-1.93-1.68s-.76-1.55-2.81-.95c-1.41.84-3.25,4.11-2.47,4.49a1.78,1.78,0,0,1,2,.88l-1.12.94c.73,2.71.91,5.69,4.48,6.46.49-.79,1-1.54,1.52-2.32l1.08,1.06-1.7.66c1.39.89,1.63-.4,2.12-1.35A2.34,2.34,0,0,0,16,23.81c.41-1,.85-2.12,1.32-3.16.54,1-.34,2.34,1.2,2.54.64-1.46-1.59-2.1-.18-3.33,1.36.94,1.3,2,2.25.69a1.26,1.26,0,0,1-.2,1.58c.85-1.11,2.72-1,3-2.59,1.39,1.27,3.61-1.14,4,1.47a5.51,5.51,0,0,1,2.56-2.66c-1.35,3.41,3.82-.41,3.81,3,1-3,4.76-1.87,7.06-3.66-.12.24-.35.72-.58.6,1.41.1,1.89.93,2.81,1.39,0-2.36,2.13-3.05,3.23-4.57,1.85,2.17-.88,2.81-.2,5-.21-1.9,2.85-2.07,2.19-3.62,1.38,1.33,1.17.63,1.93,2.54.1-2.95,1.2-.56,2.23-2.4,2,1.39.58,2.73,2.65,1.78C56,19.3,54.2,20.39,54.2,20.39ZM105,14.69v0l-1,.09Zm3.93.16a9.83,9.83,0,0,0-1.68-.18c-.11-.59.07-1.18.47-1.13C107.47,13.91,108.38,14.32,108.91,14.85ZM100,3.05c.7-.26.94.07,1,.41a9.6,9.6,0,0,0-1.23.24c0,.06,0,.14-.07.21A2.56,2.56,0,0,1,100,3.05Z"/><path class="cls-2" d="M98.83,5.31c-.1,0-.15.11-.28.13a3.48,3.48,0,0,0,.42.37l.23-.54Z"/><path class="cls-2" d="M67.3,20.93l-.09,0a.73.73,0,0,1,.22.21A1.07,1.07,0,0,1,67.3,20.93Z"/><polygon class="cls-2" points="123.39 33.41 123.38 33.84 123.76 33.48 123.39 33.41"/><path class="cls-2" d="M91.4,24.69a.83.83,0,0,0,.33.41A1,1,0,0,0,91.4,24.69Z"/><path class="cls-2" d="M101.6,24.55l1.46.53A6.51,6.51,0,0,0,101.6,24.55Z"/><path class="cls-2" d="M107.86,22.08l.07,0h0Z"/><path class="cls-2" d="M99.48,26.68a1,1,0,0,0,.3-.1C100.46,26.19,100,26.36,99.48,26.68Z"/><path class="cls-2" d="M62.85,33.49A6.37,6.37,0,0,1,64,32.64C63.33,32.54,62.82,32.53,62.85,33.49Z"/><path class="cls-2" d="M106.7,23.25l0,0s0,0,0,0Z"/><path class="cls-2" d="M65.7,32.58a1.82,1.82,0,0,0-1.71.06A2.71,2.71,0,0,0,65.7,32.58Z"/><path class="cls-2" d="M76.52,24l-.43,0a.53.53,0,0,1,0,.28Z"/><path class="cls-2" d="M76.09,24.3l-.42.29C75.88,24.55,76.06,24.49,76.09,24.3Z"/><path class="cls-2" d="M74.8,25.23l.87-.64C75.33,24.67,74.9,24.71,74.8,25.23Z"/><path class="cls-2" d="M87.55,23.52l.08-.61A1.57,1.57,0,0,0,87.55,23.52Z"/><path class="cls-2" d="M90.67,23.13c-.73-.08-1.94-1.17-3-.72l-.06.5C88.06,22,90.06,24.21,90.67,23.13Z"/><path class="cls-2" d="M104.88,28.49c-1,.09-1.93.25-2.88.27.62.53,1.5,1.24.24,1.67,1,.29,1.46.3,1.61.22s0-.29-.16-.54C103.37,29.6,103,28.88,104.88,28.49Z"/><path class="cls-2" d="M110,17.36a11.27,11.27,0,0,1,1.93,1.1c.24.12.24-.09.08-.43a5.2,5.2,0,0,0-.81-1.14c-.31-.34-.53-.56-.43-.61a4.72,4.72,0,0,0-1.88-.26c-.39,0-.57.1-.63.18s0,.19.3.34S109.24,16.88,110,17.36Z"/><path class="cls-2" d="M48.29,23.66,48,22.15C46.66,22.85,48.16,22.71,48.29,23.66Z"/><path class="cls-2" d="M48.94,31.73a3,3,0,0,1,.18-.45,2.39,2.39,0,0,1,.13-.21l.07-.09,0,0-.37.38-.53.47A2.61,2.61,0,0,0,48.94,31.73Z"/><polygon class="cls-2" points="53.48 43.07 52.98 43.29 54.89 42.74 53.48 43.07"/><path class="cls-2" d="M101.76,8.19l.38,1.88C102.87,9.72,103,7.59,101.76,8.19Z"/><path class="cls-2" d="M58.54,12.06c-.55-.91-1.83-1.4-2.5-.4C57,11.7,58.07,12.33,58.54,12.06Z"/><polygon class="cls-2" points="111.93 48.49 111.1 49.15 112.67 48.59 111.93 48.49"/></g></g></g></svg>