<svg xmlns="http://www.w3.org/2000/svg" viewBox="0 0 72.41 35.42"><defs><style>.cls-1{fill:#202020;}</style></defs><g id="Слой_2" data-name="Слой 2"><g id="Слой_1-2" data-name="Слой 1"><path class="cls-1" d="M72.4,19.39c0-.26,0-.84-.1-.73l0,1Z" transform="translate(0 -0.72)"/><path class="cls-1" d="M71.7,17.55a7.26,7.26,0,0,0-.15,2.24c.1-.95.14-.56.25-1.69.1-.12.18.32.17.68,0-.25.16.22.2-.4-.14-.77-.31-.8-.47-.17A2.91,2.91,0,0,1,71.7,17.55Z" transform="translate(0 -0.72)"/><path class="cls-1" d="M61.85,16l.07.12A.22.22,0,0,0,61.85,16Z" transform="translate(0 -0.72)"/><path class="cls-1" d="M55.76,15.47c.05,0,.07-.12.07-.21A.33.33,0,0,0,55.76,15.47Z" transform="translate(0 -0.72)"/><path class="cls-1" d="M54.72,14.38l.06.07C54.75,14.36,54.73,14.31,54.72,14.38Z" transform="translate(0 -0.72)"/><path class="cls-1" d="M61.85,16l-.16-.31C61.68,16,61.77,15.94,61.85,16Z" transform="translate(0 -0.72)"/><path class="cls-1" d="M70.37,20a.76.76,0,0,0,.09-.26l-.08.1Z" transform="translate(0 -0.72)"/><path class="cls-1" d="M64.53,15.2h0l0-.4Z" transform="translate(0 -0.72)"/><path class="cls-1" d="M66.58,15.05a8.56,8.56,0,0,0-.06,1.18,1.57,1.57,0,0,1,.09-.58C66.61,15.49,66.6,15.3,66.58,15.05Z" transform="translate(0 -0.72)"/><path class="cls-1" d="M69.87,16.53l0-.12S69.88,16.48,69.87,16.53Z" transform="translate(0 -0.72)"/><path class="cls-1" d="M63.05,15a2.23,2.23,0,0,0,0-.3A2.66,2.66,0,0,0,63.05,15Z" transform="translate(0 -0.72)"/><path class="cls-1" d="M5.42,21.42v-.15C5.41,21.35,5.4,21.41,5.42,21.42Z" transform="translate(0 -0.72)"/><path class="cls-1" d="M3.08,17.24l0,0v-.47Z" transform="translate(0 -0.72)"/><path class="cls-1" d="M52.81,13.3v0C52.87,13.22,52.84,13.24,52.81,13.3Z" transform="translate(0 -0.72)"/><path class="cls-1" d="M35.37,13.94c.2.75-.32,1,0,1.81C35.32,15.42,35.62,14.43,35.37,13.94Z" transform="translate(0 -0.72)"/><path class="cls-1" d="M70.32,19.84h-.09S70.3,19.87,70.32,19.84Z" transform="translate(0 -0.72)"/><path class="cls-1" d="M35.35,15.75h0l0,.08Z" transform="translate(0 -0.72)"/><path class="cls-1" d="M48.43,13.81a3,3,0,0,0,0,.37A1.7,1.7,0,0,0,48.43,13.81Z" transform="translate(0 -0.72)"/><path class="cls-1" d="M51.7,15l-.08-.11A.21.21,0,0,0,51.7,15Z" transform="translate(0 -0.72)"/><path class="cls-1" d="M46.75,15c0-.06-.06-.18-.12-.06l0,.1C46.67,14.92,46.7,14.87,46.75,15Z" transform="translate(0 -0.72)"/><path class="cls-1" d="M45,15l0,.17,0,0Z" transform="translate(0 -0.72)"/><path class="cls-1" d="M10.79,21c0-.24-.06-.5-.07-.76C10.74,20.85,10.48,21.06,10.79,21Z" transform="translate(0 -0.72)"/><path class="cls-1" d="M70.37,19.47a1,1,0,0,1-.05.37l.06-.05A3,3,0,0,0,70.37,19.47Z" transform="translate(0 -0.72)"/><path class="cls-1" d="M46.7,21.66l-.28-.13A.41.41,0,0,0,46.7,21.66Z" transform="translate(0 -0.72)"/><path class="cls-1" d="M23.47,20.87l-.06.11S23.45,21,23.47,20.87Z" transform="translate(0 -0.72)"/><path class="cls-1" d="M45.59,21.66a2.27,2.27,0,0,0-.16-.58c0,.06,0,.12,0,.21Z" transform="translate(0 -0.72)"/><path class="cls-1" d="M10.72,20.24h0Z" transform="translate(0 -0.72)"/><path class="cls-1" d="M8.85,22.25c.27,0,.14-1.09.2-1.73.32-.31.14.82.24,1.39.2-.3.37-1.31.51-1.27a1.87,1.87,0,0,1,0,.48c.22-.89.62-.05.88-1.15,0,.09,0,.19,0,.27,0-.56,0-1.12,0-1.52.12,0,.23-.7.27,0-.07,0-.08.27-.12.5l.13-.31c.11,1-.17.36-.18,1.13.25-.34.54-1.2.73-.91,0,1-.45.34-.2,1.25L11,20c.21,1.61-.18-.11,0,1.61.38.29.43-.52.81-.23.09-.56,0-.83.07-1.4.55-1,.41,2.56.82,1.2.11-.67.16-2,.44-1.28l-.11,1.15c.37.11.22-1.66.61-.88-.08.45-.3.38-.24.52.24.91.18-.66.37-.66l0,1c.4-.16.84-.89,1.28-1.08a2.24,2.24,0,0,0,0,.93c.56-.51,1.18.13,1.7.73l.21-.88a1,1,0,0,1,0,.57c.2.33,0-.56.11-.91.12-.06.15.51.08.78.37-.75,1.05-1.61,1.43-.67l-.08.26c.3.36.35-1.8.62-1l0,.15c.65.38,1.37-.42,1.86.9.1-1.26.64.57.69-1.2.37.88.26,1.19.78,1.78.14.08.21-1.1.39-1.29v.93l.23-1,.12,1.1.17-.23a1.36,1.36,0,0,1-.13-.69c.26-.41.62.65.62,1.12l.6-.78a1.94,1.94,0,0,1-.19.74c.32-.95.05,1,.35.1a3.48,3.48,0,0,1,0-.73c.14.56.47.56.72.32l-.05.64c.44.16.94-.3,1.44-.29a2.34,2.34,0,0,1,0-1.51l.06,1c.09-.6-.16-.36,0-1.1.19.11.12,1.11,0,1.43l.23-.34c0,.29,0,.44-.06.81.1-.6.39,1,.53-.07v.29c.5,0,.73-.33,1.13-.38,0-.84.17-.65.29-1.33.3.26.63.93,1,.85.25-.42.07-.71.19-1.21,0,.77.38.69.19,1.25.43-.13.55-.16,1.1-.78a1.87,1.87,0,0,1-.09-.71c.09-.13.22.32.21.69l0,.08c.61-1.16,1.41,2.23,1.9.63l0,.08.51-.83c.23.13-.14.57,0,1.05.54-1.28.86.18,1.31-.67.35,2.27,1.23-.16,1.7,1.29l0-.54c.12-.52.14.31.23.43,0-.42-.13-.48-.06-.77,1-.64,2.13.78,3.18,1.26.39.14.21-2.76.7-1.49l-.13,1c.77-1.19,1.59,0,2.34-1,0,.23,0,.53-.12.52.17.72.6,0,.6-.55.12.07,0,.53.1.83s.4-.92.49-.2a.5.5,0,0,1-.07.29c.1-.35.49.08.38-.75.29.4.55-.37.78.13.14-.93.49.44.53-.87,0,1.36.51,1.09.68.45,0,.41.16.43.1,1,.2,0,.39-.27.35-1,.39,1.62.76-1.31,1,.77a6.67,6.67,0,0,1,1.72-1.54c0,1.35-.61.13-.57,1.56.51-.56.81-1.72,1.33-1.4.13.19-.07.59-.12.82.52-.56,1,.12,1.47-.62a1.06,1.06,0,0,1-.09.37c.09,0,.21.2.2-.41l-.09.16a8.25,8.25,0,0,1,.36-2.33c-.14,1.76.46.44.23,2.67a2,2,0,0,0,.12-.82c.09.12.12.36,0,.82.33-.33.2-1,.5-1,0,.3-.06.41-.08.76.14-.58.29-1.16.54-.91,0,.18,0,.42-.06.41.43-.09.73-1.55,1.2-1-.13,1.3.17.43.2,1.55l.25-.33-.1-.55c.22,0,.41-.79.6-.43l-.16.46.42-.21-.24-.42c.22-.58,0-1.42.26-1.11-.06.11.22,0,.34.67h0c.11-.36.22-.74.39-.46s0,1.24,0,1.48c.1-.94.52-.26.65-1.26a5.09,5.09,0,0,0,0,.94l.08-.76a1.56,1.56,0,0,1,.11.83c.31.14-.11-1.42.26-.81a1.74,1.74,0,0,1-.07.3c.37.31.71-.49,1.05-.11.11,1.12-.29.27-.17,1.22.49-.2,1-1.35,1.48-1.08L60,18.84c0-1.59.36.79.59,0a3.79,3.79,0,0,0-.05.7c.33.26.66-.39,1.15-.89l-.06.41c.19.36.51.21.71.39.06-.4.18-.34.1-.93.66,2.33,1.2-1.25,1.79.69-.07,0-.16.36-.1.36l.47-.38a3.31,3.31,0,0,0-.17-1c0-.41.19-.73.31-.73a2.46,2.46,0,0,0,.11,1.5c0-.21,0-.45,0-.66.27,1.23,0-1.4.38-.57l0,.37c.13-.19.24-.67.38-.57.07.81-.13.38-.13,1,.19,0,.37-1.52.55-.72-.08.22-.2.23-.28.45.21.94.23.7.37.85v0l.33.42-.09-.25c.22-2.09.49-.38.81-1.75-.31,1.29,0,.75-.06,1.65a1.78,1.78,0,0,1,.18.79c.15-.73.27.58.48-.49,0,.29.16,0,.14.76.19-.23-.06-.51,0-.87.3-1,.75,1.21,1.18-.16.38-.57.44-1.56.79-2a2.21,2.21,0,0,1-.09,1.07c.2.43.35.35.53,0a2.25,2.25,0,0,0,.07.79c.14-.07.08-1.06.28-.63a11.82,11.82,0,0,1-.13,1.18c.17-.27.33-.82.51-1.08a3,3,0,0,1-.16,1.1,1.7,1.7,0,0,0,.57-1.27l-.13-.28c.07,0,0,.69,0,.84-.16.63-.25-.28-.27-.58l.13-.19c-.15-1.71-.51.28-.77.18l.09-1.25-.25,1a2.56,2.56,0,0,1,0-1.21c-.2-.62-.16.44-.33-.24a.37.37,0,0,1,0-.22l-.18.37c0-.26,0-.88.07-.7-.33-.72-.51.94-.64,0l0-.07c-.44.42,0,.91-.35,2l-.26-2.26,0,.91s-.14-.1-.12-.46c-.17.62,0,.39-.06,1-.24-.84-.61.39-.68-1.07-.07.69.22.53,0,1-.09-1.57-.28.27-.49-.45,0-.81.25-.38,0-1.11-.11,1.37-.4-.29-.57,0,0,1.09-.37.45-.65.82,0-.37-.55-.6-.82-1v-.18c0,1.1-.32.89-.51,1.12a3.13,3.13,0,0,1,.14-1.21h-.19a1.1,1.1,0,0,1-.22.67l0-.82c-.26,0-.5,1-.83.42,0,.76.28,2.13-.06,2.65a5.07,5.07,0,0,1,.05-1.3c0,.06-.1.35-.16.17l.13-.7c-.15-.31-.07.59-.19.52,0-.59-.09-.42-.08-.89,0-.06.11.24.15,0a1.56,1.56,0,0,1-.36-.91c0,.34,0,.8-.09.88s-.09-.71-.24-1c-.06.41-.22,0-.22.87-.07,0-.09-.41-.12-.66-.13.4-.61.12-.45,1.06l0,.06s0,0,0,0h0c-.42.88-.89-.5-1.31-.12v-.3c-.25.34-.57.2-.74.84a1.64,1.64,0,0,1-.15-.89c-.19.22-.21.55-.5.06.19-.51-.07-.45.2-.37-.26-.26-.32-.73-.58.08.09-.76-.2-1-.31-.73l.18.54c-.14.11-.25,0-.37,0l0-1c-.52-1.21-.91,2.07-1.32,0-.13.69.29.49.17,1.3-.24-.13-.5-1.56-.57-1.57-.33-.55-.29,1.46-.63,1.08a3.21,3.21,0,0,1-.16,1.65c-.24-.14-.3-1.5-.15-1.78,0,0,.08.08.08.2a.75.75,0,0,0,.08-.67l0,.36c-.12-.36-.45-.33-.37-.91a.66.66,0,0,0,.06.77c-.31-.52-.48,0-.79-.36,0,.19.1.61,0,.61-.46-.44-.2.67-.51.83-.18-.54.06-1.3-.25-.84a1.94,1.94,0,0,1,0-1.24c-.28.69-.53-.45-.7-.57l.15-.29c-.09.17-.16.17-.23.16l.09.72c-.09-.13-.17-.13-.17-.43a13.84,13.84,0,0,1-.1,1.83c-.12-.37-.35.38-.4-.56.37.32,0-.95.27-1.1-.06.11-.14.11-.23,0a.6.6,0,0,1,0-.25c-.36-.84-.16,1.07-.52,1,0-.53-.09-1-.15-.9.14,0,.07.89-.06,1.3-.24-.42-.25.31-.38.26l.15.19c-.05.54-.17.47-.33.64,0-.42.15-.29.09-.47-.18.93-.42-1-.67-.34-.12-.36,0-1-.12-1.25-.28.7-.31-.72-.61-.15a1.74,1.74,0,0,1-.1,1.23l.49-.5-.31,1c.15,0,.31-.45.4-.33a1.56,1.56,0,0,0-.06,1c-.21-1.07-.4.63-.64-.1V14.2c-.36-.79-.62.91-1.08.47l.15.3c-.06.71-.28.1-.43.39a4.35,4.35,0,0,0-.15-1.18c0,.44-.33,0-.37,1.15l-.21-.78c-.37-.32-.41,1.68-.77,1.48.11-.64-.06-1.06.18-1.52-.12,0-.23-.12-.23.29-.07-.37-.32.8-.43.24,0,.26-.07.88-.2.83a2.54,2.54,0,0,1,0-.29c0,.29-.21.4-.09,1-.37-1.84-1,.14-1.34-1.45a2.14,2.14,0,0,1-.81.43c0-.17,0-.29,0-.23-.33-.55-.2,1.7-.57,1.09-.19-1,.2-.52.08-.88-.06-1.95-.45.26-.7-.87l.06-.12c-.19-.66-.46.74-.77.6a2.54,2.54,0,0,0,0-.29,2.58,2.58,0,0,1-.91,1.6,3.14,3.14,0,0,0,.08-1.18c-.13.11,0,1.24-.22,1.46A6,6,0,0,1,41,15.18l.25,0c-.13-1.07-.33,0-.46-.14l0-.47c-.39.15-.39,1.33-.81,1.25l0,.35c-.23,1.17-.2-.66-.42.21l-.07-1.18a6.18,6.18,0,0,1-.79,1.36,7.63,7.63,0,0,1,.66-1.84c-.15,0-.51.08-.58.67.06-.12.13-.41.19-.22-.18.93-.42,1.38-.71,1.36.05-2.29-.77-.57-1-2.36-.52.85-1-.36-1.64-.22.21,1.79-.18,0-.14,1.88-.15.12-.2.09-.21,0l-.43-1.09c-.1-.54.13-.41.12-.82-.31-.14-.13-.78-.34-1.26,0,.65-.1.94-.28.69l.25.84c-.44,1-.38-1.54-.81-.57L34,13c-.23.34-.83,0-1,1.47a1.87,1.87,0,0,1,0-.85c-.53-.22-1.19,1.57-1.61.66l.05-.45c-.1.13-.18.85-.3.4,0-.19,0-.45,0-.48,0,.16-.27.79-.4.53l.12-.51c-.53-.59-.81,1.23-1.25,1.54a2.39,2.39,0,0,0-.61-2v-.19c-.61-.16-1,1.1-1.6,1.61-.35-1.43-1.19-.6-1.75-1.4a2.3,2.3,0,0,1-.11,1.16c-.13-.26-.37.92-.35-.29l.05,0c-.09-1.19-.37-.87-.58-.9l0,1.58c-.54-2.3-1.46.85-1.75-1.21-.13.39-.3.39-.43.78v-.84a.87.87,0,0,0-1-.12l.09-.61c-.26-.06-.34,2.45-.58,2.5l-.06-1.27c-.45,0-.9-1.09-1.35.06,0-.19,0-.55.09-.61-.21,0-.81-.85-.74.89,0-1.14-.47-.11-.71.39l0-.84c-.21,1.07-.22,1.36-.51,1.66-.07-.11-.06-.67,0-.46-.22-.44-.18.79-.45.35l.11-.54c-.24-.06-.22.23-.35.85-.15.33-.44-.21-.47-1,0,.46-.17,1.08-.31.86a1.91,1.91,0,0,1,.06-.55c-.38-.57-.58,1-.84.15a1.91,1.91,0,0,0,0-.49c.31,0,.56.06.54.12a6.24,6.24,0,0,1,0-2c-.2.58-.55,1.85-.8,1.48,0-.07,0-.14,0-.26l0-.09c-.06-.08-.11,0-.16.13-.07-.13-.12-.23-.2-.24,0-.63-.28-.34-.4-.37,0,.84-.16.71,0,1.4,0-.06,0-.1.1-.13a.35.35,0,0,0,.06-.09v.07l.31,0c-.1.43-.21.79-.34.32l-.19,1.36c-.16-1.18-.48-1.81-.52-2.54-.39.48-.9.32-1.16,1.9-.11.2-.12-.45-.15-.7s.13-.14.17-.37c-.22.41-.64.16-.71,1.27-.26-.5.17-1-.21-.84l.05-.34c-.72-1.76-1.22,2.83-2,.56a.9.9,0,0,1,.1.39c-.93-1-1.94.94-2.84-.65-.26-.32-.29.39-.46.93l0-.91-.28,1c-.4.76-.64-2.22-1.15-.78l.06.61c-.18-.11-.57.36-.53-.34,0,.11-.06.64-.13.32v-.48L4,16.46c-.33-.35.07-1.88-.41-2a3.69,3.69,0,0,0-.47,1.7c.07,0,.18.3.18.77l-.17.25A10.23,10.23,0,0,0,3.32,21l.29-.85.08.67-.24.05c.13.63.22.07.33-.32a2.22,2.22,0,0,0,.11.75L4.18,20c0,.55-.14,1.09.05,1.39.14-.62-.11-1.22.11-1.63.13.63.08,1.15.25.61a1.64,1.64,0,0,1-.09.75c.15-.44.38-.19.47-.93.13.78.48-.2.45,1.12a2.77,2.77,0,0,1,.39-1.1c-.25,1.59.49.1.41,1.79.19-1.42.65-.63,1-1.42,0,.11-.06.34-.09.27.18.12.23.55.34.82a7.59,7.59,0,0,1,.46-2.17c.21,1.13-.14,1.38-.08,2.47,0-1,.38-1,.32-1.75a5.17,5.17,0,0,1,.21,1.32c0-1.47.16-.25.3-1.16.23.73,0,1.38.32.93A1.71,1.71,0,0,1,8.85,22.25Zm6.27-2.55h0l-.13.05Zm.53,0a.58.58,0,0,0-.23,0c0-.29,0-.59.06-.57C15.45,19.27,15.57,19.44,15.65,19.68Zm-1.07-5.84c.08-.12.11.05.12.22a.33.33,0,0,0-.14.1l0,.1A4,4,0,0,1,14.58,13.84Z" transform="translate(0 -0.72)"/><path class="cls-1" d="M14.42,15l0,.06,0,.19,0-.27Z" transform="translate(0 -0.72)"/><path class="cls-1" d="M61.93,16.15v0a.37.37,0,0,1,0,.12Z" transform="translate(0 -0.72)"/><polygon class="cls-1" points="22.89 20.57 22.89 20.36 22.84 20.54 22.89 20.57"/><path class="cls-1" d="M64.85,19a.85.85,0,0,0,0,.22A1,1,0,0,0,64.85,19Z" transform="translate(0 -0.72)"/><path class="cls-1" d="M66.1,19.23l.18.3A1.39,1.39,0,0,0,66.1,19.23Z" transform="translate(0 -0.72)"/><path class="cls-1" d="M67.06,19.65l0-.37h0Z" transform="translate(0 -0.72)"/><path class="cls-1" d="M51.81,20.65a.08.08,0,0,0,0,0C51.68,20.85,51.74,20.79,51.81,20.65Z" transform="translate(0 -0.72)"/><path class="cls-1" d="M56.33,18.68a2.3,2.3,0,0,1-.14.4C56.27,19.14,56.34,19.16,56.33,18.68Z" transform="translate(0 -0.72)"/><path class="cls-1" d="M46.74,21.67h0Z" transform="translate(0 -0.72)"/><path class="cls-1" d="M56,19.06c.08.17.15.13.21,0S56.05,18.93,56,19.06Z" transform="translate(0 -0.72)"/><path class="cls-1" d="M71.23,20l0,0v-.14Z" transform="translate(0 -0.72)"/><path class="cls-1" d="M71.28,19.92l0-.1S71.29,19.83,71.28,19.92Z" transform="translate(0 -0.72)"/><path class="cls-1" d="M71.44,19.61l-.11.21S71.42,19.85,71.44,19.61Z" transform="translate(0 -0.72)"/><path class="cls-1" d="M70,19.64v.3A2.28,2.28,0,0,0,70,19.64Z" transform="translate(0 -0.72)"/><path class="cls-1" d="M69.57,19.72c.09.07.24.66.37.46v-.24C69.89,20.4,69.65,19.21,69.57,19.72Z" transform="translate(0 -0.72)"/><path class="cls-1" d="M67.91,16l.33.24c-.06-.33-.14-.76,0-.84C67.82,14.38,68.34,16.08,67.91,16Z" transform="translate(0 -0.72)"/><path class="cls-1" d="M66.9,15.47c.17-.15,0-.47,0-.65A.63.63,0,0,0,66.9,15.47Z" transform="translate(0 -0.72)"/><path class="cls-1" d="M59.66,15.48v-.77C59.54,14.82,59.67,15,59.66,15.48Z" transform="translate(0 -0.72)"/><polygon class="cls-1" points="58.31 18.73 58.45 19.2 58.5 18.5 58.31 18.73"/><polygon class="cls-1" points="57.45 13.26 57.5 13.15 57.28 13.43 57.45 13.26"/><path class="cls-1" d="M45.29,14.27l.05.94C45.43,15,45.44,14,45.29,14.27Z" transform="translate(0 -0.72)"/><path class="cls-1" d="M40.05,15.23c-.06-.47-.21-.77-.3-.31C39.87,15,40,15.36,40.05,15.23Z" transform="translate(0 -0.72)"/><polygon class="cls-1" points="24.31 12.99 24.42 12.67 24.22 12.94 24.31 12.99"/><path class="cls-1" d="M31.06,2.43c-.17-.19-.6-.59-.55-.48l.68.72Z" transform="translate(0 -0.72)"/><path class="cls-1" d="M29.51,1.38A14.47,14.47,0,0,0,31,3c-.64-.71-.35-.44-1.11-1.28-.05-.12.29.16.54.42-.17-.19.21.1-.21-.35-.6-.49-.68-.46-.29,0A5,5,0,0,1,29.51,1.38Z" transform="translate(0 -0.72)"/><path class="cls-1" d="M25,3.26l.09.08A.28.28,0,0,0,25,3.26Z" transform="translate(0 -0.72)"/><path class="cls-1" d="M22.45,4.45a.51.51,0,0,0-.09-.19A.65.65,0,0,0,22.45,4.45Z" transform="translate(0 -0.72)"/><path class="cls-1" d="M21.45,3.8l.06,0C21.45,3.77,21.42,3.73,21.45,3.8Z" transform="translate(0 -0.72)"/><path class="cls-1" d="M25,3.26l-.25-.2C25,3.32,25,3.23,25,3.26Z" transform="translate(0 -0.72)"/><path class="cls-1" d="M30.71,3.54a1.07,1.07,0,0,0-.15-.21.93.93,0,0,1,.05.1Z" transform="translate(0 -0.72)"/><path class="cls-1" d="M25.48,1.87h0l-.25-.32Z" transform="translate(0 -0.72)"/><path class="cls-1" d="M26.08,1.16s.51.62.74.91a3.16,3.16,0,0,1-.34-.47Z" transform="translate(0 -0.72)"/><path class="cls-1" d="M28.17,1.25l-.06-.11Z" transform="translate(0 -0.72)"/><path class="cls-1" d="M24.85,2.15l-.19-.23Z" transform="translate(0 -0.72)"/><path class="cls-1" d="M4.27,20.66l-.08-.13C4.23,20.61,4.26,20.66,4.27,20.66Z" transform="translate(0 -0.72)"/><path class="cls-1" d="M1.21,17.6v-.05L1,17.14Z" transform="translate(0 -0.72)"/><path class="cls-1" d="M20.15,3.34h0C20.13,3.26,20.13,3.28,20.15,3.34Z" transform="translate(0 -0.72)"/><path class="cls-1" d="M13.5,7.7c.42.64.3.94.8,1.63A10.1,10.1,0,0,0,13.5,7.7Z" transform="translate(0 -0.72)"/><path class="cls-1" d="M30.62,3.48s0,0,0,0S30.63,3.51,30.62,3.48Z" transform="translate(0 -0.72)"/><path class="cls-1" d="M14.3,9.33h0l0,.07Z" transform="translate(0 -0.72)"/><path class="cls-1" d="M18.75,4.79l.2.31A2.47,2.47,0,0,0,18.75,4.79Z" transform="translate(0 -0.72)"/><path class="cls-1" d="M20.64,5.06,20.54,5C20.6,5,20.62,5.06,20.64,5.06Z" transform="translate(0 -0.72)"/><path class="cls-1" d="M18.67,6.21s-.11-.15-.08,0l.06.08C18.6,6.16,18.59,6.1,18.67,6.21Z" transform="translate(0 -0.72)"/><path class="cls-1" d="M18,6.61l.1.14V6.69Z" transform="translate(0 -0.72)"/><path class="cls-1" d="M6.21,19.13l-.39-.65C6.11,19,6.11,19.25,6.21,19.13Z" transform="translate(0 -0.72)"/><path class="cls-1" d="M30.38,3.2a3.07,3.07,0,0,1,.24.28.43.43,0,0,1,0,0C30.52,3.34,30.44,3.25,30.38,3.2Z" transform="translate(0 -0.72)"/><path class="cls-1" d="M21.92,12l-.19,0A.21.21,0,0,0,21.92,12Z" transform="translate(0 -0.72)"/><path class="cls-1" d="M11.44,16.39l0,.1S11.47,16.48,11.44,16.39Z" transform="translate(0 -0.72)"/><path class="cls-1" d="M21.43,12.29a3.46,3.46,0,0,0-.36-.47l.09.19Z" transform="translate(0 -0.72)"/><path class="cls-1" d="M5.82,18.47h0Z" transform="translate(0 -0.72)"/><path class="cls-1" d="M6,20.64c.12,0-.47-1-.75-1.56,0-.34.45.69.76,1.16C6,19.94,5.55,19,5.63,19a2.33,2.33,0,0,1,.23.42c-.33-.82.23-.17-.18-1.2l.14.23c-.28-.48-.54-1-.73-1.33,0-.05-.23-.67.12,0,0,0,.1.26.19.46l-.1-.3c.53.89.1.35.46,1-.06-.36-.34-1.18-.13-1,.49.9,0,.4.5,1.15l-.29-.28c.83,1.38-.13-.06.76,1.42.29.18-.08-.55.22-.37-.23-.52-.4-.74-.63-1.26-.24-1,1.36,2.19.9.9-.27-.63-.84-1.78-.41-1.24l.48,1.05c.21,0-.67-1.52-.15-.91.18.42,0,.4.14.51.52.76-.23-.62-.15-.66l.48.9c.09-.23-.06-1,0-1.23a5,5,0,0,0,.42.83c0-.57.54-.14,1,.3l-.31-.83a1.78,1.78,0,0,1,.27.5c.24.26-.24-.5-.35-.83,0-.08.29.42.37.67-.18-.74-.27-1.66.31-.89l.08.25c.28.26-.65-1.69-.17-1l0,.15c.44.21.39-.67,1.19.43-.52-1.16.52.38-.24-1.22a9,9,0,0,0,1.11,1.44c.1,0-.39-1-.39-1.24l.4.83L11,15.77l.53,1,0-.25a2.54,2.54,0,0,1-.35-.58c-.08-.43.54.45.75.88L11.77,16a3.63,3.63,0,0,1,.24.7c-.27-.91.45.87.2,0-.11-.18-.23-.5-.31-.67.3.47.45.41.45.14l.26.59c.26.05.27-.47.49-.56a4.72,4.72,0,0,1-.65-1.36l.45.87a9,9,0,0,1-.47-1A4.61,4.61,0,0,1,13.06,16L13,15.62c.13.26.18.41.33.75-.22-.57.59.8.2-.17l.13.26c.21-.1.17-.45.32-.58a9.59,9.59,0,0,1-.46-1.26c.25.18.68.7.8.57a6.31,6.31,0,0,0-.44-1.14c.34.69.46.55.62,1.09.14-.21.18-.26.14-.93a4.56,4.56,0,0,1-.35-.63c0-.13.24.25.39.58l0,.08c-.23-1.17,1.6,1.72,1.11.17l0,.08-.15-.86c.16.07.2.55.48.94-.33-1.27.46,0,.28-.88,1.16,2,.46-.41,1.32.78L17.51,14c-.18-.5.21.24.3.33a5.47,5.47,0,0,1-.37-.68c.16-.79,1.28.23,2,.41.23,0-1.18-2.49-.38-1.47l.4.91c-.21-1.23.72-.33.58-1.4a2.77,2.77,0,0,1,.19.48c.41.6.28-.11,0-.62a8,8,0,0,1,.44.7c.27.34-.26-.9.12-.29a.75.75,0,0,1,.1.27c-.12-.33.26,0-.18-.75.31.28.06-.45.39-.07-.38-.85.43.27-.18-.89.65,1.19.75.84.51.24.18.37.28.33.53.84.08-.07,0-.34-.32-.93,1,1.31-.32-1.33.81.42a5.9,5.9,0,0,1,0-1.77c.68,1.17-.2.27.54,1.49-.06-.61-.53-1.69-.14-1.53.16.12.27.52.37.73-.06-.61.5-.16.32-.92a3.23,3.23,0,0,1,.15.34c0-.06.19.11-.14-.41l.05.17a16.09,16.09,0,0,1-1.07-2.08c.87,1.53.42.25,1.5,2.2A3.39,3.39,0,0,0,23.59,9a2.2,2.2,0,0,1,.45.69c0-.37-.44-.89-.3-1,.16.25.19.37.37.67-.25-.53-.5-1.06-.26-.92.09.16.23.35.2.37.13-.2-.54-1.5,0-1.15.66,1.12.31.31.93,1.24l-.07-.35-.35-.42c.11-.05-.27-.78,0-.53l.18.43.06-.3-.33-.28c-.24-.55-.8-1.17-.51-1,0,.11.09,0,.51.47h0c-.15-.33-.32-.67-.1-.48s.69,1,.83,1.22c-.48-.8.07-.36-.44-1.22.11.2.45.69.52.78l-.4-.65a3,3,0,0,1,.52.65c.21,0-.85-1.13-.35-.74,0,.06.09.15.13.26.34.16,0-.59.37-.38.69.89,0,.31.64,1,.08-.31-.38-1.38,0-1.31L26,6.06c-.92-1.3.61.53.25-.15.05.11.5.73.4.59.29.1,0-.52-.08-1.06l.23.34c.29.23.32,0,.52.1a3.82,3.82,0,0,0-.53-.77c1.69,1.62-.31-1.33,1.12,0,0,0,.16.33.19.31L28.06,5a7.26,7.26,0,0,0-.67-.68c-.24-.34-.4-.63-.35-.66a4.93,4.93,0,0,0,1,1.12l-.42-.51c.89.86-.88-1.09-.22-.56l.23.29c-.07-.19-.34-.59-.22-.56.54.6.19.33.61.84,0-.1-.84-1.28-.26-.73.12.2.08.24.19.43.68.66.54.47.69.53h0l.41.22-.2-.17c-1.29-1.65-.07-.45-.85-1.58A6.5,6.5,0,0,0,29,4.2a3.33,3.33,0,0,1,.59.53c-.43-.6.49.34-.14-.53.19.22.08,0,.56.52-.08-.23-.36-.36-.6-.63-.56-.84,1.09.63.32-.53-.24-.55-.9-1.29-1.12-1.76a4.4,4.4,0,0,1,.71.8c.36.25.36.14.19-.16a6.37,6.37,0,0,0,.58.55c0-.11-.71-.8-.34-.56s.57.64.77.9c-.12-.26-.44-.71-.57-1a5.71,5.71,0,0,1,.72.85A2.43,2.43,0,0,0,30,2.12L29.78,2a3.35,3.35,0,0,1,.58.6c.39.5-.28-.11-.49-.32l-.09-.18c-1.26-1.17,0,.37-.15.39l-.83-.93.63.83a5,5,0,0,1-.83-.87c-.49-.39.25.37-.28-.07l-.15-.16.2.32c-.17-.2-.62-.62-.46-.53-.6-.42.47.85-.22.2l0-.06c.14.45.61.68,1.23,1.57L27.27,1.17l.6.69s-.11,0-.35-.31c.36.52.28.29.64.76-.63-.54.05.48-.95-.59.44.55.44.34.68.77-1.08-1.15.08.29-.47-.19s-.17-.36-.72-.84c.87,1.06-.34-.1-.22.14.71.82.17.45.3.82-.23-.29-.58-.29-.92-.52l-.12-.14c.7.86.47.78.54,1a6.75,6.75,0,0,1-.72-1l-.06.06a1.9,1.9,0,0,1,.34.58l-.51-.65c0,.1.45.9,0,.56A14.63,14.63,0,0,1,27,4.44a9,9,0,0,1-.79-1s.18.3,0,.18L25.82,3c-.25-.2.33.48.25.46-.37-.46-.3-.31-.59-.68,0,0,.19.16.07,0a2.49,2.49,0,0,1-.7-.61,3.41,3.41,0,0,1,.51.71c-.06.1-.47-.53-.71-.73.23.34-.09.05.46.74,0,0-.29-.3-.45-.48.19.34-.15.25.48,1l.05,0,0,0h0c.37.82-.64-.14-.56.28l-.18-.24c.11.34-.08.32.23.88a3.1,3.1,0,0,1-.58-.68c.06.23.25.51-.15.19-.23-.47-.29-.35-.14-.36-.25-.14-.55-.51-.18.22-.4-.64-.62-.73-.54-.52l.39.4c0,.12-.07.1-.15.08l-.56-.83c-.88-.87.84,1.93-.46.36.34.61.38.33.8,1a4,4,0,0,1-.6-.6,5,5,0,0,0-.5-.55c-.43-.38.71,1.28.37,1a6.42,6.42,0,0,1,.86,1.41,5.77,5.77,0,0,1-1.05-1.44s.08,0,.15.15A1.71,1.71,0,0,0,22,3.68l.19.3c-.24-.27-.34-.15-.64-.66A1.36,1.36,0,0,0,22,4c-.4-.35-.19.11-.5-.11a3,3,0,0,1,.36.5c-.42-.26.29.61.25.82-.36-.41-.68-1.1-.55-.64a4.05,4.05,0,0,1-.66-1c.26.65-.44-.25-.57-.32l-.1-.28c.06.17,0,.18,0,.2l.41.58a.76.76,0,0,1-.28-.32c.21.42.66,1,.93,1.56-.24-.27.07.42-.45-.37.31.18-.52-.79-.48-1,0,.11,0,.13-.1,0a1,1,0,0,1-.12-.22c-.58-.63.51,1,.36,1-.26-.47-.56-.84-.53-.73a4.39,4.39,0,0,1,.66,1.12c-.3-.3.07.32,0,.31l.15.13c.26.46.18.43.2.62-.22-.35-.09-.28-.21-.42.42.84-.66-.73-.43-.13-.23-.28-.52-.85-.69-1,.25.66-.5-.55-.32,0a3.76,3.76,0,0,1,.6,1.09l-.07-.54.41,1c.07,0-.1-.46,0-.37a3.44,3.44,0,0,0,.5.87c-.64-.87.16.63-.31.06l-.91-1.52c-.54-.6.22.92-.19.65l.22.23c.33.62-.07.15,0,.43a8.23,8.23,0,0,0-.65-1c.22.37-.15,0,.43,1.07l-.48-.63c-.3-.19.68,1.56.43,1.47a13.17,13.17,0,0,1-.68-1.36s-.14-.05.06.31c-.21-.31.26.77-.06.3.11.24.41.78.33.77a2,2,0,0,1-.14-.25,4.8,4.8,0,0,0,.47.94c-1-1.53-.35.34-1.25-1a1.26,1.26,0,0,1-.12.56c-.08-.16-.14-.26-.1-.22-.39-.41.73,1.54.29,1.08-.54-.8-.17-.5-.39-.79-.95-1.7,0,.33-.69-.61l0-.12c-.39-.54.16.76,0,.7l-.13-.26a3.53,3.53,0,0,1,.36,1.61,6.85,6.85,0,0,0-.51-1.06c0,.13.59,1.09.58,1.34a12.6,12.6,0,0,1-.87-1.35l.08-.1c-.55-.92-.12.1-.26,0L16,7.08c-.09.22.46,1.26.24,1.28l.18.3c.44,1.09-.38-.54-.07.28l-.57-1a9.32,9.32,0,0,1,.29,1.39,14.36,14.36,0,0,1-.57-1.79c-.06,0-.17.19.07.73,0-.12-.13-.39,0-.24.35.86.45,1.32.32,1.37-1-2.06-.59-.35-1.48-1.9.16.87-.6-.11-.79.14.89,1.55,0,.08.78,1.72,0,.13,0,.12-.1,0l-.67-.89c-.28-.46-.12-.39-.31-.76-.19-.06-.4-.67-.7-1.06.31.58.37.86.19.67l.48.71c.25,1-.84-1.3-.6-.34l-.19-.55c.06.35-.35.16.2,1.53a3.75,3.75,0,0,1-.37-.76c-.32-.09.18,1.65-.39.92l-.18-.41c0,.14.29.79,0,.41a3.09,3.09,0,0,0-.21-.42c.05.15.23.76.06.55l-.17-.48c-.48-.42.19,1.28.14,1.64a4.26,4.26,0,0,0-1.11-1.64l-.08-.17c-.33,0,0,1.2,0,1.78-.77-1.22-.77-.29-1.36-.9a4.65,4.65,0,0,1,.45,1.07c-.17-.22.24.9-.27-.2h0c-.56-1-.54-.71-.64-.69l.67,1.44c-1.24-2-.27,1.06-1.29-.74.11.39,0,.42.15.8l-.36-.76c-.26-.12-.38-.18-.5.1L7.1,9.62C7,9.63,8,11.9,8,12l-.59-1.12c-.18.11-.87-.79-.56.33a2.64,2.64,0,0,1-.23-.56c-.1,0-.73-.59.07.95-.5-1-.25,0-.14.5l-.35-.75a5.27,5.27,0,0,1,.51,1.59c-.07-.09-.32-.59-.18-.42-.3-.34.27.75-.05.41l-.19-.5c-.13,0,0,.24.23.83.08.33-.29-.1-.64-.77.19.42.41,1,.26.84a2.23,2.23,0,0,1-.22-.51c-.43-.42.18,1-.3.32a4.66,4.66,0,0,0-.25-.43c.15,0,.27-.07.29,0a13.11,13.11,0,0,1-.9-1.75c.17.57.59,1.77.32,1.5l-.14-.23,0-.08c-.05-.06,0,0,0,.14-.09-.09-.15-.17-.19-.16-.3-.56-.28-.24-.35-.24A10.22,10.22,0,0,0,5,13.12a.12.12,0,0,1,0-.14.31.31,0,0,0,0-.09L5,13a.53.53,0,0,1,.1-.12c.16.41.27.75,0,.37.22.49.44,1,.54,1.25-.6-1-1-1.51-1.39-2.14a2.94,2.94,0,0,0,.38,1.94c0,.2-.26-.38-.4-.59a1.25,1.25,0,0,0-.09-.36c.09.41-.2.28.29,1.27-.35-.38-.41-.94-.49-.69l-.13-.31c-1.15-1.39.8,2.77-.61.95a1.77,1.77,0,0,1,.22.32c-.88-.66-.37,1.26-1.53.1-.27-.22.07.4.26.91l-.47-.77.4,1c.22.76-1.38-1.77-.87-.39l.33.51c-.14-.06-.06.45-.4-.17,0,.1.3.57.11.31L1,15.9l.22.81C.87,16.49.26,15.07,0,15.11a6.85,6.85,0,0,0,.67,1.57,1.88,1.88,0,0,1,.47.62l.06.25a23.67,23.67,0,0,0,2,3.22L2.91,20l.38.56-.07.09c.37.52.12,0,0-.34.19.3.33.51.42.62l-.56-1.22a8.13,8.13,0,0,0,.72,1.19c-.26-.57-.67-1-.78-1.44.37.52.61,1,.4.47a4,4,0,0,1,.35.67c-.16-.41,0-.25-.29-.91.45.65.09-.28.74.87a5.26,5.26,0,0,1-.39-1c.69,1.43.24,0,1,1.47-.63-1.28-.06-.7-.32-1.46,0,.1.14.31.1.26.13.06.35.42.53.63a14.91,14.91,0,0,1-.87-2c.64.94.61,1.24,1.16,2.18-.46-.84-.3-.92-.71-1.6a9.9,9.9,0,0,1,.72,1.11C4.77,18.79,5.4,19.83,5,19c.44.59.68,1.2.57.75A3.73,3.73,0,0,1,6,20.64Zm1.37-3.58h0l0,.07Zm.21-.13a.14.14,0,0,0-.11,0,1.94,1.94,0,0,1-.23-.52A3,3,0,0,0,7.6,16.93ZM4.5,12c0-.13.07,0,.15.16a.35.35,0,0,0,0,.13l0,.09Z" transform="translate(0 -0.72)"/><path class="cls-1" d="M4.93,13A.14.14,0,0,1,5,13l.1.16L5,13Z" transform="translate(0 -0.72)"/><path class="cls-1" d="M25.14,3.35h0l.09.08Z" transform="translate(0 -0.72)"/><polygon class="cls-1" points="11.37 16.16 11.28 15.97 11.34 16.15 11.37 16.16"/><path class="cls-1" d="M28,4.74l.16.15Z" transform="translate(0 -0.72)"/><path class="cls-1" d="M28.63,4.47l.26.17Z" transform="translate(0 -0.72)"/><path class="cls-1" d="M29.27,4.47,29,4.2h0Z" transform="translate(0 -0.72)"/><path class="cls-1" d="M23.63,9.84s0,0,0,.05S23.67,10,23.63,9.84Z" transform="translate(0 -0.72)"/><path class="cls-1" d="M24.45,7c.07.14.13.28.17.37S24.72,7.36,24.45,7Z" transform="translate(0 -0.72)"/><path class="cls-1" d="M21.94,12h0Z" transform="translate(0 -0.72)"/><path class="cls-1" d="M24.52,7.38c.13.12.14.07.1,0S24.48,7.25,24.52,7.38Z" transform="translate(0 -0.72)"/><path class="cls-1" d="M31.08,3.29h0L31,3.2Z" transform="translate(0 -0.72)"/><path class="cls-1" d="M31,3.2,31,3.11S31,3.13,31,3.2Z" transform="translate(0 -0.72)"/><path class="cls-1" d="M30.87,2.93l.11.18S31,3.1,30.87,2.93Z" transform="translate(0 -0.72)"/><path class="cls-1" d="M30.34,3.47l.21.22Z" transform="translate(0 -0.72)"/><path class="cls-1" d="M30.26,3.67c.08,0,.54.39.45.2l-.16-.18C30.84,4,29.94,3.27,30.26,3.67Z" transform="translate(0 -0.72)"/><path class="cls-1" d="M27.13,1.44l.27.08c-.24-.22-.56-.52-.56-.62C26.05.3,27.36,1.41,27.13,1.44Z" transform="translate(0 -0.72)"/><path class="cls-1" d="M26.47,1.39c0-.17-.32-.36-.44-.5A1.33,1.33,0,0,0,26.47,1.39Z" transform="translate(0 -0.72)"/><path class="cls-1" d="M23.91,3.44l-.44-.62C23.48,2.94,23.64,3.06,23.91,3.44Z" transform="translate(0 -0.72)"/><polygon class="cls-1" points="25.69 6.32 26.02 6.67 25.64 6.08 25.69 6.32"/><polygon class="cls-1" points="22.23 2.06 22.19 1.96 22.27 2.25 22.23 2.06"/><path class="cls-1" d="M17.73,5.88l.47.82C18.16,6.53,17.65,5.6,17.73,5.88Z" transform="translate(0 -0.72)"/><path class="cls-1" d="M16,7.88c-.24-.41-.44-.65-.27-.22C15.85,7.69,16.07,8,16,7.88Z" transform="translate(0 -0.72)"/><polygon class="cls-1" points="8.69 9.04 8.6 8.74 8.62 9.02 8.69 9.04"/><path class="cls-1" d="M19.65,35.84c.16-.2.52-.67.42-.59l-.63.77Z" transform="translate(0 -0.72)"/><path class="cls-1" d="M20.59,34.25A19.45,19.45,0,0,0,19.18,36c.61-.73.37-.41,1.1-1.28.1-.07-.15.29-.37.57.16-.19-.1.21.3-.28s.41-.69,0-.22C20.31,34.59,20.48,34.39,20.59,34.25Z" transform="translate(0 -0.72)"/><path class="cls-1" d="M18.94,31l-.06.11A.67.67,0,0,0,18.94,31Z" transform="translate(0 -0.72)"/><path class="cls-1" d="M17.66,29.34a.68.68,0,0,0,.15-.15A.53.53,0,0,0,17.66,29.34Z" transform="translate(0 -0.72)"/><path class="cls-1" d="M18.05,28.26a.25.25,0,0,0,0,.07C18.08,28.25,18.1,28.2,18.05,28.26Z" transform="translate(0 -0.72)"/><path class="cls-1" d="M18.94,31l.14-.28C18.88,31,19,30.94,18.94,31Z" transform="translate(0 -0.72)"/><path class="cls-1" d="M18.77,35.86a1.46,1.46,0,0,0,.18-.18l-.08.06Z" transform="translate(0 -0.72)"/><path class="cls-1" d="M20.14,30.92h0l.26-.31Z" transform="translate(0 -0.72)"/><path class="cls-1" d="M20.78,31.22s-.51.63-.74.92a4.5,4.5,0,0,1,.38-.44Z" transform="translate(0 -0.72)"/><path class="cls-1" d="M20.73,33.07l.09-.09Z" transform="translate(0 -0.72)"/><path class="cls-1" d="M19.86,30.48l.18-.24A1.88,1.88,0,0,0,19.86,30.48Z" transform="translate(0 -0.72)"/><path class="cls-1" d="M.75,23.74l.09-.12A.36.36,0,0,0,.75,23.74Z" transform="translate(0 -0.72)"/><path class="cls-1" d="M2.67,19.94l0,0c.1-.12.2-.24.29-.37Z" transform="translate(0 -0.72)"/><path class="cls-1" d="M18.21,27h0C18.27,27,18.25,27,18.21,27Z" transform="translate(0 -0.72)"/><path class="cls-1" d="M13.21,24c-.41.63-.68.7-1.11,1.42C12.29,25.1,13,24.38,13.21,24Z" transform="translate(0 -0.72)"/><path class="cls-1" d="M18.82,35.77h0S18.8,35.79,18.82,35.77Z" transform="translate(0 -0.72)"/><path class="cls-1" d="M12.1,25.37h0l0,.06Z" transform="translate(0 -0.72)"/><path class="cls-1" d="M16.74,26.52c-.09.12-.15.22-.21.31Z" transform="translate(0 -0.72)"/><path class="cls-1" d="M16.87,28.14l.05-.11A.34.34,0,0,0,16.87,28.14Z" transform="translate(0 -0.72)"/><path class="cls-1" d="M15.56,27.12c0-.06.1-.15,0-.08a.9.9,0,0,0-.05.09C15.59,27,15.63,27,15.56,27.12Z" transform="translate(0 -0.72)"/><path class="cls-1" d="M15.09,26.76c0,.06-.06.1-.09.15l0,0Z" transform="translate(0 -0.72)"/><path class="cls-1" d="M2.41,24.51l.44-.62C2.5,24.38,2.3,24.49,2.41,24.51Z" transform="translate(0 -0.72)"/><path class="cls-1" d="M19.06,35.49a1.77,1.77,0,0,1-.24.28l.05,0Z" transform="translate(0 -0.72)"/><path class="cls-1" d="M11.48,32.37v-.15Q11.43,32.34,11.48,32.37Z" transform="translate(0 -0.72)"/><path class="cls-1" d="M5.84,27l-.08.07S5.77,27.07,5.84,27Z" transform="translate(0 -0.72)"/><path class="cls-1" d="M11.19,32.15a4.74,4.74,0,0,0,.31-.5l-.14.17Z" transform="translate(0 -0.72)"/><path class="cls-1" d="M2.86,23.89h0Z" transform="translate(0 -0.72)"/><path class="cls-1" d="M1.15,25.1a11.48,11.48,0,0,0,1.1-1.33c.27-.18-.46.68-.78,1.15.23-.19.89-1,.91-.9s-.14.2-.29.38c.59-.66.19.09.93-.74l-.16.23c.33-.45.67-.9.92-1.21,0,0,.49-.51.05.07a3.32,3.32,0,0,0-.33.37l.23-.22c-.61.84-.27.25-.74.86.27-.22.87-.85.74-.57-.61.81-.32.18-.81.95l.16-.37c-.92,1.32,0-.13-1,1.28-.08.31.43-.33.35,0,.37-.43.5-.67.87-1.1.76-.7-1.45,2.11-.52,1.12.44-.52,1.24-1.53.9-.93L3,25c0,.16,1.07-1.27.7-.58-.3.35-.31.25-.38.37-.49.77.44-.48.5-.44l-.62.81c.21-.05.77-.54,1-.6a6.92,6.92,0,0,0-.57.74c.46-.29.23.34,0,.93l.6-.66a3.36,3.36,0,0,1-.34.46c-.15.31.34-.44.58-.69.07,0-.27.43-.45.62.55-.51,1.26-1.06.78-.23l-.18.19c-.14.34,1.19-1.36.77-.66l-.11.12c-.06.43.62-.06-.06,1.09.8-1-.18.58.91-.81a13.92,13.92,0,0,0-.88,1.57c0,.09.73-.83.89-.94L5.56,27l.65-.72-.64.9.19-.15a3,3,0,0,1,.38-.57c.32-.28-.23.64-.52,1L6.26,27a5.88,5.88,0,0,1-.5.54c.66-.68-.58.78,0,.16.12-.18.34-.43.46-.58-.3.47-.22.54,0,.41l-.4.49c0,.22.43-.05.56.06a6.76,6.76,0,0,1,.92-1.19l-.58.78c.39-.45.19-.32.69-.86A7.35,7.35,0,0,1,6.55,28l.27-.22c-.18.23-.29.34-.52.64.4-.47-.49.85.19,0l-.18.24c.13.11.39-.11.53-.07a12.7,12.7,0,0,1,.89-1c-.08.27-.4.86-.26.88a9.59,9.59,0,0,0,.79-.92c-.46.61-.32.63-.71,1,.19,0,.24,0,.76-.39a6.29,6.29,0,0,1,.42-.58c.1-.08-.14.3-.37.59l-.06.06c.87-.79-1,2.06.12.89l-.06.06L9,28.64c0,.15-.39.43-.63.84.93-.9.11.32.75-.26-1.29,1.86.43.12-.33,1.36l.32-.42c.35-.39-.15.27-.2.38.25-.33.26-.4.45-.62.67-.3.09,1,.07,1.65,0,.19,1.74-2.15,1.09-1l-.64.76c.93-.78.4.36,1.21-.29-.15.17-.33.41-.35.39-.39.6.14.15.5-.32,0,.08-.32.43-.48.68s.67-.64.25-.06a1.66,1.66,0,0,1-.19.22c.24-.26.07.17.55-.51-.17.37.37-.18.13.25.61-.7-.14.46.67-.57-.83,1.07-.53,1-.1.5-.26.31-.21.36-.58.8.07,0,.27-.13.69-.69-.9,1.36,1-.88-.22.81a7.28,7.28,0,0,1,1.4-.87c-.83,1.07-.24,0-1.11,1.11.48-.33,1.27-1.19,1.21-.83a4.22,4.22,0,0,1-.53.63c.48-.34.19.3.76-.19a2.21,2.21,0,0,1-.25.27c.05,0-.06.2.31-.29l-.13.12c.51-.74,1.24-1.41,1.53-1.78C14,32,15,31.12,13.58,32.83a6.17,6.17,0,0,0,.53-.62,3.32,3.32,0,0,1-.5.66c.29-.2.66-.74.73-.67-.18.24-.27.32-.49.59.39-.43.79-.86.7-.61s-.25.33-.27.31c.17,0,1.14-1.07.93-.53a12.43,12.43,0,0,0-.9,1.26l.27-.21.31-.46c0,.07.59-.54.42-.21l-.32.33.24-.08.19-.39c.41-.41.86-1.12.75-.82-.09.08,0,.06-.32.61h0c.24-.26.5-.54.38-.28s-.77,1-.91,1.17c.6-.72.3-.1.94-.87-.15.18-.51.65-.58.74l.49-.58a4.75,4.75,0,0,1-.48.68c0,.17.84-1.15.56-.59a2.6,2.6,0,0,1-.19.22c-.1.33.48-.24.34.13-.66.91-.25.15-.8.93.26-.06,1.1-.86,1.06-.56l.05-.11c1-1.25-.38.69.14.15-.09.08-.56.68-.45.54-.07.27.41-.17.85-.47l-.27.32c-.17.32,0,.26-.05.45a5.33,5.33,0,0,0,.6-.72c-1.25,2,1.08-.74,0,.92,0,0-.26.25-.25.26l.36-.2c.41-.56.24-.35.54-.8a2.12,2.12,0,0,1,.53-.51A6.81,6.81,0,0,0,17.87,34c.12-.17.28-.35.41-.52-.69,1,.86-1.1.44-.37l-.23.28c.15-.12.48-.48.45-.37a9.25,9.25,0,0,1-.67.79c.08,0,1-1.12.59-.45-.16.16-.19.14-.35.3-.52.78-.37.6-.43.74v0l-.17.41.13-.22c1.34-1.61.37-.2,1.29-1.22a8.75,8.75,0,0,0-1,1.3,5.41,5.41,0,0,1-.44.66c.49-.55-.28.51.43-.29a4.62,4.62,0,0,1-.43.63,4.22,4.22,0,0,0,.52-.7c.7-.73-.54,1.1.41.11.45-.37,1.07-1.14,1.47-1.45a6.93,6.93,0,0,1-.68.82c-.21.38-.13.35.13.12-.17.2-.29.38-.48.65.09,0,.68-.83.47-.44s-.54.65-.76.9c.21-.18.59-.58.8-.75a9.28,9.28,0,0,1-.72.84,3.73,3.73,0,0,0,.93-.89l.14-.25a5.26,5.26,0,0,1-.52.66c-.43.47.11-.27.28-.51l.15-.12c1-1.38-.3.12-.31,0l.79-1-.7.76a8.53,8.53,0,0,1,.75-.95c.32-.52-.32.32.06-.25a1.15,1.15,0,0,1,.13-.17l-.27.25c.17-.2.53-.7.45-.54.35-.63-.71.64-.17-.13l.06-.06c-.38.24-.57.72-1.32,1.5l1.32-1.84-.57.72s0-.11.25-.4c-.42.47-.23.33-.62.77.45-.7-.4.19.48-1-.45.54-.27.47-.63.81.94-1.26-.24.15.15-.46s.3-.25.68-.86c-.86,1.06.08-.32-.12-.15-.67.86-.38.28-.68.51.23-.28.22-.58.39-.95l.12-.14c-.69.86-.63.64-.83.78a9.77,9.77,0,0,1,.79-.93l-.06,0a2.67,2.67,0,0,1-.46.48l.51-.64c-.09,0-.73.67-.48.16A19.62,19.62,0,0,1,18.08,33a12.94,12.94,0,0,1,.81-1s-.24.26-.14.1l.46-.52c.15-.28-.38.44-.37.37.36-.47.23-.35.53-.72,0,0-.13.21,0,0a3.55,3.55,0,0,1,.46-.79,5.07,5.07,0,0,1-.56.67c-.09,0,.41-.58.56-.85-.27.31-.05-.06-.59.64a3.71,3.71,0,0,1,.37-.54c-.27.28-.23,0-.77.74l0,.05,0,0h0c-.65.61.08-.58-.27-.37l.18-.23c-.27.22-.27,0-.71.51a5.53,5.53,0,0,1,.51-.74c-.19.14-.39.4-.17,0s.26-.38.28-.26c.09-.26.37-.64-.2-.06.49-.58.54-.79.37-.64l-.29.47c-.1.06-.09,0-.08-.1l.62-.77c.61-1.07-1.51,1.44-.37-.25-.46.53-.22.45-.75,1.07a15,15,0,0,1,.81-1.35c.25-.51-1,1.09-.83.72a9.23,9.23,0,0,1-1.05,1.26A7.62,7.62,0,0,1,17.91,29s0,.08-.1.18a2.06,2.06,0,0,0,.43-.52L18,29c.19-.31.08-.35.46-.8a1.9,1.9,0,0,0-.46.62c.24-.47-.11-.1,0-.44a5.79,5.79,0,0,1-.36.49c.14-.44-.47.49-.65.55.29-.46.81-1,.45-.71a5.64,5.64,0,0,1,.76-1c-.49.48.14-.47.17-.6l.22-.2c-.13.12-.15.1-.17.08l-.41.58a1.24,1.24,0,0,1,.22-.37c-.31.36-.71,1-1.14,1.43.19-.32-.34.23.23-.53-.1.33.57-.76.74-.81-.08.07-.1.05,0-.06a1.19,1.19,0,0,1,.16-.19c.42-.74-.7.81-.78.72a2.86,2.86,0,0,0,.51-.74,6.23,6.23,0,0,1-.81,1c.19-.37-.26.19-.26.13l-.08.18c-.34.42-.33.34-.47.44.25-.34.21-.2.31-.36-.62.71.48-.85,0-.4.19-.31.6-.79.73-1-.5.49.36-.64-.07-.25a5.2,5.2,0,0,1-.78,1l.44-.3-.72.76s.35-.29.3-.18a4.72,4.72,0,0,0-.62.78c.6-.89-.49.41-.11-.21l1.08-1.4c.39-.7-.72.59-.57.15l-.15.27c-.44.55-.13,0-.35.22.37-.47.48-.66.69-1-.27.34-.07-.1-.8.82l.42-.66c.1-.32-1.14,1.25-1.11,1a13.9,13.9,0,0,1,1-1.17s0-.13-.25.19c.21-.31-.57.57-.25.1-.18.19-.56.68-.57.62l.18-.24a8.64,8.64,0,0,0-.66.82c1-1.54-.36-.1.53-1.42a1.06,1.06,0,0,1-.48.17c.11-.13.18-.23.16-.17.25-.51-1.1,1.3-.82.74.54-.8.37-.37.56-.68,1.18-1.55-.28.12.35-.83l.09-.08c.35-.56-.58.49-.57.32l.18-.24a5.07,5.07,0,0,1-1.22,1.08,9.46,9.46,0,0,0,.74-.91c-.1.06-.75,1-1,1.11.23-.35.4-.68.9-1.34l.09,0c.62-.88-.11,0,0-.22l.29-.36c-.19,0-.91,1-1,.82l-.21.29c-.77.88.35-.56-.24.08l.71-.95c-.22.19-.84.8-1.05.92.58-.66.94-1,1.31-1.33,0,0-.19,0-.57.41.09-.07.29-.29.19-.13-.62.7-1,1-1,.94,1.42-1.81.15-.62,1.19-2.08-.66.57-.06-.49-.3-.51-1,1.46-.08,0-1.19,1.46-.11.07-.1,0,0-.06l.56-1c.3-.44.28-.29.53-.62,0-.18.44-.64.68-1.07-.38.53-.6.72-.49.49l-.45.72c-.71.68.84-1.3.13-.62l.39-.43c-.27.22-.21-.18-1.17.94a5.81,5.81,0,0,1,.52-.67c0-.28-1.27,1-.83.2l.28-.35c-.1.08-.56.63-.31.25a4,4,0,0,0,.28-.38c-.1.12-.55.57-.42.34l.34-.38c.22-.57-1,.81-1.27,1a5.77,5.77,0,0,0,1-1.68L12,22c-.06-.26-.94.65-1.41.95.79-1.21.06-.72.4-1.47a7.42,7.42,0,0,1-.74.9c.13-.24-.66.65.09-.31v0c.7-1,.43-.77.39-.84l-1,1.25c1.26-1.94-.9.38.28-1.32-.28.29-.32.25-.6.53L10,21c0-.24,0-.37-.19-.3l.39-.46c0-.1-1.58,1.87-1.67,1.86l.75-1c-.13-.07.43-1.05-.39-.23.12-.14.34-.43.39-.46s.31-.84-.73.55c.69-.9-.06-.18-.43.16l.52-.65a7.79,7.79,0,0,1-1.14,1.21c0-.1.39-.54.29-.36.2-.39-.53.6-.34.19l.36-.41c0-.09-.19.14-.61.6-.24.24,0-.25.47-.86-.29.36-.7.82-.61.62a3.79,3.79,0,0,1,.35-.42c.25-.53-.74.65-.31-.06l.29-.4c.07.08.11.17.06.21a18.66,18.66,0,0,1,1.19-1.57c-.4.42-1.27,1.35-1.11,1L7.65,20,7.71,20c0-.07,0,0-.11.07.05-.12.1-.2.09-.23.38-.51.13-.33.12-.38A11.76,11.76,0,0,0,7,20.53a.17.17,0,0,1,.11-.08l.07-.06,0,.05.12,0c-.29.32-.54.59-.29.19l-.88,1c.68-1,1-1.54,1.41-2.12A3.93,3.93,0,0,0,6,20.84c-.15.14.24-.39.38-.59A1.88,1.88,0,0,0,6.63,20c-.3.27-.27,0-1,.86.24-.45.67-.78.46-.71l.22-.26c.88-1.55-2,2-.87,0a3.13,3.13,0,0,1-.22.33c.37-1-1.08.35-.35-1.1.12-.31-.32.25-.69.64l.54-.73-.71.77c-.57.53,1.18-1.89.17-.85l-.36.5c0-.13-.37.17.07-.38-.07.09-.4.49-.23.23L4,19l-.61.55c.12-.34,1.16-1.47,1.09-1.65A10.2,10.2,0,0,0,3.32,19.1a2.56,2.56,0,0,1-.42.65l-.2.16A29.17,29.17,0,0,0,.45,23L1,22.36l-.39.55H.56c-.35.53,0,.1.28-.18a6.39,6.39,0,0,0-.42.61l.88-1a13,13,0,0,0-.83,1.11c.42-.46.72-1,1-1.27-.35.53-.67.93-.3.53a4,4,0,0,1-.48.58c.31-.31.21-.07.69-.64-.44.65.25-.06-.56,1a6.53,6.53,0,0,1,.77-.79c-1,1.21.07.18-1,1.51.91-1.09.55-.37,1.12-.94-.08.09-.23.26-.19.2a5.47,5.47,0,0,1-.41.72,21.71,21.71,0,0,1,1.44-1.63c-.63.94-.87,1.07-1.52,1.94.58-.75.68-.67,1.14-1.32a12.6,12.6,0,0,1-.74,1.09c.91-1.16.19-.17.78-.85-.38.62-.82,1.1-.48.8A4.89,4.89,0,0,1,1.15,25.1Zm3.2-.74H4.28Zm.15.09a.08.08,0,0,0,0-.07,2.73,2.73,0,0,1,.36-.44A5.14,5.14,0,0,0,4.5,24.45ZM7.77,19.6c.1-.08,0,.06-.1.2a.29.29,0,0,0-.1.05l-.06.08Z" transform="translate(0 -0.72)"/><path class="cls-1" d="M7.06,20.45l0,0-.1.16.17-.21Z" transform="translate(0 -0.72)"/><path class="cls-1" d="M18.87,31.14v0a.46.46,0,0,1-.07.1S18.85,31.16,18.87,31.14Z" transform="translate(0 -0.72)"/><polygon class="cls-1" points="5.43 26.49 5.56 26.32 5.43 26.46 5.43 26.49"/><path class="cls-1" d="M17.87,34a.94.94,0,0,0-.12.18Z" transform="translate(0 -0.72)"/><path class="cls-1" d="M18.08,34.42,18,34.7A1.36,1.36,0,0,0,18.08,34.42Z" transform="translate(0 -0.72)"/><path class="cls-1" d="M18.08,35c.1-.11.16-.2.23-.28h0Z" transform="translate(0 -0.72)"/><path class="cls-1" d="M13.44,32.62l0,0C13.29,32.76,13.34,32.72,13.44,32.62Z" transform="translate(0 -0.72)"/><path class="cls-1" d="M15.85,32l-.29.28C15.55,32.34,15.55,32.37,15.85,32Z" transform="translate(0 -0.72)"/><path class="cls-1" d="M11.48,32.39h0s0,0,0,0Z" transform="translate(0 -0.72)"/><path class="cls-1" d="M15.52,32.22c-.08.15,0,.13,0,.05S15.61,32.13,15.52,32.22Z" transform="translate(0 -0.72)"/><path class="cls-1" d="M19,36.1v0L19,36Z" transform="translate(0 -0.72)"/><path class="cls-1" d="M19,36,19.1,36S19.08,36,19,36Z" transform="translate(0 -0.72)"/><path class="cls-1" d="M19.26,35.82,19.1,36S19.1,36,19.26,35.82Z" transform="translate(0 -0.72)"/><path class="cls-1" d="M18.85,35.53l-.19.24Z" transform="translate(0 -0.72)"/><path class="cls-1" d="M18.69,35.52c0,.08-.33.57-.18.44l.15-.19C18.37,36.12,19,35.13,18.69,35.52Z" transform="translate(0 -0.72)"/><path class="cls-1" d="M20.58,32.2l-.07.26A3.21,3.21,0,0,1,21,31.8C21.52,31,20.61,32.39,20.58,32.2Z" transform="translate(0 -0.72)"/><path class="cls-1" d="M20.6,31.62c.14-.08.29-.37.4-.52A2,2,0,0,0,20.6,31.62Z" transform="translate(0 -0.72)"/><path class="cls-1" d="M18.68,30.14l.48-.6A4.59,4.59,0,0,0,18.68,30.14Z" transform="translate(0 -0.72)"/><polygon class="cls-1" points="15.9 32.28 15.64 32.68 16.09 32.14 15.9 32.28"/><polygon class="cls-1" points="19.02 27.78 19.1 27.71 18.87 27.88 19.02 27.78"/><path class="cls-1" d="M15.63,26.24l-.56.75C15.19,26.88,15.85,26,15.63,26.24Z" transform="translate(0 -0.72)"/><path class="cls-1" d="M13.65,25.93c.28-.39.42-.66.12-.31C13.76,25.7,13.56,26,13.65,25.93Z" transform="translate(0 -0.72)"/><polygon class="cls-1" points="10.43 20.77 10.65 20.54 10.43 20.71 10.43 20.77"/></g></g></svg>