<svg xmlns="http://www.w3.org/2000/svg" viewBox="0 0 173.17 42.98"><defs><style>.cls-1{fill:#202020;}.cls-2{fill:#fcba54;}.cls-3{opacity:0.42;}</style></defs><g id="Слой_2" data-name="Слой 2"><g id="Слой_1-2" data-name="Слой 1"><path class="cls-1" d="M79.52,5.65c.19-.08.08-.28-.45-.24l-.37.33Z"/><path class="cls-1" d="M76,5c-.62.17-1.33.45-.92.75.61-.32.76-.19,1.42-.57.52,0,.92.11.83.23.19-.08.82.07,1.11-.14a4.45,4.45,0,0,0-2.47,0C75.73,5.19,75.92,5.1,76,5Z"/><path class="cls-1" d="M24.82,12.13l.33-.06Z"/><path class="cls-1" d="M7.16,29c-.22-.13-.33-.16-.36-.14C7,29,7.19,29.05,7.16,29Z"/><path class="cls-1" d="M12.07,31.68l-.29-.14A.69.69,0,0,0,12.07,31.68Z"/><path class="cls-1" d="M24.82,12.13l-.85.15C23.94,12.4,24.41,12.22,24.82,12.13Z"/><path class="cls-1" d="M68.87,6a1.83,1.83,0,0,0,.46-.11L68.9,6Z"/><path class="cls-1" d="M38.49,8.39l.26-.06a1,1,0,0,0,.18-.17Z"/><path class="cls-1" d="M49.19,6.38c-.24,0-.28.32-.36.45a1,1,0,0,1,.5-.27S49.29,6.45,49.19,6.38Z"/><path class="cls-1" d="M66.39,5l.3,0Z"/><path class="cls-1" d="M30.89,10.12a.2.2,0,0,0-.12-.07A.16.16,0,0,0,30.89,10.12Z"/><path class="cls-1" d="M92,4.74s0,0,0,0S92,4.75,92,4.74Z"/><path class="cls-1" d="M79.43,5.06l.17,0a.43.43,0,0,0,0-.16Z"/><path class="cls-1" d="M21.57,35.27l0,0C21.27,35.21,21.41,35.25,21.57,35.27Z"/><path class="cls-1" d="M113.49,40.34c-1-.24,1.7-.34.13-.6C113.76,39.85,112.19,40.19,113.49,40.34Z"/><path class="cls-1" d="M68.59,6l-.44,0A2.36,2.36,0,0,0,68.59,6Z"/><path class="cls-1" d="M113.62,39.74h0l-.17,0Z"/><path class="cls-1" d="M44.53,39.12a.65.65,0,0,0-.22-.15S44.36,39,44.53,39.12Z"/><path class="cls-1" d="M27.48,36.14l.41.12A3.44,3.44,0,0,0,27.48,36.14Z"/><path class="cls-1" d="M53.5,39.38a2,2,0,0,0,.63.06l-.1,0A1,1,0,0,1,53.5,39.38Z"/><path class="cls-1" d="M62.81,39.74l-.17-.06h-.3Z"/><path class="cls-1" d="M120.1,2.78a1.4,1.4,0,0,1-.43-.24C119.82,2.74,118.46,2.85,120.1,2.78Z"/><path class="cls-1" d="M68.86,5.89a.36.36,0,0,1-.27.13l.31,0S68.93,5.91,68.86,5.89Z"/><path class="cls-1" d="M54,37.19l1.46.12C55.05,37.26,54.52,37.22,54,37.19Z"/><path class="cls-1" d="M170.42,26.42l.05-.3A.7.7,0,0,0,170.42,26.42Z"/><path class="cls-1" d="M59.82,37.44a3.82,3.82,0,0,0,.82.22.42.42,0,0,0,.18-.07Z"/><path class="cls-1" d="M119.66,2.54h0Z"/><path class="cls-1" d="M110,3.6c1.4-.06.64-.4.93-.62,1.67-.19.79.23,1.36.39,1-.15,1.83-.51,2.61-.53.06.06.21.07,0,.16,1.09-.35,3.28-.14,4.55-.55a.31.31,0,0,1,.17.09.49.49,0,0,1-.21-.5c.63,0,1.16-.27,1.41,0a.94.94,0,0,0-.6.18l.66-.12c.6.33-.9.14-.89.4a24,24,0,0,1,3.76-.4c.22.33-2.3.17-1,.44l-1.53-.09c1.18.5-.92,0,.16.53,2,0,2.24-.23,4.24-.17.45-.2-.15-.28.3-.48,2.84-.39,2.25.82,4.34.33a2.7,2.7,0,0,1,2.23-.45l-.5.39c1.94,0,1.1-.57,3.14-.33-.36.15-1.52.14-1.23.18,1.32.29.93-.22,1.95-.23l.21.34c2.07-.07,4.35-.35,6.62-.37-.12.1-.51.2,0,.31a29.56,29.56,0,0,1,8.68,1l1.07-.08c.23.05.4.23.13.22,1,.36.1-.16.61-.16s.72.37.34.35a17.3,17.3,0,0,1,3.47.83,11.07,11.07,0,0,1,3.17,1.76l-.37-.11c1.2.89,1.78.42,2.74,1.51l-.25-.13a28.37,28.37,0,0,1,3.59,3.51A12.61,12.61,0,0,1,168.22,15c.29.1.66.83.94,1.56s.55,1.41.88,1.4a11.32,11.32,0,0,1,.22,1.72c0,.43.11.95.2,2.21.06.66.49,1,.56,1.81l-.3,0c.1.37.19.75.26,1.14-.14.19-.29.37-.44.54s0,.51-.07.76c.08-.29.27-.6.34-.54a4.34,4.34,0,0,1-.59,1.83c-.31.51-.61.84-.7.82a11.17,11.17,0,0,1-1.39,2.49c-.06-.14.23-.53.39-.88-.72,1.38-.39,0-1.12,1.24.18-.09.06.2.08.27-.62.39-1.86,1.4-2.85,2.08l.08-.3a21,21,0,0,1-6.52,2.61c.9-.1.79.31.07.5L157.9,36c-.43.29.79,0-.13.4-1,.14-.7-.25-.19-.45l-1.11.31c-.08-.09.18-.18.23-.31-.44.28-2,0-2.65.37l-.08-.08c-2.54.24-3.72.4-5.84.54,0,.28-.86.26-1.48.52-1.57,0-3.32-.14-5.2,0-1.32.21-.38.26-1,.45-.11-.25-2-.15-1-.37-2.26.13-2.89.17-5.74.47.31.1.66.13.48.22-.52.06-1.18-.06-1.11-.19l.13,0c-3.2.49-7.43-.54-10,0l.14,0-2.65.32c-1.22,0,.73-.2-.18-.35-2.85.48-4.52,0-6.88.32-1.83-.74-6.47.1-8.94-.38l.14.18c-.63.17-.77-.1-1.24-.14.07.14.69.16.3.25-5.4.23-11.14-.26-16.67-.45-2-.06-1.16.91-3.71.47l.73-.32c-4.09.37-8.36-.07-12.36.23.24-.07.25-.17.64-.17a6.81,6.81,0,0,0-3.13.15c-.63,0-.15-.17-.53-.28-.84-.15-2.13.27-2.57,0-.08,0,.24-.07.39-.09-.55.11-2.56-.08-2,.21-1.5-.16-2.87,0-4.06-.15-.78.29-2.55-.23-2.81.19.12-.44-2.61-.47-3.56-.31.32-.12-.82-.19-.44-.36-1.07,0-2.06,0-1.89.22-1.94-.66-4,.15-5.07-.63-3.21,0-6.17-.2-9-.48.16-.42,3.16.36,3.1-.13a39.67,39.67,0,0,1-7-.51c-.68-.17.42-.13.67-.17-2.72-.25-5.17-1-7.58-1.25,0,0,.28,0,.53,0-.47-.09-1.07-.31-1.06-.1l.46,0c.68.46-2,.18-2.11.3.93-.37-2.29-.73-.86-1.13-.31-.05-.71-.05-.68.1-.44-.16-.56-.28-.06-.31-1.68-.33-1.15,0-2.64-.4,0-.09.34,0,.53-.11a7.61,7.61,0,0,1-2.84-.55c.09,0,0-.15.34,0-2.13-.67-3.8-.74-6-1.83.84-.12-.72-.45-.69-.85-.42-.14-.85-.27-1.26-.42l.41.38a15.32,15.32,0,0,1-2.89-1.21c.26.09.53.18.8.25a11.5,11.5,0,0,1-1.82-1,11.25,11.25,0,0,0,.92.76c-1.07-.44-.16.5-1.37-.45.27.17-.94-.69-1.18-1.28h0A3.15,3.15,0,0,1,4.2,25c0-.24.44-.07.44-.22a2,2,0,0,1-.7-1.26,8,8,0,0,1-.07-1.55c0,.23.18.29.24.24L4,21.71c.28-.4.38-.4.46-.26.4-.53.3-.51.15-.52s-.25-.06.5-.56c-.1.1,0,.09-.21.3A16.63,16.63,0,0,1,9.7,18.3c.63.16-1.41.66-.73.73,1.18-.49,2.37-1.1,3.57-1.64S15,16.34,16.14,16l-.45.12c.15-.63,1.84-.35,3-1-.28.14-.29.41-.23.33,1.63-.48,3.26-1.22,5.68-2.13l-.26.23c1-.2,2.55-.68,3.61-.92.27-.21.88-.36.46-.45,3.42-.14,6.07-2,9.12-2-.35.08-.8.3-.52.24.81-.22,1.62-.47,2.43-.67-.24-.19-.35-.08-.91-.14A4.83,4.83,0,0,1,39.6,9c-1.08.37.09.36.59.39-.09-.06.06-.17,0-.23,1.38.14.13-.5,2-.58l-.07.13a10.85,10.85,0,0,1,2-.55c.34.21-.69.24-.69.47,1-.2,1.89-.85,2.85-.75-.41.15-1,.26-1.44.41a5.45,5.45,0,0,0,1.89-.05h-.07c.57-.06,1.15-.11,1.72-.15h-.44C49,7.17,50.4,7.53,52,6.82c-1.6.68-.24.29-.33.61.45,0,1.12,0,.95.13.77-.34,1.37,0,2.46-.47.06.09.86-.1.71.16,1-.21-.27-.13-.19-.27,1.58-.53,3.84,0,6.13-.68,2-.34,2.35-.71,4.22-1,.64.12-.5.38-.5.38a10.1,10.1,0,0,0,2.76-.14c-.19.1,0,.16.31.25.77-.06.5-.38,1.52-.29a2.7,2.7,0,0,1-.75.43c.9-.14,1.8-.34,2.74-.46.25.17-.56.28-.89.4a10.9,10.9,0,0,0,3.06-.51l-.68-.08c.38,0,.2.23-.08.29-.91.23-1.32-.06-1.37-.16l.67-.08c-.71-.55-2.7.15-4,.21l.55-.45-1.38.42c-.3-.09-.51-.31.15-.41-1-.16-.85.19-1.69,0-.1,0-.06-.06,0-.08-.32.06-.63.11-.94.18.18-.1-.18-.28.41-.26-1.73-.12-2.73.52-3.39.25l.14,0c-2.35.32-.21.31-1.94.82l-1.26-.63-.2.33c-.25,0-.73,0-.65-.09-.89.3.16.12-.34.37C57,5.79,55,6.46,54.7,6c-.39.28,1.13,0-.09.36-.42-.48-1.43.27-2.53.16.29-.31,1.33-.29.22-.4-.58.53-2.08.21-3,.43,0,.37-1.93.43-3.4.83a40,40,0,0,0-4.27.45l0-.07c-.2.41-1.65.64-2.67.92,0-.22.16-.34.71-.56l-1,.2a3.32,3.32,0,0,1-1.13.47l.19-.32A31.92,31.92,0,0,1,33.56,9.6c0,.27,1.48.37-.23,1-.1-.12-.22-.33.23-.51a2.77,2.77,0,0,1-.83.27l.65-.4c-.78.09-.35.29-1,.42,0-.2-.48,0-.43-.2a3.36,3.36,0,0,0,.76-.19,6.1,6.1,0,0,1-1.86.16c.09.1.07.26-.42.41-1.29.34-.5-.12-1.28,0-.28.22-1.13.31-1.08.6a.9.9,0,0,1-.65,0c-.62.32-3.09.91-2.25,1l.17,0-.1,0h0c-2.07.94-4.54,1.17-6.62,2l0-.1A32,32,0,0,0,15,15.55c-.38.14-.94.15-.82,0a9.39,9.39,0,0,1-2.45.91c.9-.51-.39,0,.94-.47a7.82,7.82,0,0,0-2.84,1.11c.36-.41-1.05.07-1.61.37l.93-.17c-.65.29-1.23.5-1.83.71l.19-.44a6.94,6.94,0,0,0-3.48,2,5.83,5.83,0,0,0-1.1,1.67,10.11,10.11,0,0,0-.62,1.88c.13.45.15,0,.22-.48s.28-.9.32-.49A5.52,5.52,0,0,0,3,25.62,2.85,2.85,0,0,0,4.25,27a8.14,8.14,0,0,1,1.5,1.1c-.11-.25-.09-.59,1.07.1s1.1,1.24.33.92c-.27-.16-.38-.27-.35-.3-.38-.2-.87-.48-.51-.08H6.5c.46.5,2.1,1.33,1.63,1.3.95.32.47,0-.16-.37a41.62,41.62,0,0,0,3.81,1.83c-.22-.17-.39-.39-.15-.29,2.21,1,1.08.2,2.64.75.81.48-.47.29,1.15.71.91.46.09.37-.32.32a17.92,17.92,0,0,1,3.46,1.37l-.79-.15a10.32,10.32,0,0,1,1.23.33l-.37-.37c.44.18.82.3.78.4.51,0-.24-.48.74-.42.57.29,1.86.4,2,.76-1.87-.63.12.37-1.5,0a6.45,6.45,0,0,1,1.14.33c.06,0-.08,0-.21,0,1.76.75.93-.1,2.82.37-.28.11.36.44.68.48-.77-.2-.3-.38.43-.34a8.83,8.83,0,0,0,2,.36l-.71-.23a5.61,5.61,0,0,1,1.75.17c0,.15-.79-.07-.5.05,1-.1,2.07.76,3.43.8.59.22,0,.33.53.51,1.52,0,1.57.52,3.17.58-.42-.31-.5-.25.63-.32l-2.6-.24,1.71-.08c-.77-.13-1.66-.11-2.12-.23.82-.06.73,0,.39-.27,1,.52,2.13.14,3.32.55l-.12.58c1.82.53,3.33.15,5.72.57l-.76-.19c.34-.19,1.49.13,2.28.12-.1.19.38.31.71.46,0-.15,1.76.18,2-.19l1.05.34c1.94.27,2.27-.39,4.13-.19-.58.17.27.37-1,.44.63,0,1.19.11,1.21,0,.36.14,1.75-.16,2.31,0a1.85,1.85,0,0,1,1.07-.22c.07,0,0,.09,0,.09s1.11-.07.5-.32c1.9.71,5.39.17,7,.73,1.37,0,3-.06,4.25,0-.08.06,0,.1-.24.07,1.71.21,1.06-.54,3-.31,1,.33-1,.16-.41.28.26.66,2.35-.06,3.65.33l-.32,0c1,.23,2.45-.23,4.08-.17,0,0-.08.06,0,.1a26.25,26.25,0,0,1,4.81-.5c-.49.25-.72.13-.42.39.7,0-.21-.42,1.2-.48.46.14,1.47.27,1.6.54H82.51c.67.36,1.71,0,2.41.06l-.09.16c2,0,2.07-.43,4.25-.39l-.22-.12c1.19-.39,1,.22,2.19-.06l.36.39c.78-.09,2.76-.37,4.17-.44a26.33,26.33,0,0,1-3.48.61,13.77,13.77,0,0,0,3.06-.22,3.2,3.2,0,0,1-1,.07,12.71,12.71,0,0,1,3.78-.44c-.28.76,4,.19,5.18.78,2.76-.28,5.47.11,8.68,0-1.14-.59.94,0,.73-.64a3.67,3.67,0,0,1,1.1,0l2.27.34c.54.17-.71.14-.64.28,1.64,0,.69.25,1.78.4-.23-.22.56-.32,1.5-.25l-1.32-.27c2.28-.35,2,.49,4.29.13l-.73.2c1.18-.13,4.37-.08,5.52-.59.21.06.49.22,0,.28,2.83,0,6.28-.69,8.49-.47l-.21.16a4.07,4.07,0,0,1,1.57-.18c0,.06-.21.15,0,.15a8.59,8.59,0,0,1,2.09-.25l-.59.19c2.77.09,4.22-.59,6.52-.8,0,.44,2.2.47,3.28.48l0,.07a53,53,0,0,0,8.43-1.2,13.9,13.9,0,0,0,4.3-.53,29.93,29.93,0,0,0,5-1.78c-.47.16-.09-.34.36-.65.69-.3,1.52-1.37,1.66-1l-.22.15c.69,0,1.86-1.06,2.68-2l-.25-.5a8.31,8.31,0,0,0,3-4.59c.54-1.87.46-3.58.77-4.45a16.46,16.46,0,0,0-.54-2.4h.28a16.89,16.89,0,0,0-1.74-5.38l.4.39a2.84,2.84,0,0,0-1.07-1.27,4,4,0,0,1-1.11-1.1l.16-.56c-1.31-2.07-2.7-4.29-4.81-5.64.07,0,.21-.06.52.2a24,24,0,0,0-2-1.76c-.76-.57-1.43-.89-1.41-.53.21-.36-2.16-1.41-3.44-1.77l.3-.17a11.13,11.13,0,0,1-2.73-.5c-.33-.15-.23-.32.21-.09-1.12-.53-1-.06-2.37-.59l.58,0a3.21,3.21,0,0,0-1.86-.17A5.65,5.65,0,0,1,150.08,1a2.71,2.71,0,0,1-1.61.09c-.09-.1.18-.13.32-.15-2.06-.4-3.1.07-4.51-.26A.3.3,0,0,0,144,.49c1.65.05,3,.17,2.85.18,0-.25-1.32-.38-.22-.67a22.87,22.87,0,0,1-4.24.33.56.56,0,0,1-.17-.09l.14,0a2.74,2.74,0,0,0-.82,0,10.29,10.29,0,0,0-1.07-.09C140.35,0,139,.05,138.33.05c.06.28-.81.24,0,.47-.1,0,.13,0,.56-.05l.28,0,0,0,1.64,0A3.59,3.59,0,0,1,139,.55c-.34.18-.71.37-.92.46-.9-.38-2.64-.58-2.88-.82-2,.17-4.73.15-6,.7a1.08,1.08,0,0,1-.87-.22,8.67,8.67,0,0,0,.9-.13c-1.14.14-3.38.1-3.65.48-1.44-.14.8-.36-1.17-.26l.26-.11c-3.91-.5-6.29,1.09-10.63.51a1.12,1.12,0,0,1,.52.11c-4.94-.14-10.11.81-15,.68a5.16,5.16,0,0,0-2.33.51l-.33-.27-1.4.48c-2,.44-3.6-.38-6.11.4l.35.16c-.93.08-2.9.49-2.78.23a.83.83,0,0,1-.65.2l0-.16L84,4.09c-1.77.14.18-.68-2.38-.31-.94.21-2.63.88-2.25.93s1-.06,1,.09L79.6,5c-.08.49-.66,1.06,1.5,1.05l1.43-.52L83,5.7l-1.24.21a2.76,2.76,0,0,0,1.64-.36,1,1,0,0,0,.65.16l1.39-.64c.2.15-.6.45.38.41.65-.3-.7-.31.4-.6.74.11.55.3,1.36,0,.13.11,0,.2-.36.3a13.3,13.3,0,0,0,2.31-.6c.76.16,2.49-.35,2.47.09A8.33,8.33,0,0,1,94,4.11c-1.19.65,2.56-.22,2.28.38.88-.57,3.31-.51,4.93-.9a.83.83,0,0,1-.41.12,9.35,9.35,0,0,1,1.8.14c.09-.4,1.52-.59,2.28-.89,1.15.3-.66.51-.28.85-.08-.32,1.94-.44,1.54-.68.88.18.76.07,1.22.36.12-.49.8-.13,1.5-.47,1.27.18.35.44,1.71.23C111.22,3.36,110,3.6,110,3.6Zm32.75-1.54h-.67Zm2.73.09c-.33,0-.74,0-1.18-.06-.09-.1,0-.2.29-.18C144.44,2,145.08,2.05,145.48,2.15ZM139.68.09c.44,0,.59,0,.65.08l-.77,0-.05,0A.42.42,0,0,1,139.68.09Z"/><path class="cls-1" d="M138.89.47c-.06,0-.09,0-.18,0l.27.06.15-.09Z"/><path class="cls-1" d="M25.21,12.06h.07S25.24,12.07,25.21,12.06Z"/><polygon class="cls-1" points="170.65 23.68 170.72 23.68 170.65 23.46 170.65 23.68"/><path class="cls-1" d="M40.19,9.35a.48.48,0,0,0,.21,0S40.3,9.35,40.19,9.35Z"/><path class="cls-1" d="M46.64,8.2l.93-.06C47.16,8.15,46.87,8.18,46.64,8.2Z"/><path class="cls-1" d="M51.63,7.56a.28.28,0,0,0,.08-.13h0Z"/><path class="cls-1" d="M27.55,34.23l.19,0C28.19,34.3,27.89,34.26,27.55,34.23Z"/><path class="cls-1" d="M5.52,26.4l.63.4C5.86,26.52,5.65,26.29,5.52,26.4Z"/><path class="cls-1" d="M53.84,37.18h0Z"/><path class="cls-1" d="M7,27.45a6.87,6.87,0,0,0-.84-.65A4.1,4.1,0,0,0,7,27.45Z"/><path class="cls-1" d="M73.35,5.91h.24a.05.05,0,0,1,0,0Z"/><path class="cls-1" d="M73.62,5.87l.27,0A.58.58,0,0,0,73.62,5.87Z"/><path class="cls-1" d="M74.45,5.75l-.56.08A1.19,1.19,0,0,0,74.45,5.75Z"/><path class="cls-1" d="M66.7,6.05l-.07.11A.14.14,0,0,0,66.7,6.05Z"/><path class="cls-1" d="M64.68,6.21a14.28,14.28,0,0,0,1.89,0l.06-.08C66.32,6.32,65.12,6,64.68,6.21Z"/><path class="cls-1" d="M56.12,5.74c.57,0,1.14-.07,1.71-.1-.31-.08-.71-.18.06-.29C55.71,5.25,58.35,5.54,56.12,5.74Z"/><path class="cls-1" d="M50.86,6.27c.9-.19,0-.15,0-.22C50.3,6.24,50.16,6.28,50.86,6.27Z"/><path class="cls-1" d="M13.79,15.57V15.3C13.14,15.57,13.82,15.39,13.79,15.57Z"/><polygon class="cls-1" points="7.46 19.41 8.15 19.3 8.37 18.97 7.46 19.41"/><path class="cls-1" d="M2.8,20.72A2.53,2.53,0,0,1,3,20.35a5.15,5.15,0,0,0-.57,1.43A5.2,5.2,0,0,1,2.8,20.72Z"/><path class="cls-1" d="M61.15,40l-.21-.32C60.46,39.67,60.35,40,61.15,40Z"/><path class="cls-1" d="M88.83,39.93a2.51,2.51,0,0,0,1.56.11C89.77,40,89.15,39.89,88.83,39.93Z"/><path class="cls-1" d="M170.65,31.26l-.29.55c.22-.31.41-.65.62-1Z"/><path class="cls-2" d="M76.75,5.22c-.2.09-.08.28.45.23l.37-.34Z"/><path class="cls-2" d="M80.35,5.75c.62-.18,1.34-.48.92-.77-.61.33-.76.2-1.42.59-.54.06-.94-.08-.85-.2-.19.09-.83-.06-1.11.16a4.39,4.39,0,0,0,2.49,0C80.58,5.59,80.39,5.68,80.35,5.75Z"/><path class="cls-2" d="M132.49,5l-.34,0A1.65,1.65,0,0,0,132.49,5Z"/><path class="cls-2" d="M163.34,10.28c-.2-.13-.3-.16-.32-.14C163.21,10.25,163.36,10.34,163.34,10.28Z"/><path class="cls-2" d="M166.42,14.35l-.11-.27A.56.56,0,0,0,166.42,14.35Z"/><path class="cls-2" d="M132.49,5l.86.08C133.41,5,132.91,5,132.49,5Z"/><path class="cls-2" d="M87.52,4.77a2.76,2.76,0,0,0-.47.1l.44,0S87.5,4.79,87.52,4.77Z"/><path class="cls-2" d="M118.26,5.61H118l-.21.14Z"/><path class="cls-2" d="M107.33,5.93c.25,0,.33-.28.42-.4a1.09,1.09,0,0,1-.53.2S107.25,5.85,107.33,5.93Z"/><path class="cls-2" d="M90,5.85l-.3.05Z"/><path class="cls-2" d="M126.08,5.48a.19.19,0,0,0,.1.1S126.14,5.51,126.08,5.48Z"/><path class="cls-2" d="M67,5s0,0,0,.05S67,5,67,5Z"/><path class="cls-2" d="M79.66,6.36h-.18a.53.53,0,0,0,0,.16Z"/><path class="cls-2" d="M167.44,23.76v0C167.42,23.47,167.42,23.61,167.44,23.76Z"/><path class="cls-2" d="M84,40.07c1,.21-1.69.4-.1.61C83.72,40.58,85.29,40.18,84,40.07Z"/><path class="cls-2" d="M87.8,4.8h0Z"/><path class="cls-2" d="M83.88,40.68h0l.16,0Z"/><path class="cls-2" d="M152.65,36.35a.5.5,0,0,0,.26,0S152.84,36.36,152.65,36.35Z"/><path class="cls-2" d="M167,29.27l-.19.34A2.48,2.48,0,0,0,167,29.27Z"/><path class="cls-2" d="M144.13,39a2.26,2.26,0,0,0-.61.11h.1A1.17,1.17,0,0,1,144.13,39Z"/><path class="cls-2" d="M135,40.29l.17.05.29,0Z"/><path class="cls-2" d="M38.49,7.69a1.44,1.44,0,0,1,.46.19C38.78,7.7,40.14,7.43,38.49,7.69Z"/><path class="cls-2" d="M87.53,4.93a.36.36,0,0,1,.27-.13l-.31,0S87.46,4.91,87.53,4.93Z"/><path class="cls-2" d="M144.22,41.25l-1.5.26C143.14,41.45,143.69,41.36,144.22,41.25Z"/><path class="cls-2" d="M21.09,37.51l-.35-.06A1.22,1.22,0,0,0,21.09,37.51Z"/><path class="cls-2" d="M138.27,42.23a4.32,4.32,0,0,0-.88-.1.68.68,0,0,0-.17.09Z"/><path class="cls-2" d="M39,7.88h0Z"/><path class="cls-2" d="M48.64,6c-1.42.14-.62.43-.9.67-1.68.3-.81-.18-1.41-.3-1,.22-1.81.64-2.6.74-.06,0-.22-.06,0-.15-1.07.44-3.3.44-4.54,1-.1,0-.16,0-.18-.07a.49.49,0,0,1,.27.47c-.63.1-1.13.41-1.41.21a1,1,0,0,0,.58-.26l-.65.2c-.65-.25.88-.25.85-.5a32.79,32.79,0,0,1-3.73.89c-.26-.3,2.29-.5.92-.58l1.55-.11c-1.25-.35.94-.1-.23-.51-2,.22-2.22.54-4.24.77-.42.26.2.25-.22.52-2.77.85-2.39-.45-4.39.4a2.78,2.78,0,0,1-2.15.86l.43-.47c-1.94.35-1,.75-3.06.94.33-.23,1.49-.46,1.19-.44-1.37,0-.88.41-1.89.63l-.28-.29c-2,.5-4.22,1.27-6.47,1.89.1-.13.46-.33-.1-.3a75,75,0,0,0-8.85,3c-.28.27-.57.53-.83.82S5.76,16.18,6,16c-1,.54,0,.19-.35.59s-.81.37-.52.05a22.61,22.61,0,0,0-2.75,2.91A14.22,14.22,0,0,0,.17,23.17c0-.17,0-.33,0-.49a2.77,2.77,0,0,0,0,2.09c.2.54.42,1,.78,1.82l-.23-.27a7.46,7.46,0,0,0,2,2.19c.72.54,1.42,1.11,2.14,1.61,1.43,1,2.82,1.88,3.9,2.72.33-.07,1.08.37,1.82.78s1.48.7,1.7.48l1.55,1A13.65,13.65,0,0,0,16,36.19c.71.27,1.18,0,2.09.22l-.07.3,1.3.06.55.53.86.15c-.33-.11-.67-.32-.6-.4a8.73,8.73,0,0,1,3.16,1.18c1.06.16,2.13.28,3.19.41-.09.11-.63,0-1.06,0,1.74,0,.24.39,1.84.4-.19-.11.15-.16.19-.22a15.66,15.66,0,0,0,3.8.76l-.29.17c2.34.43,5,.63,7.58,1-.93-.23-.66-.56.11-.5l.26.37c.53-.14-.78-.23.27-.34,1,.16.61.45,0,.48l1.21,0c.06.1-.23.12-.32.23.51-.14,2,.59,2.77.33l0,.1c2.63.33,3.84.36,6,.57.07-.27.91-.13,1.57-.29a49.66,49.66,0,0,0,5.22.74c1.35,0,.41-.21,1-.34.09.26,2,.36,1,.48a55.12,55.12,0,0,0,5.85,0c-.31-.11-.67-.16-.48-.25.53,0,1.19.13,1.12.26l-.14,0c3.25-.3,7.53.76,10.11.16l-.14,0,2.68-.36c1.23,0-.74.21.18.34,2.88-.53,4.58-.11,7-.51,1.88.68,6.53-.37,9,0l-.15-.17c.63-.2.78.07,1.25.09-.07-.14-.7-.13-.31-.25a143.93,143.93,0,0,1,16.75,0c2,0,1.16-.94,3.71-.46l-.73.32c4.1-.36,8.32.34,12.38.29-.24.06-.26.16-.65.14a6.63,6.63,0,0,0,3.19,0c.64,0,.14.18.53.3.86.18,2.19-.24,2.64,0,.08,0-.24.07-.4.09.57-.1,2.65,0,2.1-.25,1.56.1,3-.27,4.19-.22.77-.38,2.65-.17,2.84-.65,0,.48,2.73-.07,3.63-.49-.29.2.86,0,.52.23,1.09-.24,2.06-.55,1.81-.74,2.13.06,3.85-1.43,5.13-1.08L160,36.18c0,.46-3.06,1-2.8,1.44,1.3-.51,2.29-1,3.29-1.42l3.39-1.42c.71-.28-.3.37-.51.54A12.69,12.69,0,0,0,167,32.76a8.08,8.08,0,0,0,2-3.68,1.47,1.47,0,0,1-.07.58c.17-.51.46-1.16.24-1.16,0,.17-.06.34-.1.51-.29.35-.23-.19-.22-.82a4.81,4.81,0,0,0,0-1.41c.23.47.36-.14.5-.7s.23-1,.54-.34c0-.34-.07-.76-.22-.69.07-.49.16-.65.29-.14,0-1.82-.27-1.17-.3-2.78.1,0,.15.32.27.49a11.43,11.43,0,0,1-.47-3c.07.07.13-.09.17.31a16.63,16.63,0,0,0-.62-3.14,29.38,29.38,0,0,0-1.15-3.24c.75.5-.3-.87-.09-1.18a11.63,11.63,0,0,0-1-1.12c.08.2.16.38.23.57a24.83,24.83,0,0,0-2.5-2.32c.27.16.54.31.8.48a17.34,17.34,0,0,0-1.86-1.36c.33.28.65.57,1,.88-1.1-.59-.17.43-1.41-.57.29.14-1-.66-1.45-1.12h0a9.76,9.76,0,0,1-1.94-.8c-.16-.21.34-.3.24-.44-.65,0-2.67-1-3.48-.86.25,0,.33-.18.26-.24L156,5.6c-.51-.22-.58-.28-.45-.41-1.61-.47.39.58-1.48-.09a2.23,2.23,0,0,1,.42,0A45.28,45.28,0,0,0,149,4.21c-.5-.43,1.59.08,1-.3-2.64-.26-5.46,0-8-.07l.47.05c-.36.52-1.88-.27-3.16,0,.31,0,.41-.3.32-.24a54.35,54.35,0,0,0-6.12.43l.32-.14c-1-.1-2.67,0-3.77,0-.32.14-1,.13-.57.32-3.39-.69-6.43.57-9.44,0,.36,0,.85-.14.57-.13l-2.55.18c.2.23.34.14.88.3a5.24,5.24,0,0,1-1.67.29c1.14-.18,0-.37-.52-.49.08.07-.09.15,0,.22-1.35-.38-.21.47-2,.24l.09-.12a14.62,14.62,0,0,1-2,.23c-.31-.26.73-.14.77-.36-1,0-2,.55-3,.31.44-.08,1.07-.1,1.51-.19a5.65,5.65,0,0,0-1.9-.23h.07l-1.75-.1.45.08c-1.28.72-2.63.19-4.36.69,1.68-.48.28-.26.4-.57-.45-.07-1.12-.15-.93-.24-.82.27-1.38-.16-2.53.23-.06-.1-.88,0-.7-.24-1.07.1.25.16.17.29-1.64.37-3.89-.31-6.25.2-2,.24-2.4.58-4.3.79-.64-.14.52-.37.52-.37a10.29,10.29,0,0,0-2.78.06c.19-.09,0-.15-.31-.26-.78,0-.52.37-1.55.25a2.92,2.92,0,0,1,.77-.41c-.92.11-1.82.32-2.77.43-.26-.17.57-.27.9-.39a10.87,10.87,0,0,0-3.1.5l.69.08c-.39,0-.2-.23.08-.29.92-.23,1.33.06,1.38.16l-.67.08c.71.55,2.72-.16,4.09-.16l-.56.43,1.39-.38c.3.1.51.33-.16.41,1,.18.86-.17,1.71,0,.09,0,0,0,0,.07l1-.14c-.19.09.16.29-.43.24,1.73.2,2.77-.38,3.42-.08l-.14,0c2.38-.2.22-.31,2-.71L97,5.91l.23-.31c.24,0,.73,0,.64.14.91-.23-.16-.13.37-.34,1.19.25,3.26-.21,3.54.27.42-.24-1.14-.15.12-.34.37.51,1.46-.13,2.54.09-.32.28-1.35.16-.26.37.64-.47,2.11,0,3-.06,0-.36,2-.2,3.5-.36-.09.13,2.88.13,4.31.23l0,.06c.27-.37,1.74-.34,2.8-.44,0,.22-.22.31-.8.43l1,0a3.35,3.35,0,0,1,1.2-.25l-.25.28a30.77,30.77,0,0,1,4.42-.25c.09-.26-1.39-.68.43-.89.07.13.14.37-.34.44a3,3,0,0,1,.87-.08l-.72.25c.79.08.41-.2,1-.2,0,.2.47.13.39.29a3.06,3.06,0,0,0-.79,0,6.15,6.15,0,0,1,1.85.25c-.07-.11,0-.26.51-.3,1.34,0,.46.23,1.24.31.33-.15,1.18,0,1.2-.32a1,1,0,0,1,.62.2c.69-.14,3.23-.11,2.44-.41h-.18l.12,0h0c2.26-.34,4.71.05,7-.12v.1c1.34-.14,3-.09,3.94-.3.39,0,.93.2.76.32a7.75,7.75,0,0,1,2.6.07c-1,.12.35.17-1,.08a10.1,10.1,0,0,0,3,.16c-.5.21,1,.41,1.58.41L149,5.37a14.09,14.09,0,0,1,1.93.25l-.38.28a20,20,0,0,0,3.61.56,5.85,5.85,0,0,1,3,1c.74,0-1.32-.6-.64-.67a6.29,6.29,0,0,1,1.56.86c.44.3.77.57.93.65,1.41.86,1.62.24,3.07,1.22-.13-.21-.14-.62,1,0,1,.77.89,1.3.24.91-.23-.17-.33-.28-.29-.3-.34-.2-.8-.44-.48-.07h.2c.44.42,1.66,1.48,1.24,1.38.71.52.43.11,0-.38a12.46,12.46,0,0,1,2.36,3c-.06-.24-.06-.5.06-.29.48,1,.57,1.23.71,1.34s.28.14.51.9c0,.92-.46-.22,0,1.3,0,1-.27.24-.44-.11a10,10,0,0,1,.19,3.55l-.15-.77a8.59,8.59,0,0,1,.14,1.23l.21-.46c0,.46,0,.85-.09.84.18.46.38-.38.63.55-.09.61.14,1.86-.18,2.05.14-1.89-.3.21-.36-1.39a4.29,4.29,0,0,1,0,1.13c0,.07-.06-.06-.08-.19-.36,1.75.36.84.13,2.67-.14-.25-.39.36-.42.64.15-.69.36-.29.36.41a6,6,0,0,0-.33,1.09,1.93,1.93,0,0,1-.17.7c.11-.2.22-.41.31-.62a2.87,2.87,0,0,1-.48,1.57c-.15,0,.27-.69.08-.46a2.27,2.27,0,0,1-.8,1.25,13.63,13.63,0,0,0-1.27,1.17c-.52.25-.24-.22-.68,0a2.5,2.5,0,0,1-1.21.69,6.43,6.43,0,0,0-1.41.56c.48.07.55,0-.39.58a15.25,15.25,0,0,0,2.21-1.12,12.92,12.92,0,0,1-1.3,1,17.35,17.35,0,0,0,1.78-1c-.55.53-.53.44-.12.44-1,.17-1.79,1.06-3.06,1.23l-.15-.58c-1.84.33-3.06,1.33-5.41,1.91l.77-.14c-.23.33-1.41.49-2.13.81,0-.21-.48-.14-.84-.16.08.13-1.69.5-1.8.93l-1.1.05c-1.91.41-2,1.13-3.85,1.51.5-.34-.36-.28.82-.72-.6.14-1.16.24-1.13.38-.38,0-1.63.64-2.23.57a1.75,1.75,0,0,1-1,.48c-.08,0,0-.1,0-.1s-1.05.33-.41.44c-2-.23-5.33.85-7.05.4a38.6,38.6,0,0,1-4.22.23c.08-.06,0-.1.24-.07-1.7-.22-1.06.55-3,.26-1-.37,1-.12.43-.27-.24-.66-2.35,0-3.64-.51h.32c-1-.29-2.47.07-4.11-.08,0,0,.08-.06,0-.1a29.91,29.91,0,0,1-4.88.29c.51-.23.73-.1.44-.37-.72,0,.19.41-1.23.45-.46-.15-1.48-.29-1.61-.57h1.34c-.68-.37-1.73,0-2.44-.1l.09-.15c-2.06,0-2.09.43-4.29.39l.23.12c-1.21.39-1-.21-2.22.1l-.37-.39c-.79.1-2.77.43-4.2.56a23.23,23.23,0,0,1,3.5-.71,13.57,13.57,0,0,0-3.09.3,3.64,3.64,0,0,1,1-.1,12.89,12.89,0,0,1-3.79.57c.25-.77-4.1,0-5.26-.56-2.76.41-5.51.15-8.73.35,1.17.54-.94.06-.72.66a3.35,3.35,0,0,1-1.1,0l-2.29-.26c-.55-.15.7-.16.63-.3-1.65,0-.7-.23-1.8-.34.24.21-.55.33-1.49.29l1.33.23c-2.29.41-2-.43-4.31,0l.73-.21c-1.19.15-4.37.12-5.53.62-.21-.07-.49-.23,0-.29-2.83,0-6.3.55-8.5.19l.22-.15a3.73,3.73,0,0,1-1.58.08c0-.06.21-.14,0-.16a8.16,8.16,0,0,1-2.1.09l.6-.14c-2.74-.31-4.25.17-6.57.08,0-.43-2.11-.77-3.18-.95l.05-.06c-3.19-.39-5.48-.24-8.47-.45-1.78-.71-6.21-1-9.1-1.71.43.14-.13.32-.66.29-.67-.19-1.95,0-1.77-.39l.24,0c-.45-.47-1.87-.61-3-.83l-.28.48a22.55,22.55,0,0,0-4.94-1.31c-.85-.19-1.66-.35-2.34-.55a4.77,4.77,0,0,1-1.55-.73c-.71-.07-1.51-.37-2.21-.47l.13-.25c-1.78-.73-2.65-1.12-4.82-2.06.17,0,.35,0,.52,0-1.17-.61-1.87,0-3-.61L8.8,30.3c-2-1.13-3.76-2.85-5.63-4,.07,0,.19-.06.46.15A4.14,4.14,0,0,1,2.53,25c-.18-.45-.16-.94-.47-.83.19,0,.21-.4.4-1a7.93,7.93,0,0,1,.85-1.9l.11.31a4.83,4.83,0,0,1,.39-1.07,4.68,4.68,0,0,1,.87-1.13c.27-.22.36-.05,0,.21,1-.64.48-.81,1.71-1.52l-.32.45a4,4,0,0,0,1.3-1.21c.6-.49,2.06-1,2.33-.84A2.27,2.27,0,0,1,11,15.55c.12,0-.1.2-.21.28,1.94-.56,2.75-1.32,4.18-1.45a.27.27,0,0,0,.27.09c-1.56.43-2.79.84-2.68.78.08.24,1.32-.12.46.54a12.56,12.56,0,0,1,3.79-1.61.59.59,0,0,1,.19.05l-.13.06a3.25,3.25,0,0,0,.78-.24c.41-.06.67-.08,1.06-.17.19.17,1.5-.23,2.14-.37-.11-.27.74-.42-.1-.46.1,0-.12.06-.54.17a1.18,1.18,0,0,0-.27.1l0,0-1.59.39a3.5,3.5,0,0,1,1.72-.51c.29-.25.61-.52.8-.65,1,.17,2.71,0,3,.2,1.93-.59,4.62-1.05,5.77-1.81a1.13,1.13,0,0,1,.9.07,8.25,8.25,0,0,0-.87.28c1.11-.34,3.33-.66,3.54-1.07,1.45-.07-.74.47,1.21.08l-.25.16c3.93-.07,6.13-1.92,10.54-1.74-.31,0-.46,0-.53-.06,4.93-.28,10.1-1.42,15-1.19A5.8,5.8,0,0,0,61.58,7l.31.29,1.43-.43c2-.33,3.57.59,6.15.07l-.34-.2c.94,0,3-.17,2.8.07a.83.83,0,0,1,.67-.11l0,.16,2.29-.28c1.78.12-.28.62,2.31.68,1,0,2.74-.41,2.38-.52s-1-.12-1-.28l.88-.07c.17-.46.87-.93-1.3-1.28l-1.52.26-.49-.24h1.28a2.8,2.8,0,0,0-1.7.08A1.2,1.2,0,0,0,75.11,5l-1.49.45c-.18-.18.67-.37-.33-.46-.69.2.67.4-.48.54-.73-.21-.52-.39-1.37-.2-.12-.11.06-.19.4-.25a13.35,13.35,0,0,0-2.39.35c-.77-.26-2.56.12-2.5-.31a8.37,8.37,0,0,1-2,.43c1.25-.58-2.61.07-2.3-.5-.92.52-3.39.38-5,.77A.83.83,0,0,1,58,5.65a11.43,11.43,0,0,1-1.83-.15c-.09.4-1.54.61-2.3.92-1.18-.29.66-.52.27-.85.08.31-2,.48-1.56.71-.89-.16-.76,0-1.24-.32-.11.5-.81.16-1.51.53-1.29-.11-.37-.42-1.75-.13C47.42,6.28,48.64,6,48.64,6ZM16.05,12.59h0l.67-.19Zm-2.72.77L14.51,13c.12.07.05.2-.23.27C14.41,13.18,13.76,13.31,13.33,13.36Zm6.19.4c-.41.14-.57.12-.64.08l.74-.21,0-.05A.34.34,0,0,1,19.52,13.76Z"/><path class="cls-2" d="M20.21,13.22l.17-.06h-.27l-.13.12Z"/><path class="cls-2" d="M132.09,5h.06a.34.34,0,0,1-.12,0Z"/><polygon class="cls-2" points="18.01 36.78 18.03 36.71 17.77 36.7 18.01 36.78"/><path class="cls-2" d="M116.75,4.37a.53.53,0,0,0-.21-.07A.66.66,0,0,0,116.75,4.37Z"/><path class="cls-2" d="M110.13,4.47l-.94-.08C109.6,4.44,109.89,4.46,110.13,4.47Z"/><path class="cls-2" d="M105,4.45a.31.31,0,0,0-.1.12h0Z"/><path class="cls-2" d="M168.89,29.66l-.08.2C168.66,30.35,168.78,30,168.89,29.66Z"/><path class="cls-2" d="M161.5,7.85c.25.08.5.16.75.26C161.88,7.88,161.58,7.71,161.5,7.85Z"/><path class="cls-2" d="M144.38,41.22h0l-.16,0Z"/><path class="cls-2" d="M163.22,8.73a3.93,3.93,0,0,0-1-.62A9.94,9.94,0,0,0,163.22,8.73Z"/><path class="cls-2" d="M83,4.86h-.25s0,0,0,.05Z"/><path class="cls-2" d="M82.71,4.9l-.28,0A.78.78,0,0,0,82.71,4.9Z"/><path class="cls-2" d="M81.86,5l.57-.08A1.27,1.27,0,0,0,81.86,5Z"/><path class="cls-2" d="M89.72,4.82l.07-.1A.12.12,0,0,0,89.72,4.82Z"/><path class="cls-2" d="M91.76,4.74a12.1,12.1,0,0,0-1.91-.1l-.06.08C90.11,4.56,91.3,4.93,91.76,4.74Z"/><path class="cls-2" d="M100.34,5.8l-1.72,0c.3.1.7.24-.08.28C100.71,6.31,98.09,5.81,100.34,5.8Z"/><path class="cls-2" d="M105.66,5.83c-.92.07,0,.15,0,.22C106.21,5.93,106.35,5.9,105.66,5.83Z"/><path class="cls-2" d="M144.07,5l-.1.26C144.67,5.27,144,5.19,144.07,5Z"/><polygon class="cls-2" points="151.51 4.32 150.84 4.07 150.47 4.25 151.51 4.32"/><path class="cls-2" d="M155.33,7,155,7c.38.07.76.14,1.12.23Z"/><path class="cls-2" d="M136.6,39.92l.24.3C137.31,40.12,137.37,39.76,136.6,39.92Z"/><path class="cls-2" d="M108.85,39.57a2.51,2.51,0,0,0-1.58-.09C107.9,39.49,108.53,39.6,108.85,39.57Z"/><polygon class="cls-2" points="25.81 36.14 26.37 36.15 25.33 36.03 25.81 36.14"/><g class="cls-3"><path class="cls-2" d="M153.17,20.48c.25-.49.24-1.67-.33-1.49l-.56,2Z"/><path class="cls-2" d="M149.73,16.53a5.78,5.78,0,0,0-1.24,4.41c.75-1.86.85-1.06,1.69-3.28.58-.21.93.7.78,1.42.24-.49.82.5,1.22-.71-.59-1.6-1.53-1.74-2.57-.52A2.33,2.33,0,0,1,149.73,16.53Z"/><path class="cls-2" d="M94.4,16.52l.38.21A.59.59,0,0,0,94.4,16.52Z"/><path class="cls-2" d="M60.23,18.63a.46.46,0,0,0,.34-.46C60.34,18.32,60.15,18.46,60.23,18.63Z"/><path class="cls-2" d="M54.2,17a2.8,2.8,0,0,0,.36.1C54.41,16.92,54.27,16.83,54.2,17Z"/><path class="cls-2" d="M94.4,16.52l-1-.53C93.43,16.64,93.94,16.42,94.4,16.52Z"/><path class="cls-2" d="M142.1,21.06a1.36,1.36,0,0,0,.48-.52,3,3,0,0,1-.45.21Z"/><path class="cls-2" d="M109.27,13.52l.28,0a6.61,6.61,0,0,0,.15-.83Z"/><path class="cls-2" d="M120.84,12.18c-.27,0-.23,1.63-.27,2.38.09-.71.26-1.05.48-1.2A6.73,6.73,0,0,0,120.84,12.18Z"/><path class="cls-2" d="M139.53,14.22l.33-.23C139.77,14.06,139.63,14.13,139.53,14.22Z"/><path class="cls-2" d="M101,13.92a4.26,4.26,0,0,0-.16-.59A1.91,1.91,0,0,0,101,13.92Z"/><path class="cls-2" d="M31.11,27.81c0-.12,0-.19,0-.29C31,27.69,31,27.81,31.11,27.81Z"/><path class="cls-2" d="M16.69,21.32l.18-.11c0-.32-.05-.63-.09-.94Z"/><path class="cls-2" d="M43.36,15.83l0,0C43.67,15.65,43.51,15.69,43.36,15.83Z"/><path class="cls-2" d="M131.38,35.42c-1.16-1.46,1.75-2,0-3.61C131.57,32.47,130,34.49,131.38,35.42Z"/><path class="cls-2" d="M141.81,20.84a1.77,1.77,0,0,1-.46,0A.59.59,0,0,0,141.81,20.84Z"/><path class="cls-2" d="M131.4,31.81h0l-.17-.15Z"/><path class="cls-2" d="M57.6,36.8a2.79,2.79,0,0,0-.25-.74A1.9,1.9,0,0,0,57.6,36.8Z"/><path class="cls-2" d="M35.45,29.29a6.65,6.65,0,0,0,.73,1.6C35.87,30.28,35.63,29.75,35.45,29.29Z"/><path class="cls-2" d="M67.16,34.43c.25.13.34.36.67.14a.82.82,0,0,0-.1-.21C67.61,34.59,67.45,34.7,67.16,34.43Z"/><path class="cls-2" d="M77.11,34.38c-.06-.13-.13-.22-.19-.34l-.31.1Z"/><path class="cls-2" d="M60.85,23a6.68,6.68,0,0,1-.65-1.44C60.51,22.75,59.12,23.36,60.85,23Z"/><path class="cls-2" d="M142.1,20.11c-.06.43-.14.64-.29.73a1.68,1.68,0,0,0,.32-.09A1.31,1.31,0,0,0,142.1,20.11Z"/><path class="cls-2" d="M67.55,21.13l1.57.24A4.79,4.79,0,0,0,67.55,21.13Z"/><path class="cls-2" d="M130.91,16.71l-.35.21C130.7,17,130.82,16.9,130.91,16.71Z"/><path class="cls-2" d="M73.77,21.11a3.12,3.12,0,0,0,.89,1.16,1.39,1.39,0,0,0,.18-.44Z"/><path class="cls-2" d="M60.19,21.56v0Z"/><path class="cls-2" d="M50.45,26.89c1.5-.15.41-2.24.56-3.55,1.69-.86,1,1.51,1.79,2.55,1-.73,1.61-2.85,2.45-2.88.11.36.29.47.16.95.94-1.91,3.46-.55,4.54-2.92a1.71,1.71,0,0,1,.24.52,12.83,12.83,0,0,1-.6-3c.66-.12,1.06-1.55,1.5-.14-.42,0-.38.59-.51,1.07l.62-.72c.89,2-.86.84-.66,2.37,1.27-.85,2.64-2.76,3.76-2.31.47,2-2.36,1-.74,2.61l-1.71-.57c1.65,3-1-.09.57,3.17,2.19.32,2.24-1.34,4.42-1,.34-1.18-.36-1.64,0-2.82,2.76-2.4,3,4.78,4.87,1.82.41-1.42.32-4,2.06-2.84l-.26,2.35c2.07,0,.78-3.43,3.11-2.15-.28,1-1.52,1-1.18,1.19,1.6,1.64.83-1.42,1.9-1.54l.46,2c2.14-.57,4.38-2.31,6.76-2.94-.06.62-.41,1.3.22,1.85,2.94-1.34,6.54-.44,9.58.49l1-1.86c.27,0,.56.75.31,1.12,1.21.55,0-1.12.44-1.86.65-.19,1,.93.59,1.49,1.88-1.67,5.49-3.72,7.77-2l-.37.55c1.7.59,1.59-3.74,3.26-2.22L107,16c3.65.5,7.55-1.36,10.43,1.16.4-2.57,3.61,1,3.68-2.58,2.13,1.67,1.57,2.3,4.49,3.39.77.14,1.08-2.24,2-2.63l.07,1.84,1.24-2,.75,2.19.86-.49a1.53,1.53,0,0,1-.72-1.35c1.38-.87,3.36,1.24,3.38,2.19,1-.52,2.09-1,3.14-1.51-.09.74-.62,1-1,1.44,1.69-1.83.24,1.94,1.77.28-.18-.43.16-1.09.21-1.47.71,1.15,2.32,1.27,3.55.94l-.36,1.24c2,.55,4.4,0,6.43.66-.55-.79.19-2.88.93-2.86l-.34,1.94c.79-1-.44-.92.88-2.05.78.49-.2,2.27-.83,2.74.38-.12.76-.22,1.14-.31-.16.57-.48.77-.79,1.45.39-.5.59.1.82.6s.43.91,1.14.08l-.22.54a6.88,6.88,0,0,0,1.11.49,8.29,8.29,0,0,0,.95.33,1.39,1.39,0,0,0,.32.06l.27,0a1.56,1.56,0,0,1,.45.2c1.27-1.11,1.15-.68,2.39-1.27a.61.61,0,0,1-.35.43,5.79,5.79,0,0,1,.77-.25,3.42,3.42,0,0,1,.61-.12,3.38,3.38,0,0,1,.47,0c-.07,0-.19-.06-.13,0s0,0,0,0a1,1,0,0,1-.18-.14l-.16-.13-.09-.08h0l0,0,0,0,.12.12a9.35,9.35,0,0,1-1.18-1.46c-.08-.12-.15-.24-.21-.35a1.17,1.17,0,0,0-.09-.14h0s0,0,0,.05a1.11,1.11,0,0,1-.12.15c-.1.1-.26.23-.44.39a16.25,16.25,0,0,1-2.24,1.62c.41.58.8.78.71,1.33-.48.34-1.28-.45-1.31-1.19l.11-.17c-1.4,1.38-3.43.5-5.28-.35s-3.6-1.62-4.83.05l.14-.17-2.67,1.81c-1.29-.22.71-1.19-.27-2.1-2.89,2.69-4.8-.19-7.24,1.61-2.1-4.46-6.89.55-9.6-2.27l.18,1.06c-.64,1.07-.83-.58-1.34-.81.09.82.76.93.36,1.53-5.71,1.45-11.9-1.24-17.79-2.09-2.16-.24-1.11,5.55-3.88,3l.74-2C95.52,23,91,20.64,86.72,22.7c.25-.46.25-1.06.66-1.05-.91-1.43-3.32,0-3.32,1.14-.67-.13-.17-1.06-.58-1.65-.91-.85-2.25,1.85-2.74.42-.08-.23.25-.46.41-.58-.58.71-2.73-.15-2.16,1.51-1.6-.79-3,.75-4.33-.22-.82,1.86-2.73-.88-3,1.74.11-2.71-2.8-2.18-3.81-.9.33-.82-.88-.85-.49-2-1.15,0-2.2.54-2,1.93-2.12-3.24-4.27,2.61-5.46-1.55a49.08,49.08,0,0,1-9.63,3c.08-1.35.88-1.4,1.69-1.48s1.6-.17,1.54-1.6a24.78,24.78,0,0,0-3.67,2,3.92,3.92,0,0,1-3.4.54c-.6-.43.48-1.13.72-1.58a5.77,5.77,0,0,1-3.42,0l-.2-.05s0,0,0,0c-.08.32-.22.71-.31,1A10.69,10.69,0,0,1,42,25.92a2.15,2.15,0,0,1-.68.71s0,0,0,0l.26-.09a.72.72,0,0,1-.25.07l-.15,0h-.05a1.16,1.16,0,0,0,.27,0l-.27,0h0a.38.38,0,0,1,.17.08l.09,0-.19-.09-.08,0h0l.12,0a1.43,1.43,0,0,1,.37.23,1.76,1.76,0,0,1,.3.24l.15.15.08.08,0,0a1.34,1.34,0,0,1-.25-.49,6.78,6.78,0,0,0-.21-.9,4.56,4.56,0,0,0,.81,1.49,1.73,1.73,0,0,0,.56.44,1.26,1.26,0,0,1,.52.68c.16.4.26,1.07.54,2.15-.06-.23-.09-.82-.27-1.62.22.2.24.68.35,1.62a2.61,2.61,0,0,0,0-.28c.08-.11.25-.23.34-.35a3.94,3.94,0,0,0,.44-.69,1.35,1.35,0,0,1,1.29-.84c.05.6-.27.86-.37,1.57.73-1.23,1.47-2.47,2.92-2.1-.06.37.15.82-.27.85,2.39-.41,3.82-3.47,6.57-2.6-.54,2.65,1,.77,1.32,3l1.36-.79-.67-1c1.25-.08,2.2-1.81,3.34-1.18l-.84,1,2.29-.64-1.4-.73c1.15-1.26-.4-2.81,1.32-2.34-.32.26,1.24-.09,2,1.16h0C64.42,24,65,23.15,66,23.61c.3.69,0,2.49.24,2.95.43-1.92,2.86-.79,3.45-2.85a3.65,3.65,0,0,0,0,1.89L70,24c.63.43.73.66.73,1.6,1.76.12-.82-2.78,1.35-1.75-.15.14,0,.36-.36.62,2.12.44,3.9-1.34,5.87-.77.77,2.19-1.61.71-.79,2.54,2.7-.66,5.42-3.22,8.12-2.94l-.52-.2c.08-3.2,2.12,1.38,3.33-.24-.31.26-.27,1.8-.21,1.44,1.86.34,3.63-1.13,6.29-2.38l-.26.84c1.13.63,2.85.16,4,.42.27-.84.94-.77.43-1.92,4,4.3,6.57-3.12,10.09.45-.38,0-.84.79-.54.77l2.63-1c-.34-1.36-.43-.81-1.1-1.83a2.25,2.25,0,0,1,1.63-1.62c-1.12,1,.22,2.22.81,2.94-.12-.41,0-.9-.07-1.32,1.63,2.32,0-2.8,2-1.33l0,.74c.69-.44,1.26-1.46,2.06-1.32.46,1.57-.7.81-.63,2.13,1.08-.19,1.88-3.22,3-1.71-.42.48-1.09.55-1.51,1,1.24,1.78,1.32,1.3,2.14,1.53l-.08,0,1.9.69-.51-.46c1-4.29,2.7-1,4.32-3.86-1.59,2.72-.18,1.52-.19,3.34.51.47,1.25,1,1.09,1.51.75-1.53,1.5,1,2.57-1.17.09.58.92,0,.81,1.48,1.08-.53-.32-1-.27-1.74,1.62-2.11,4.14,2.2,6.48-.64,2.09-1.18,2.44-3.17,4.44-4.18.69.93-.53,2.14-.53,2.14a2.15,2.15,0,0,0,2.92,0c-.21.51,0,.95.31,1.6.81-.15.56-2.13,1.63-1.25a11,11,0,0,1-.85,2.34c.95-.52,1.92-1.6,2.93-2.1.23,1-.64,1.53-1,2.19,1.12-.44,2.88-.82,3.31-2.42l-.7-.61c.42-.06.15,1.4-.16,1.68-1,1.23-1.34-.61-1.38-1.2l.72-.35c-.62-3.47-2.89.47-4.29.26l.62-2.5-1.49,2.07c-.31-.65-.53-2,.19-2.42-1-1.23-.92.88-1.82-.48a.36.36,0,0,1,0-.44l-1,.76c.19-.53-.19-1.76.44-1.41-1.88-1.42-2.93,1.93-3.66.06l.15-.16c-2.53.92-.2,1.84-2,4L132,13.06l-.17,1.84a.77.77,0,0,1-.73-.9c-.91,1.3.21.79-.3,2-1.34-1.61-3.4,1-3.87-1.92-.36,1.42,1.27,1,0,2-.59-3.11-1.51.64-2.75-.72.23-1.64,1.39-.86.13-2.22-.49,2.78-2.29-.43-3.22.17.13,2.17-2,1.08-3.59,1.94,0-.74-3.15-.92-4.73-1.56v-.37c-.09,2.22-1.68,2-2.76,2.51a2.91,2.91,0,0,1,.63-2.5l-1.06.11a1.91,1.91,0,0,1-1.15,1.44l.12-1.66c-1.41.22-2.66,2.19-4.58,1.27,0,1.54,1.84,4.12,0,5.32-.15-.82-.36-2.23.12-2.61-.16.12-.53.74-.89.42l.64-1.46c-.89-.54-.33,1.2-1,1.13-.1-1.18-.57-.8-.56-1.74.16-.13.62.43.83,0A3.05,3.05,0,0,1,101,13.92c.12.67.15,1.59-.39,1.8-1.4.22-.61-1.38-1.49-1.91-.27.85-1.25.09-1.1,1.86-.42,0-.57-.79-.78-1.25-.65.84-3.39.54-2.39,2.34l.2.1s-.07.05-.11.09h0c-2.23,2-5.07-.53-7.37.44l0-.59c-1.36.81-3.12.7-4,2.06-.42,0-1.09-1-1-1.7-1,.54-1.1,1.22-2.76.39,1-1.13-.46-.88,1-.86-1.46-.38-1.86-1.29-3.23.46a1.17,1.17,0,0,0-1.86-1.29l1.09,1a4.18,4.18,0,0,1-2.09.15l.18-2c-3.11-2.15-4.81,4.6-7.38.76-.64,1.46,1.65.83,1.12,2.52-1.35-.14-3-2.86-3.41-2.83-1.92-.93-1.42,3.06-3.39,2.49.31.68.71,2.55-.64,3.35-1.36-.14-1.91-2.82-1.13-3.47a.37.37,0,0,1,.5.37c.4-.3.94-.66.34-1.38l-.11.73c-.72-.66-2.54-.42-2.22-1.62-.94.77-.32,1.2.46,1.5-1.8-.87-2.67.22-4.48-.31.31.37.65,1.18.37,1.19-2.65-.63-1,1.46-2.72,1.93-1.09-1,.12-2.61-1.55-1.55-1.14-.63-.4-1.86,0-2.47-1.47,1.51-3.07-.62-4-.79l.79-.65a2,2,0,0,1-1.31.45l.61,1.38c-.51-.2-.93-.17-1-.76-.42,1,.61,2.32-.28,3.68-.72-.65-1.93,1-2.33-.9,2.13.45-.41-1.86,1.32-2.33a1.21,1.21,0,0,1-1.25.08.46.46,0,0,1,.16-.52L43,15.61l-.16-.07-.28,0a1.89,1.89,0,0,0-.89.14,1.48,1.48,0,0,0-.76,1,4.75,4.75,0,0,1-.6,1.31,4.08,4.08,0,0,1-1.77,1.28c0-.6-.42-.95-1-1a2.39,2.39,0,0,0-1,.12,1.92,1.92,0,0,0-.8.52,2.75,2.75,0,0,1,.7-.4.94.94,0,0,1,.46,0,.59.59,0,0,1,.39.58,2.69,2.69,0,0,1-.16,1.12c-.06.21-.14.44-.23.67s-.23.52-.36.77A3.2,3.2,0,0,0,36,22a4.26,4.26,0,0,0-.52.52,5,5,0,0,0-.75,1.23,4.76,4.76,0,0,0-.35,2.31,6.16,6.16,0,0,0,.45,1.66l.64,1.57a6.45,6.45,0,0,1-.18-3,3.81,3.81,0,0,1,.63,1l.6,1.16a5.1,5.1,0,0,0,2.22,2.26c-.15.4-.64.25-1.07,0s-.74-.66-.54-.13a6.5,6.5,0,0,1,2,.88,10.83,10.83,0,0,1,1.32,1.21c.92.85,1.47,1.57,2.43,1.11.65.83-.25,2,.38,2.58a1.46,1.46,0,0,1,2,.3,1.5,1.5,0,0,0,2,.4c-.48-1.46-.55-1.11.81-2.43-1,.28-2.07.55-3.17.77.76-.62,1.48-1.25,2.16-1.91-.89-.07-2,.75-2.55.43,1.08-1,.91-.72.62-1.94.5,1.13,1.16.88,1.8.52s1.3-.81,2-.06l-.16,3.54c2.14,1.65,3.73-1.76,6.29-.85l-.82-.62c.35-1.41,1.59-.19,2.43-.75a3.82,3.82,0,0,0,.79,2.35c0-.88,1.89.09,2.13-2.28l1.15,1.56C62.72,36,63,32,65,32.38c-.6,1.29.31,2.12-1,3,.67,0,1.27.22,1.28-.6.39.74,1.85-1.59,2.47-.47.28-.52.37-1.76,1.12-1.66a1.28,1.28,0,0,1,0,.58c0-.58,1.17-.8.51-2.11,2.07,3.69,5.75-.29,7.56,2.87a26.57,26.57,0,0,1,4.54-.9c-.08.36,0,.59-.25.47,1.83,1.09,1.09-3.4,3.18-2.2,1.08,1.91-1.1,1.05-.43,1.77.33,3.89,2.51-.56,3.93,1.7l-.33.23c1.08,1.32,2.59-1.51,4.34-1.25a1.32,1.32,0,0,0,0,.59c1.17-2,3.42-2.7,5.08-3.28-.49,1.53-.74.82-.4,2.36.75-.23-.26-2.48,1.23-2.94.51.83,1.6,1.54,1.78,3.19l-1.42.11c.76,2.13,1.84-.1,2.59.25l-.08.94c2.17-.35,2.16-2.7,4.49-2.58l-.25-.7c1.22-2.37,1.1,1.28,2.33-.48l.44,2.36c.83-.59,2.9-2.35,4.39-2.84-.81,1.78-2.55,2.72-3.62,3.79.83,0,2.83-.25,3.24-1.42-.33.23-.74.82-1.08.47q1.47-2.84,4-2.84c-.17,4.6,4.37,1,5.68,4.57,2.89-1.79,5.86.55,9.29.16-1.34-3.53,1-.13.66-3.79.8-.27,1.1-.22,1.18,0l2.5,2.1c.61,1.05-.73.84-.63,1.66,1.76.22.79,1.52,2,2.46-.29-1.31.54-1.9,1.56-1.44l-1.47-1.64c2.37-2,2.24,3,4.68,1l-.75,1.19c1.25-.73,4.86-.22,5.95-3.27.26.4.65,1.38.08,1.69,1.62.1,3.34-.85,5-1.66s3.14-1.49,4.56-.83l-.09.93c.55-.36.79-1.84,1.9-1.17,0,.37-.11.94.26.91.35-.39,1.61-2,2.91-2-.19.45-.39.9-.6,1.32a7.14,7.14,0,0,0,5.59-4.75,12.71,12.71,0,0,0,.23-7.65,2,2,0,0,0,1.55-1,4.51,4.51,0,0,0,.54-2.29A10.27,10.27,0,0,0,166,12.84l.35-.16a10,10,0,0,0-3.08-3,10.84,10.84,0,0,0-1.68-.82,4.61,4.61,0,0,0-.78-.25L160,8.49c-1.95-.42-3.91-.4-5.84-.69C153.68,6,151.8,5,149.72,4.31s-4.36-1.1-6.07-2.11c.49.55-.37,2-1,2.21-.78-.62-2.41,1.59-2.08-.8l.29.07c-.41-2.42-2.21-1.92-3.51-2L137,4.81c-1.58-2.36-3.82-2-5.73-1.45s-3.61,1.12-4.54-.93c-.74.82-1.69.84-2.42,1.65V2.38a13.05,13.05,0,0,0-5.81,0L119,1.14c-1.49,0-1.63,5-3,5.16l-.54-2.51c-2.56.16-5.31-1.87-7.69.59,0-.38,0-1.11.45-1.24-1.21,0-4.8-1.37-4.1,2.07-.2-2.26-2.66,0-3.95,1.09l.08-1.68c-1,2.23-1,2.81-2.54,3.54-.4-.18-.45-1.3.09-.92-1.35-.76-.85,1.66-2.48.92L95.81,7C94.48,7,94.64,7.6,94,8.9c-.77.75-2.53-.18-2.88-1.67-.08.94-.68,2.24-1.49,1.88A1.24,1.24,0,0,1,89.87,8c-2.31-.91-3.06,2.26-4.73.79a1.87,1.87,0,0,0-.36-1,10.48,10.48,0,0,1,3-.06c-.16-1.53-1.6-1.65-.69-3.89-1,1.27-2.69,4-4.14,3.42a2.74,2.74,0,0,1-.24-.51l.12-.19c-.33-.12-.6.06-.84.34a2.52,2.52,0,0,0-1.19-.33c-.3-1.25-1.69-.51-2.4-.49.25,1.67-.7,1.51.32,2.79-.12-.1.11-.21.57-.33.1-.07.22-.11.28-.21l0,.15c.45-.1,1-.2,1.73-.3-.46.91-1,1.68-1.84.84-.24,1.12-.51,2.28-.67,2.82-1.22-2.22-3.22-3.27-3.64-4.68-2,1.18-5,1.22-5.93,4.53-.55.48-.8-.82-1.09-1.28.31-.36.73-.37.87-.84-1.12,1-3.56.76-3.57,3-1.65-.79.6-2.12-1.45-1.5l.2-.71c-4.59-3-6,6.47-11.14,2.57.36.23.53.34.65.7-5.47-1.3-10.47,3.29-16,.83-1.55-.44-1.52,1-2.26,2.17l-.56-1.75-1.24,2.27C31.67,19,29.29,13.26,27,16.5l.51,1.16c-1-.1-3,1.13-3-.28-.07.23-.16,1.3-.62.72l-.16-.94L21.46,19.1c-2-.43-.21-3.77-3-3.59-1,.5-2.52,3.12-2.05,3.7a1.54,1.54,0,0,1,1.28,1.38l-.86.62c.2,2.79-.13,5.72,2.4,7.35l1.36-1.91.69,1.28L20,28.19c.93,1.16,1.25,0,1.69-.86a2.46,2.46,0,0,0,.86,1.39l1.2-2.85c.34,1.05-.41,2.24.72,2.7.56-1.33-1-2.34.07-3.31.93,1.16.84,2.21,1.59,1a1.5,1.5,0,0,1-.22,1.54c.68-1,2.05-.65,2.26-2.17,1,1.44,2.62-.77,2.9,1.87.16-.67,1.11-2.25,1.83-2.46-.91,3.32,2.75-.18,2.85,3.23.6-2.95,3.38-1.73,4.91-3.53-.06.24-.19.72-.37.6,1,.1,1.42.91,2.12,1.36-.19-2.35,1.27-3.09,1.9-4.63,1.5,2.08-.37,2.83.3,4.94-.31-1.88,1.84-2.17,1.22-3.68,1.1,1.26.88.56,1.61,2.43-.23-2.93.79-.61,1.31-2.5,1.52,1.26.71,2.69,2,1.6C51.61,25.68,50.45,26.89,50.45,26.89Zm34-9.34v0l-.7.17Zm2.91-.34a6.32,6.32,0,0,0-1.27.06c-.17-.56-.12-1.17.18-1.17C86.18,16.5,86.9,16.76,87.39,17.21Zm-7.47-11c.44-.29.63,0,.74.36a5.06,5.06,0,0,0-.8.29l0,.21A3.6,3.6,0,0,1,79.92,6.26Z"/><path class="cls-2" d="M79.33,8.56c-.07,0-.09.12-.18.14a2.68,2.68,0,0,0,.32.34l.11-.54Z"/><path class="cls-2" d="M94.84,16.76l-.06,0a.77.77,0,0,1,.15.22C94.88,16.87,94.88,16.82,94.84,16.76Z"/><polygon class="cls-2" points="127.73 17.62 127.71 17.19 127.47 17.57 127.73 17.62"/><path class="cls-2" d="M111.54,21a.87.87,0,0,0,.26.41A1.17,1.17,0,0,0,111.54,21Z"/><path class="cls-2" d="M118.54,20.76l1,.51A3.53,3.53,0,0,0,118.54,20.76Z"/><path class="cls-2" d="M123.93,21.16a4.11,4.11,0,0,0,0-.73h0Z"/><path class="cls-2" d="M41.43,26.6a.52.52,0,0,0,.2-.07l-.29.1h0s0,0,0,0l.27-.09-.06,0Z"/><path class="cls-2" d="M63.87,24.72a4.68,4.68,0,0,1-.74.87C63.59,25.68,64,25.68,63.87,24.72Z"/><path class="cls-2" d="M67.38,21.1v0h.18Z"/><path class="cls-2" d="M62,25.67a.92.92,0,0,0,1.18-.08A1.33,1.33,0,0,0,62,25.67Z"/><path class="cls-2" d="M146.73,21.33l.25.08a1,1,0,0,1,0-.27Z"/><path class="cls-2" d="M147,21.14l.29-.19C147.18,21,147.07,21,147,21.14Z"/><path class="cls-2" d="M147.91,20.55l-.6.4C147.51,21,147.75,21,147.91,20.55Z"/><path class="cls-2" d="M139.84,20.43l-.08.61A2.35,2.35,0,0,0,139.84,20.43Z"/><path class="cls-2" d="M137.73,20.64c.5.13,1.27,1.28,2,.89l.06-.49C139.44,22,138.19,19.6,137.73,20.64Z"/><path class="cls-2" d="M128.42,13.44l1.87.39c-.36-.63-.83-1.49,0-1.69C127.86,10.32,130.84,13.57,128.42,13.44Z"/><path class="cls-2" d="M122.68,12.89c1-.38-.08-1-.06-1.32C122,12.21,121.9,12.38,122.68,12.89Z"/><path class="cls-2" d="M82.06,16.6l0-1.53C81.28,15.35,82.06,15.66,82.06,16.6Z"/><polygon class="cls-2" points="75.04 25.23 75.86 26.11 76.08 24.67 75.04 25.23"/><polygon class="cls-2" points="69.45 14.77 69.75 14.52 68.56 15.19 69.45 14.77"/><path class="cls-2" d="M75.35,35.88,75.11,34C74.6,34.34,74.5,36.46,75.35,35.88Z"/><path class="cls-2" d="M104.93,33.57c.34.93,1.19,1.52,1.68.58C105.94,34,105.26,33.32,104.93,33.57Z"/><polygon class="cls-2" points="135.49 2.38 136.15 1.76 134.93 2.27 135.49 2.38"/></g></g></g></svg>