<svg xmlns="http://www.w3.org/2000/svg" viewBox="0 0 312 41.02"><defs><style>.cls-1{opacity:0.42;}.cls-2{fill:#fcba54;}</style></defs><g id="Слой_2" data-name="Слой 2"><g id="Слой_1-2" data-name="Слой 1"><g id="Слой_1-2-2" data-name="Слой 1-2"><g class="cls-1"><path class="cls-2" d="M136,22.31c0,.5,1.55,1.27,3.15.77a17.58,17.58,0,0,1-.7-1.71Z"/><path class="cls-2" d="M151.67,23.15c1.4-1,3.13-2.63.56-3.91-1.17,1.76-2.25,1.19-3,3.25a5.89,5.89,0,0,1-3.6-.29.89.89,0,0,1-.38-.36c-.22.48-3.37.09-3.15,1.23a17.61,17.61,0,0,0,5,.31,10.23,10.23,0,0,0,3.88-1.28C151.9,22.36,151.56,22.84,151.67,23.15Z"/><path class="cls-2" d="M136.32,15.62l1.26.13A6.1,6.1,0,0,0,136.32,15.62Z"/><path class="cls-2" d="M138.57,31.21c-.85.07-1.19.23-1.21.38C138.15,31.5,138.8,31.35,138.57,31.21Z"/><path class="cls-2" d="M158.26,32.51c-.42,0-.78-.06-1.17-.08A1.81,1.81,0,0,0,158.26,32.51Z"/><path class="cls-2" d="M136.32,15.62l-3.21-.34C133.11,15.83,134.86,15.57,136.32,15.62Z"/><path class="cls-2" d="M175.36,17.61a5.75,5.75,0,0,0-1.59.49c.5-.09,1-.16,1.55-.23A.57.57,0,0,0,175.36,17.61Z"/><path class="cls-2" d="M185.92,12.65h.92a5.13,5.13,0,0,0,.65-.68Z"/><path class="cls-2" d="M224,11.7c-.88,0-1,1.36-1.26,2a2.44,2.44,0,0,1,1.75-1A1.86,1.86,0,0,0,224,11.7Z"/><path class="cls-2" d="M185.2,23l-1,.22C184.36,23.15,184.88,23.09,185.2,23Z"/><path class="cls-2" d="M158.42,13.06a1.25,1.25,0,0,0-.47-.48A.93.93,0,0,0,158.42,13.06Z"/><path class="cls-2" d="M48,16.08a.94.94,0,0,0-.13-.24C47.69,16,47.69,16.09,48,16.08Z"/><path class="cls-2" d="M2.11,13.62l.49-.15A4.68,4.68,0,0,0,2,12.73Z"/><path class="cls-2" d="M193.68,33.2h-.16C192.64,33.37,193.16,33.32,193.68,33.2Z"/><path class="cls-2" d="M30.39,20.38c1.28-.88,2.81,0,4.5.58a7.94,7.94,0,0,0,2.38.63,2.5,2.5,0,0,0,1.92-.72,23.43,23.43,0,0,1-4.5-.94C32.86,19.49,30.93,19.23,30.39,20.38Z"/><path class="cls-2" d="M176.51,17.76c.52,0,1.06-.05,1.6-.06A8.47,8.47,0,0,0,176.51,17.76Z"/><path class="cls-2" d="M39.1,20.87h0l.18-.23Z"/><path class="cls-2" d="M279.12,17.69a1.91,1.91,0,0,0-.81,1A1.11,1.11,0,0,0,279.12,17.69Z"/><path class="cls-2" d="M213.62,29.75l1.53.14A9.35,9.35,0,0,0,213.62,29.75Z"/><path class="cls-2" d="M248.09,10.06a6.5,6.5,0,0,0-.63-.48A5.05,5.05,0,0,0,246,9.16a.39.39,0,0,0,0,.26,4.45,4.45,0,0,1,1.14.14A1.79,1.79,0,0,1,248.09,10.06Z"/><path class="cls-2" d="M209.61,6.54a4.59,4.59,0,0,0,.63.27l1.13,0Z"/><path class="cls-2" d="M143.21,13.14a5.21,5.21,0,0,1-1.6-1.25C142.2,12.88,137.45,13.23,143.21,13.14Z"/><path class="cls-2" d="M175.66,18.39c.11-.35.36-.54.85-.63l-1.1.11C175.31,18.05,175.4,18.24,175.66,18.39Z"/><path class="cls-2" d="M226.44,17.66a.62.62,0,0,0-.22-.34C226.19,17.44,226.27,17.56,226.44,17.66Z"/><path class="cls-2" d="M253,26.68l1.24-.17A2.46,2.46,0,0,0,253,26.68Z"/><path class="cls-2" d="M221,17.42a10,10,0,0,0-2.88-.94,1.87,1.87,0,0,0-.59.36Z"/><path class="cls-2" d="M108.31,15.33c4.77,0,2.12-1.82,3.06-2.87,5.74-.58,2.75,1.32,4.75,2.23,3.55-.5,6.28-2.19,9-2.14.22.31.74.42.13.83,3.81-1.47,11.39-.1,15.89-1.92a1.34,1.34,0,0,1,.58.45A3,3,0,0,1,141,9.44c2.25,0,4.09-1.16,4.92,0-1.35,0-1.46.44-2.09.82l2.25-.52c2.07,1.73-3.15.6-3.15,1.88,4.5-.57,9.77-2,13.21-1.49.72,1.65-8.08.55-3.49,2.05l-5.33-.65c4.07,2.66-3.24-.18.49,2.66,7,.49,7.88-.83,14.92-.36,1.6-.93-.51-1.38,1.06-2.31,10-1.65,7.94,4.23,15.35,2,1.91-1.13,2.56-3.25,7.89-2.16l-1.73,1.91c6.95.15,3.8-2.75,11.25-1.53-1.24.75-5.42.67-4.34.9,4.81,1.45,3.26-1.11,6.86-1.15l.9,1.65c7.47-.34,15.15-1.73,22.5-2-.42.5-1.68,1,0,1.55A62.62,62.62,0,0,1,236,13a42.32,42.32,0,0,1,9.81,2.39c1.32-.32,2.68-.62,4.08-.89.58.13.2.77-.77.91,1.62,1,1.35-.82,3.31-1,1.6.24.65,1.12-.83,1.3a46.72,46.72,0,0,1,10.57,1c3.48.64,5.86,1.88,6.35,3.3l-1.67-.06c.81.82,3.09.78,5.34.82s4.16.17,3.82,1.22L275,21.78c.21.19.45.38.68.57l.31.28a1.93,1.93,0,0,1,.21.17,8.54,8.54,0,0,0,.67.57c.52.39,1.08.77,1.58,1.17.94.77,1.68,1.65.31,1.94a9.67,9.67,0,0,1-2.79,0c1.91.48,2.43.78,2.25.9a6.57,6.57,0,0,1-1.87,0c-1.46-.07-2.25-.08.7,1.37a34.28,34.28,0,0,1-5.83-1.58c-1.12-.43-2.25-.82-3.37-1.29-.25-.07-.25.39-.54.9a1.33,1.33,0,0,1-.27.38,7,7,0,0,1-.86.36,7.94,7.94,0,0,1-2.07.46V26.42L259.56,28l-2.25-1.84-3.1.37c1.34.16,2.24.62,2.25,1.14-4.8.66-11.68-1.11-11.84-1.87-3.78.44-7.56.88-11.25,1.35.2-.61,2.07-.82,3.56-1.25-5.94,1.65-1.2-1.6-6.75-.11.78.34-.32.91-.43,1.22-2.81-.89-9-.83-13.61-.34l.74-1.07c-8.39-.12-17.4.82-26.55,1,3.35.41,2.9,2.25.24,2.47l-1.32-1.58c-1.58,1,2.9.54-.45,1.84-3.47-.11-2.61-1.77-.75-2.34l-4.05.65c-.31-.48.61-.75.77-1.37-1.53,1-7.43-1.45-9.56.33l-.32-.48c-9,.18-13,.82-20.25,1,0,1.39-2.88,1.13-4.95,2.27-5.45-.38-11.41-1.43-17.78-1.32-4.5.68-1.32,1.17-3.37,2-.32-1.25-6.75-1.2-3.31-2.07-6.47.05-12.9.36-19.19.91.83.56,2,.83,1.24,1.23-1.69.05-3.16-.42-3.29-1a.49.49,0,0,1,0-.24l.48-.11c-5.43.74-11-.55-15.26-1.87-1.85-.62-3.81-1.2-5.87-1.72a16.67,16.67,0,0,0-5.76-.27l.49,0c-1.3,0-2.63,0-4-.06-.65,0-1.35,0-2-.09s-1.23-.06-1.85-.06c-.51-.3.18-.4.93-.57a4.2,4.2,0,0,0,1.93-.83,8.54,8.54,0,0,1-3.13.15c-.57-.11-1-.3-1.08-.53a1,1,0,0,0-.38-.56,9.21,9.21,0,0,0-2.43-.58c3.15-.11,4.73-.12,5.4-.19s.41-.22.34-.42,0-.36.58-.38a5.82,5.82,0,0,1,2.64.66l-1.47-.83c-.47-.4,0-.3.39-.06s1,.59,1.19.69c-.72-.65-1.37-.73-1.64-1.2.23-.07.49-.14.76-.2l.45-.08H75l.83-.06c2.3-.17,4.63-.29,7-.36,4.77-.17,9.57-.23,14.36-.16,9.68.15,19.44.58,29,.72,6.93,0,3-4.66,12.19-2.79l-2.25,1.7c13.71-2.31,28.74-.53,42.42-2.37-.79.39-.77.88-2.12.89,3,1.15,10.83-.07,10.83-1,2.25.09.56.88,1.93,1.35,3,.66,7.29-1.59,9-.42.29.19-.79.39-1.33.48,1.89-.59,9,.07,7.05-1.28,5.26.61,10-.71,14.22.08,1.3-.78,3.58-.61,5.6-.52l1,0a1.49,1.49,0,0,0,.41-.08,2.07,2.07,0,0,0,.81-.92c-.39,1,0,1.46.31,1.65a8.43,8.43,0,0,0,3.08-.26,2.45,2.45,0,0,0-1.1.61,6.68,6.68,0,0,1-1.64.69l.65.2c.3.09.61.18,1,.26a19.94,19.94,0,0,0,2.25.44,6,6,0,0,0,3.78-.33c.36,1.05,2,2,4.5,2.52a38,38,0,0,0,7,.94,23.08,23.08,0,0,1,4,.34c.37.12.54.3.45.48a1,1,0,0,1-.32.38l-.29.23-.18.12h0c.63-.34-1.46.76,1.44-.76h0c-.38.19,0-.07,1.21-.4a25.36,25.36,0,0,1,4.08-.82,14.84,14.84,0,0,1,1.91-.12h0l-.61-.06h.38l-.27-.06a3.8,3.8,0,0,1-.54-.18,11.72,11.72,0,0,1-1.62-.72c-.22-.14-.67-.37-.94-.57l-.23-.16v-.06h0c0,.1-.4.26-1,.4s-1.47.28-2.25.39l-1.44.16-1.86.16c-.13-.45.54-.88,1.66-1.07a20,20,0,0,1,2.43-.34c.77-.08,1.28-.17,1.37-.37s-.58-.73-.29-.5l-.43-.4c.05.33.83.59,1.73.57s1.6-.3,1.55-.64-.82-.58-1.73-.56-1.5.26-1.55.56h0v.1A1,1,0,0,1,252,18a10.52,10.52,0,0,1-1.33.53,40.58,40.58,0,0,1-4.84,1,57.88,57.88,0,0,1-12.15,1c-2.52-.23,1.2-1,1.92-1.42-9.34,1.22-18.54.38-26.78,1.86,0-.21.83-.46,1.67-.66-1.67.12-4-.21-3.56.82l1.58-.32c3,1.38-6,3.3-6.08,4.05,2.25-3-8.57-.46-4.91-4.26-1.4.27-2.18.84-1.93,1.42-1.69-.15-2.25-.53-.81-1.35-5.87.73-3.49,1.74-9,1.89,0-.49,1-.71,1.39-1.3a19.57,19.57,0,0,1-10,1.94c.23-.3-.4-.67,1-.7-7.88.39-12.89,3-21.74,2.3,2.07-2.2-3.1-.62-3.93-2.47l-4.51.68,2,.83c-4.05.07-7.38,1.52-11,1l2.86-.83-7.49.52,4.5.61c-4,1,.81,2.33-4.68,1.93,1.08-.21-4.1.06-6.35-1h0a14.08,14.08,0,0,1-7,.82c-.83-.58.45-2.05,0-2.43-1.84,1.56-9.33.5-11.81,2.13.7-.47.91-1,.59-1.55l-1.76,1.29C106,26,105.72,25.78,106,25c-5.51-.26,1.62,2.36-4.82,1.3.5-.1.3-.29,1.33-.47-2.31-.16-4.66-.25-7-.26a7.86,7.86,0,0,1-2-.3c-.48-.15-.52-.34,0-.39H94a6.12,6.12,0,0,0,.63-.06c.75-.1,1.74-.36,1-.17a11,11,0,0,1-1.64.23h.34a1.4,1.4,0,0,1,.29,0,5.18,5.18,0,0,1,.61.1c.27.06.53.11.79.18l.4.11.27.07h0c-.08,0-.13-.05-.13-.08,0-.21.11-.41.45-.57a13,13,0,0,1,3.8-1.24c.93-.18,1.9-.32,2.9-.43s2.09-.2,3.15-.26l-1.66,0c-.41-1.32,1.39-1.18,3.64-.86s4.95.73,6.75,0c-.9.28-.42,1.53-.33,1.23,5.82-.08,11.09-1.55,19.55-2.87L134,21c3.64.4,9-.13,12.91,0,.86-.72,3-.7,1.44-1.65,6.33,1.65,11.57,1,16.81.22s10.35-1.55,15.75-.07c-1.21,0-2.83.66-1.84.64l8.68-.83c-.85-1.13-1.26-.68-3.24-1.52a12.09,12.09,0,0,1,5.61-1.33c-3.85.83.31,1.84,2.25,2.48-.34-.35.18-.74,0-1.1,4.92,1.94.45-2.32,6.95-1.06l-.25.6c2.25-.35,4.39-1.18,7-1.06,1.24,1.31-2.43.66-2.46,1.75,3.56-.14,6.76-2.62,10.13-1.37-1.46.4-3.64.45-5.11.83,3.72,1.49,4.08,1.09,6.75,1.29h-.27l6.12.59L219.67,19c2-1.76,4.27-2,6.75-2,.85,0,1.71,0,2.56,0,.21,0,.23-.14.61-.19a3.79,3.79,0,0,1,1.76.11,3.18,3.18,0,0,0-2.07,0h0l-.43.14h0L229,17l.4-.11h-.2a5.37,5.37,0,0,1-.7,0,7.24,7.24,0,0,1-.83-.1c-1.17-.17-1.89-.37-1.31-.24a22.77,22.77,0,0,1-3.06-.87l-.49-.18-.23-.09h0l-.22-.1c-.34-.17.2.09.85.62V16h0a12.54,12.54,0,1,1-1-.87h0l-.2.07a3,3,0,0,0-.36.19A2.3,2.3,0,0,0,221,16c-.61-.42-2.47.29-3-.93-2.59.71,1.39.73,1.68,1.31a7.13,7.13,0,0,1-3.57.83,47.16,47.16,0,0,1-4.91-.1c-1.75-.1-3.53-.12-5.29-.06a19,19,0,0,0-5.33,1c-6.73,1.06-7.81,2.71-14.2,3.69C184,21,187.9,20,187.9,20a24.85,24.85,0,0,0-9.7.22c.58-.43-.18-.77-1.35-1.28-2.77.22-1.44,1.81-5.27,1.23a6.37,6.37,0,0,1,2.25-2c-3.21.55-6.25,1.59-9.47,2.21-1.28-.79,1.58-1.39,2.63-2-3.82.52-10,1.37-10.35,2.78l2.7.27c-1.32.17-1.37-1.06-.42-1.39a4.94,4.94,0,0,1,5.42.62l-2.25.46c1.91,1.32,4.14,1,6.75.49s5.29-1.44,7.74-1.44l-1.51,2.12c1.46-.63,3-1.25,4.5-1.86,1.17.5,2.09,1.65-.18,2,3.58.92,2.86-.83,6,.24.36.17.22.27,0,.36l3.19-.7c-.56.46.81,1.44-1.28,1.2,6.23,1,9.36-1.81,12-.33l-.47.14c8.21-1,.45-1.53,6-3.55q2.7,1.74,5.73,3.44l.14-1.53c.88,0,2.65,0,2.65.59,2.68-1.27-.87-.6.41-1.7,2.45.54,5.17.08,7.54-.2s4.36-.51,6,.56c.27-1.26-4.68-.31-1.26-1.65a4.21,4.21,0,0,0,2.54.74,4.65,4.65,0,0,0,2.25-.63c.59-.33,1-.72,1.6-1.08a17.48,17.48,0,0,1,2.41-1.18c.72.25,1.1.6,1,.95a1.52,1.52,0,0,1-.43.79c-.13.17-.13.28.32.27a9.83,9.83,0,0,0,3.13-.72,8.17,8.17,0,0,1-1.51-2.29,7.56,7.56,0,0,0-4.05-2.34,38.26,38.26,0,0,0-5.54-1,12.33,12.33,0,0,0-3.06-.1c0,1.79-6.75.87-12.06,1.56.27-.6-10.15-.82-15.19-1.36v-.3c-.69,1.83-5.82,1.59-9.49,2-.38-.79.52-1.6,2.32-2.06l-3.49.08a7.74,7.74,0,0,1-4,1.18l.68-1.38c-4.68.19-9.14,1.81-15.35,1.07,0,1.27,5.45,3.39-.67,4.4-.36-.67-.86-1.84.74-2.16a6.78,6.78,0,0,1-3,.36l2.25-1.22c-2.79-.41-1.13,1-3.38,1-.18-1-1.77-.65-1.64-1.44.54-.1,2,.35,2.77-.05a19,19,0,0,1-6.75-1.3c.36.55.31,1.31-1.46,1.5-4.68.23-1.92-1.12-4.82-1.52-.94.72-4.16.14-3.8,1.6a3.71,3.71,0,0,1-2.5-1c-2.25.73-11.39.72-8.06,2.12l.68.08a3.79,3.79,0,0,0-.38.08h0c-3.69.92-7.83.94-12.06.91a74.24,74.24,0,0,0-12.29.48l-.29-.48c-4.34.91-10.19,1.24-12.67,2.61-1.33.13-3.91-.52-3.78-1.14-1.91.41-2.77.78-4,1.07-2,.38-4.13.68-6.32.9,1.4-.9.81-1,.52-1s-.18,0,.22-.07,1.2-.23,2.7-.48A46.16,46.16,0,0,0,82.61,20a8.08,8.08,0,0,0-2.81,1.36,2.16,2.16,0,0,0-.94,2.55,2.41,2.41,0,0,0-2-.25c-.9.38-1.44.86-1.53,1.36A2.1,2.1,0,0,0,76,27.15a6.89,6.89,0,0,0,2.63,1.58,2.9,2.9,0,0,1-.56-2.9,8.81,8.81,0,0,0,3.12,2.53,23.66,23.66,0,0,0,4.19,1.71c-1.5.29-3.09.53-4.73.71a20.74,20.74,0,0,0,5.85,1.94,38.54,38.54,0,0,0,6.28.7,50,50,0,0,0,9-.53c4.32-.66,8-1.17,11.79.48,2.55-1.15-5.33-.82-3-2.14,4.5.21,9.24,2.53,10.66,2.52,6.28.83,5.49-2.47,11.93-2-1.49-.87-.77-2,1.61-2.57a9.17,9.17,0,0,1,1.13-.19c4.5.12,5.81,2.34,3.11,2.88-1.06.07-1.6-.11-1.6-.31-1.4.25-3.24.54-1.37,1.13l.47-.59c2.25.55,8.39.34,7.13,1.33,3.26-.64,1.26-1-1.26-1.23,5.83.71,8.85-.2,14.76.19-1-.29-2-.95-1.05-1,8.64.47,3.48-1.22,9.15-1.65,3.47.83-.67,2.17,4.91,1.25,3.67.49,1.1,1.52-.18,2,5-1.28,10,.44,13,.55l-2.65.57a22.77,22.77,0,0,1,4.32-.42l-1.85-1.12c1.67.16,3,.12,3.13.61,1.49-.82-1.73-1.91,1.33-3.06,2.25.53,6.43-.82,7.54.69-6.91-.32,1.12,1.53-4.5,2a14.32,14.32,0,0,1,4.09-.1c.27.17-.16.33-.58.44,6.75,1.18,2.58-1.86,9.33-2-.65.91,1.94,1.65,3,1.39-2.73.07-1.65-1.42.7-2.17,4.5.55,4.5-.65,6.75-.64l-2.66-.24c.68-.91,2.86-.82,5.81-1.23.4.68-2.64.55-1.49.83,3-1.65,7.92,1.35,12.35.17,2.25.53.59,1.65,2.57,2,5-1.3,5.94,1,11.25-.08-1.85-1.13-2.05-.83,1.55-2.11l-8.84,1.12,5.4-1.9c-2.72.07-5.58.92-7.27.77,2.54-1,2.25-.75.81-1.64,4.12,1.64,7.13-1.27,11.72-.2l.54,2.91a19.71,19.71,0,0,0,4.75.18c1.86-.18,3.66-.41,5.4-.71,2.05-.35,4.21-.75,6.75-1.23,1.33-.26,2.75-.51,4.5-.87A49,49,0,0,0,272.12,26a37,37,0,0,1-5.54,1c0-.72,2.07-1.18,4.28-2.15,2.4-1,3.58-2.28,3.24-3.59a4,4,0,0,0,2.95-.74,5,5,0,0,0,1.23-1.9c-.85.17-2-1.23-4.34-2.14s-5.24-1.52-7.4-.91a15.8,15.8,0,0,0-1.37-1.19c-.43-.36-.93-.73-1.4-1.07a16.63,16.63,0,0,0-8.17-.25c-2.25.37-4.32.83-6.1,0a10.26,10.26,0,0,0,3-.83,10.31,10.31,0,0,1,3.12-.52,3.49,3.49,0,0,0-2.74-.24c.25-.33-1.26-.44-2.95-.67a16,16,0,0,1-2.38-.45,2.7,2.7,0,0,1-.48-.16,3.77,3.77,0,0,1-.49-.22,1.13,1.13,0,0,1-.52-.49c-1.82,0-3.76.66-6.21-.1.05-.17.31-.32.7-.4a14.5,14.5,0,0,1-2.72.13c-1.08.06-1.85.25-1.44,1a5,5,0,0,0-3-1.65,29.18,29.18,0,0,0-6.89-.74c-2.83,0-4.5.09-6.41.13-3.8.11-7.36.08-9.88-1-4.9.38-9.86.66-14.85.82.25-.29,0-.48.81-.39-6.08-.82-3.49,2.84-10.37,1.9-3.63-1.54,3.55-.9,1.32-1.47-1.21-3.21-8.19.53-13-1.28l1.17-.16c-3.71-1.06-8.55,1.36-14.33,1.19a.33.33,0,0,0,0-.48c-3.73,1.7-11.09,2.37-16.54,2.94,1.53-1.28,2.41-.71,1.17-2-2.45.24,1,2-3.82,2.48-1.74-.66-5.4-1.17-6.12-2.53l4.68-.18c-2.7-1.71-6.06.21-8.58,0l.16-.78c-7.15.43-6.75,2.4-14.56,2.48l1,.55c-3.74,2.06-3.78-1-7.61.61L109,8.59c-2.68.55-9.21,2.25-14,2.82,2.25-1.57,7.94-2.53,11.25-3.52-2.77.09-9.36.51-10.51,1.52a8.25,8.25,0,0,1,3.51-.5c-2.72,1.61-7.37,2.66-12.53,2.81-.18-1.9-3.85-2-8.08-1.87-2.15.06-4.31.06-6.46,0-.54,0-1-.06-1.55-.1s-1.42-.09-2.12-.16A22.88,22.88,0,0,1,64.7,9q-2.69.42-5.49.73c-1.82.19-3.33.47-5.1.64q-5.46.59-11,1a38.39,38.39,0,0,0-8.89,2c-2.69,1.08-4.28,2.47-4.5,3.93,4.3-.59,4.14-.13,4.12.45s.24,1.4,4.5,1.54c1,1.16,1.39,1.55.83,1.65a5.06,5.06,0,0,0-1.24,3.68c-1.19,1.1-3.6-1.1-5.29-.93,1.51,1.52,1.13,1.92.36,2.22s-2,.46-1.35,1.7a7,7,0,0,1,4.14.23,16.56,16.56,0,0,1,4.5,2.16A7.81,7.81,0,0,1,39.05,27,18.9,18.9,0,0,1,44.23,29a3.94,3.94,0,0,1,1.53,1.74A5,5,0,0,0,48,32.57,20.82,20.82,0,0,0,54.33,34a45,45,0,0,1-4.5-.07c1,.21,1.78.34,2.59.51l2.72.56c2.08.44,4.25.83,6.48,1.16,4.5.67,9.68.91,13,.07.47.43.85,1.35-1.47,1.29,5.56,1,12.49,1,18.52.82s11.43-.27,15.39.61l-1,.7c2.07-.14,3.73-1.28,6-.48-.18.3-.9.72,0,.82,1.1-.23,5.35-1.19,7.83-.75l-2.25.83c10,1.08,15.5-1.9,23.67-2.48,0,2.2,7.9,2.84,11.84,3.14V41c11.58.12,19.23-2.13,29.52-3.2,6.88,2.22,22,.49,32.42,1.65-1.62-.37,0-1.7,1.8-2,2.45.4,6.46-1.64,6.3.38h-.85c2,1.94,6.75,1.34,10.64,1.37l.43-2.63c5.15,1.85,11.58,1.46,17.5,1.09s11.41-.77,14.18,1l1-.21c.49-.07,1-.12,1.53-.15,1.17-.1,2.25-.18,3.46-.25a51.9,51.9,0,0,0,6.19-.67l.86,1.4c5.2.13,10.42.1,15.61-.1a50.9,50.9,0,0,0,13.05-2,6.12,6.12,0,0,1,.47,1.19c2.73-.65,1.74-1.76.72-2.85a16.62,16.62,0,0,1-1.46-1.65,4,4,0,0,1-.92-1.49q2.67.26,5.58.47l.11-.26a3.42,3.42,0,0,1,.52-1.36c.22-.45,0-1,0-1.52a4.87,4.87,0,0,0-1.1-3.3,15.39,15.39,0,0,0-3.47-3.55,28.09,28.09,0,0,0-6.52-3.19,6.56,6.56,0,0,1,3.87.61l-1.22-1.06-1.69-1.39a14,14,0,0,0-2.58-1.89,8.3,8.3,0,0,0-7.34-.71c2.07-.56.7-1.36-2-2.09-1.4-.39-2.91-.72-4.5-1s-3-.51-4.5-.72l3.27-.76c-3.36,0-5.2.15-6.89.1a31.58,31.58,0,0,1-6-.7c-.86-.44.81-1.16,1.75-.44a6.26,6.26,0,0,0-4-.73,9.32,9.32,0,0,1-4.75-.82c1-.12,2.07-.23,3.13-.33-4.14-1.08-4.5-.57-8.19-.11a14.3,14.3,0,0,1-2.63-.29A17.36,17.36,0,0,1,254,6.14c-1.55-.48-2.49-1.17-2.61-1.92a12.83,12.83,0,0,1-7.09.77c0-.49,1.1-.69,1.71-.82a32,32,0,0,0-9.76-.36c-2.75.24-5,.46-7.59-.26.07-.31-.23-.61-.81-.83a103.19,103.19,0,0,1,10.94.58c.58-1.27-4.88-1.74,0-3.3-2.45.36-5.65,1-8.69,1.51a30.63,30.63,0,0,1-8.39.54,2.29,2.29,0,0,1-.65-.43l.52-.15a9,9,0,0,0-3.06.21,29.45,29.45,0,0,0-4-.35c-.63-1-5.58-.51-7.86-.52.34,1.38-2.7,1.2.25,2.31-.38-.09.43-.18,2-.25a5.78,5.78,0,0,0,1-.16l-.14.13c1.53-.07,3.53-.12,5.87-.16a9.22,9.22,0,0,1-6.45.62,34.07,34.07,0,0,1-3,2.28c-3.38-1.88-9.41-2.87-10.33-4-6.75.82-16.23.61-20.59,3.23-2,.35-2.25-.74-3-1.16,1.15-.26,2.52-.22,3.13-.6-4,.69-11.77.27-12.71,2.1-5-.83,2.81-1.65-4.08-1.39l.93-.55C146,.23,137.34,7.78,122.13,4.09c1.05.22,1.57.33,1.8.64-8.67-.83-17.64-.33-26.55.08s-17.71.82-26.71-.18c-5.09-.34-5.29.82-8,1.86L61.15,5.06l-4.5,2c-3.33.82-6.75.08-10.53-.45s-7.77-.92-11.64.61l1.74.89c-3.38,0-9.84,1.45-10.08.28-.21.21-.34,1.1-2,.72l-.63-.74c-2.25.7-4.66,1.38-6.91,2.1-3.22.06-3.64-.7-4.34-1.38S10.59,7.77,6,8.27C2.8,9-1.34,11.66.42,12a7.89,7.89,0,0,1,4.5.72l-2.52.78C4,15.71,4.45,18.16,12.48,18.8c1.1-.65,2.25-1.27,3.42-1.91l2.43.87-3.83.54c3.13.74,3.67-.33,4.77-1.11a7,7,0,0,0,3.09,1c.92-.83,1.91-1.75,3-2.61,1.21.83-.77,1.93,2.7,2.1,1.44-1.21-3.58-1.74-.41-2.75,3.06.77,2.93,1.65,5.06.57.72.42.53,1-.45,1.3,1.92-.91,6.12-.82,6.75-2.14,3.13,1.05,8.13-.94,9,1.22a13.35,13.35,0,0,1,5.76-2.2c-3,2.82,8.59-.33,8.57,2.48,2.25-2.48,10.71-1.54,15.88-3a1.81,1.81,0,0,1-1.3.49c3.17.09,4.25.77,6.32,1.15,0-2,4.79-2.52,7.27-3.77,4.16,1.79-2,2.32-.45,4.13-.47-1.57,6.41-1.71,4.93-3,3.1,1.1,2.63.52,4.34,2.09.23-2.43,2.7-.46,5-2,4.5,1.15,1.3,2.26,6,1.47C112.36,14.43,108.31,15.33,108.31,15.33Zm114.31-4.71h0l-2.25.08Zm8.84.14q-1.87-.13-3.78-.15c-.25-.49.16-1,1.06-.93-.57.3,1.48.64,2.67,1.08ZM211.37,1c1.57-.21,2.11.06,2.25.34-.94,0-1.86.11-2.77.2,0,.05,0,.11-.16.17A1.74,1.74,0,0,1,211.37,1Z"/><path class="cls-2" d="M208.73,2.89c-.22,0-.33.09-.63.1a7.56,7.56,0,0,0,1,.31l.52-.45Z"/><path class="cls-2" d="M137.79,15.77h-.21a2.23,2.23,0,0,1,.5.17A1.31,1.31,0,0,1,137.79,15.77Z"/><polygon class="cls-2" points="264 26.07 263.97 26.42 264.83 26.12 264 26.07"/><path class="cls-2" d="M192,18.87a1.69,1.69,0,0,0,.75.34A2.11,2.11,0,0,0,192,18.87Z"/><path class="cls-2" d="M215,18.76l3.28.43A32.92,32.92,0,0,0,215,18.76Z"/><path class="cls-2" d="M229.05,16.72h0Z"/><path class="cls-2" d="M210.2,20.51a4.72,4.72,0,0,0,.67-.08C212.4,20.11,211.37,20.25,210.2,20.51Z"/><path class="cls-2" d="M127.77,26.13a23,23,0,0,1,2.59-.7C128.85,25.35,127.71,25.34,127.77,26.13Z"/><path class="cls-2" d="M134.19,25.38a10.59,10.59,0,0,0-3.85.05A16,16,0,0,0,134.19,25.38Z"/><path class="cls-2" d="M158.53,18.3h-1a.19.19,0,0,1,0,.23Z"/><path class="cls-2" d="M157.57,18.55l-.95.24C157.09,18.76,157.5,18.71,157.57,18.55Z"/><path class="cls-2" d="M154.66,19.32l2-.53C155.86,18.86,154.89,18.89,154.66,19.32Z"/><path class="cls-2" d="M183.35,17.91l.18-.51A.6.6,0,0,0,183.35,17.91Z"/><path class="cls-2" d="M190.37,17.59c-1.64-.07-4.36-1-6.75-.6l-.13.41C184.5,16.65,189,18.48,190.37,17.59Z"/><path class="cls-2" d="M222.35,22c-2.25.07-4.35.2-6.48.22,1.39.44,3.37,1,.54,1.38a17.22,17.22,0,0,0,3.62.18c.34-.07,0-.24-.36-.45C219,22.92,218.12,22.33,222.35,22Z"/><path class="cls-2" d="M233.87,12.83c1.52.25,3,.55,4.34.9.54.1.54-.07.18-.35a8.8,8.8,0,0,0-1.82-.94c-.7-.28-1.2-.46-1-.5a28.07,28.07,0,0,0-4.23-.22,4,4,0,0,0-1.42.15c-.13.07,0,.16.68.28S232.16,12.43,233.87,12.83Z"/><path class="cls-2" d="M95,18l-.65-1.24C91.34,17.36,94.72,17.24,95,18Z"/><path class="cls-2" d="M96.48,24.68a2.06,2.06,0,0,1,.4-.37l.29-.17.16-.08h0l-.83.31-1.2.39C95.7,24.75,96.09,24.72,96.48,24.68Z"/><polygon class="cls-2" points="106.69 34.03 105.56 34.22 109.86 33.76 106.69 34.03"/><path class="cls-2" d="M215.33,5.26l.85,1.55C217.82,6.52,218.12,4.77,215.33,5.26Z"/><path class="cls-2" d="M118.08,8.45c-1.24-.75-4.12-1.15-5.63-.33C114.61,8.16,117,8.68,118.08,8.45Z"/><polygon class="cls-2" points="238.21 38.51 236.34 39.05 239.87 38.59 238.21 38.51"/></g></g></g></g></svg>